<svg id="圖層_1" data-name="圖層 1" xmlns="http://www.w3.org/2000/svg" viewBox="0 0 500 452"><defs><style>.cls-1{fill:#ffd4c4;}</style></defs><path class="cls-1" d="M56.55,237.78H139a14.05,14.05,0,0,1,14,16.16c-1.87,12.81-.29,30.31,17.38,43.2a14.24,14.24,0,0,1,5.26,15.11c-3.31,12.9-4.84,35.64,18.5,50.82a14,14,0,0,1,6.23,11c.77,14.39,7.63,45.39,51.47,52.75A133,133,0,0,0,274,428.69c34.63,0,71.65-14.07,123.68-48.22a15,15,0,0,1,6.09-2.22l59.94-7.93c7.07-.94,12.89-7,12.89-14.1V205.81c0-5.41-3.61-10.35-8.47-12.74-19.31-9.51-69-34-86.22-45.71C354,128.49,340.54,80,315.91,41.71c-8.3-12.89-19.32-18.23-29.72-18.23-20.49,0-38.57,20.89-28.67,46.18,8.6,22,17.7,43.21,28.08,62.85,9.75,18.44-3.62,40.8-24.48,40.8H56.55C13.58,173.31,13.58,237.78,56.55,237.78Z"/><path d="M-.32,205.54c0,31.71,23.92,55.68,55.63,55.68H129a65.43,65.43,0,0,0,22.73,51.19c-5,27.12,4.34,51.58,25.66,67.49a78.75,78.75,0,0,0,13.39,36.56c8.58,12.32,25.51,28.13,57.27,33.47a155.66,155.66,0,0,0,26,2.2c39.64,0,80.16-15.25,134.88-50.92l57.85-7.65C485.4,391.08,500,375,500,356.22V205.81c0-14.45-8.59-27.39-21.55-33.78C437.59,151.91,406.06,135.43,395,128c-12.72-8.62-23.4-30.33-34.7-53.32C352.88,59.5,345.18,43.86,335.62,29,323.75,10.57,305.74,0,286.19,0A54.9,54.9,0,0,0,240.9,24.1c-10.64,15.6-12.54,35.32-5.21,54.06,10.24,26.16,19.52,46.91,29.19,65.21a4.49,4.49,0,0,1-3.76,6.5H55.31C23.6,149.87-.32,173.84-.32,205.54ZM139,237.78H56.55c-43,0-43-64.47,0-64.47H261.12c20.86,0,34.25-22.36,24.5-40.8-10.38-19.64-19.46-41-28.07-62.95-9.9-25.29,8.22-46.13,28.71-46.13,10.4,0,21.49,5.37,29.78,18.26,24.63,38.27,38.25,86.79,66.1,105.66,17.22,11.67,66.64,36.2,85.95,45.71,4.86,2.39,8.47,7.34,8.47,12.75V356.22c0,7.13-5.82,13.16-12.89,14.1l-60.21,7.93a14.34,14.34,0,0,0-5.95,2.22c-52,34.15-89,48.22-123.62,48.22a132.57,132.57,0,0,1-22-1.87c-43.84-7.36-50.69-38.36-51.46-52.74a13.92,13.92,0,0,0-6.22-11c-23.34-15.18-21.81-37.9-18.49-50.79a14.15,14.15,0,0,0-5.26-15.05c-17.67-12.9-19.25-30.51-17.38-43.33A14,14,0,0,0,139,237.78Z"/></svg>