<svg id="圖層_1" data-name="圖層 1" xmlns="http://www.w3.org/2000/svg" xmlns:xlink="http://www.w3.org/1999/xlink" viewBox="0 0 400 300"><defs><style>.cls-1{fill:none;}.cls-2{fill:url(#未命名漸層_50);}.cls-3{opacity:0.47;}.cls-4{clip-path:url(#clip-path);}.cls-5{fill:#911010;}.cls-6{fill:url(#Polished_Brass);}</style><linearGradient id="未命名漸層_50" x1="199.89" y1="601.73" x2="199.89" y2="-217.52" gradientUnits="userSpaceOnUse"><stop offset="0" stop-color="#500"/><stop offset="1" stop-color="#fc5000"/></linearGradient><clipPath id="clip-path"><rect class="cls-1" x="-0.03" y="-0.33" width="399.85" height="649.93"/></clipPath><linearGradient id="Polished_Brass" x1="196.71" y1="159.34" x2="196.84" y2="159.34" gradientUnits="userSpaceOnUse"><stop offset="0.01" stop-color="#ebc17d"/><stop offset="0.19" stop-color="#edd089"/><stop offset="0.41" stop-color="#f4e8d9"/><stop offset="0.73" stop-color="#c08329"/><stop offset="0.95" stop-color="#eabe81"/></linearGradient></defs><rect class="cls-2" x="-0.03" y="-0.33" width="399.85" height="649.93"/><g class="cls-3"><g class="cls-4"><path class="cls-5" d="M85.64,331.44c-1.53-18.7-14.33-34.69-30.43-38-10.1-2.09-20.71.9-29.1,8.21a44.41,44.41,0,0,0-14.65,29.82l-4.89-.53c1.09-13.24,7.13-25.55,16.57-33.78s21.49-11.63,33-9.26c18.22,3.78,32.7,21.88,34.44,43Z"/><path class="cls-5" d="M169.6,331.44c-1.53-18.7-14.33-34.69-30.43-38-10.11-2.09-20.72.9-29.11,8.21a44.5,44.5,0,0,0-14.65,29.82l-4.88-.53c1.08-13.24,7.12-25.55,16.57-33.78s21.48-11.63,32.94-9.26c18.22,3.78,32.71,21.88,34.44,43Z"/><path class="cls-5" d="M253.55,331.44c-1.53-18.7-14.33-34.69-30.43-38-10.1-2.09-20.71.9-29.1,8.21a44.41,44.41,0,0,0-14.65,29.82l-4.89-.53c1.09-13.24,7.13-25.55,16.57-33.78s21.49-11.63,32.95-9.26c18.22,3.78,32.7,21.88,34.44,43Z"/><path class="cls-5" d="M337.51,331.44c-1.53-18.7-14.33-34.69-30.43-38-10.11-2.09-20.72.9-29.11,8.21a44.5,44.5,0,0,0-14.65,29.82l-4.88-.53c1.08-13.24,7.12-25.55,16.57-33.78s21.48-11.63,32.94-9.26c18.22,3.78,32.71,21.88,34.44,43Z"/><path class="cls-5" d="M408,295.59a38.59,38.59,0,0,0-16.09-7.72c-11.46-2.37-23.47,1-33,9.26s-15.48,20.54-16.57,33.78l4.89.53a44.41,44.41,0,0,1,14.65-29.82c8.39-7.31,19-10.3,29.1-8.21a35,35,0,0,1,17,9.23Z"/><path class="cls-5" d="M14.11,248.19a35.63,35.63,0,0,0-8.28-.72v5.63a31.42,31.42,0,0,1,7.41.63c16.1,3.33,28.89,19.33,30.42,38l4.89-.53C46.81,270.06,32.33,252,14.11,248.19Z"/><path class="cls-5" d="M11.75,261.67a24.64,24.64,0,0,0-5.92-.5v5.64a20.51,20.51,0,0,1,5.05.4c10.39,2.15,18.65,12.47,19.64,24.54l4.88-.53C34.19,276.46,24.46,264.3,11.75,261.67Z"/><path class="cls-5" d="M9.38,275.19A13.28,13.28,0,0,0,5.83,275v5.64a9,9,0,0,1,2.68.14c4.66,1,8.38,5.6,8.82,11l4.88-.53C21.56,283.21,16.28,276.62,9.38,275.19Z"/><path class="cls-5" d="M127.62,291.75c-1.53-18.69-14.33-34.69-30.43-38-10.11-2.1-20.72.89-29.11,8.2a44.54,44.54,0,0,0-14.65,29.82l-4.88-.53c1.08-13.23,7.12-25.55,16.57-33.77s21.49-11.64,32.94-9.26c18.23,3.77,32.71,21.87,34.44,43Z"/><path class="cls-5" d="M114.47,291.75c-1-12.07-9.25-22.39-19.64-24.54A21.8,21.8,0,0,0,76,272.51a28.68,28.68,0,0,0-9.46,19.24l-4.88-.53A34.61,34.61,0,0,1,73.07,268a26.28,26.28,0,0,1,22.63-6.35c12.72,2.63,22.45,14.79,23.66,29.55Z"/><path class="cls-5" d="M79.77,291.75l-4.89-.53a18.79,18.79,0,0,1,6.18-12.59,14.23,14.23,0,0,1,12.27-3.44c6.9,1.43,12.18,8,12.84,16l-4.89.53c-.44-5.42-4.15-10.06-8.82-11A9.8,9.8,0,0,0,84,283.11,12.88,12.88,0,0,0,79.77,291.75Z"/><path class="cls-5" d="M211.57,291.75c-1.53-18.69-14.32-34.69-30.42-38-10.11-2.1-20.72.89-29.11,8.2a44.45,44.45,0,0,0-14.65,29.82l-4.89-.53c1.09-13.23,7.13-25.55,16.57-33.77s21.49-11.64,33-9.26c18.22,3.77,32.7,21.87,34.44,43Z"/><path class="cls-5" d="M198.43,291.75c-1-12.07-9.25-22.39-19.64-24.54a21.81,21.81,0,0,0-18.8,5.3,28.72,28.72,0,0,0-9.46,19.24l-4.88-.53A34.62,34.62,0,0,1,157,268a26.28,26.28,0,0,1,22.63-6.35c12.71,2.63,22.44,14.79,23.65,29.55Z"/><path class="cls-5" d="M163.72,291.75l-4.88-.53A18.73,18.73,0,0,1,165,278.63a14.25,14.25,0,0,1,12.28-3.44c6.9,1.43,12.18,8,12.83,16l-4.88.53c-.44-5.42-4.16-10.06-8.82-11a9.79,9.79,0,0,0-8.44,2.38A12.93,12.93,0,0,0,163.72,291.75Z"/><path class="cls-5" d="M295.53,291.75c-1.53-18.69-14.33-34.69-30.43-38-10.11-2.1-20.72.89-29.11,8.2a44.54,44.54,0,0,0-14.65,29.82l-4.88-.53c1.08-13.23,7.12-25.55,16.57-33.77s21.49-11.64,32.94-9.26c18.23,3.77,32.71,21.87,34.44,43Z"/><path class="cls-5" d="M282.38,291.75c-1-12.07-9.25-22.39-19.64-24.54a21.8,21.8,0,0,0-18.79,5.3,28.68,28.68,0,0,0-9.46,19.24l-4.88-.53A34.61,34.61,0,0,1,241,268a26.28,26.28,0,0,1,22.63-6.35c12.72,2.63,22.45,14.79,23.66,29.55Z"/><path class="cls-5" d="M247.68,291.75l-4.89-.53A18.79,18.79,0,0,1,249,278.63a14.23,14.23,0,0,1,12.27-3.44c6.9,1.43,12.18,8,12.84,16l-4.89.53c-.44-5.42-4.15-10.06-8.82-11a9.81,9.81,0,0,0-8.44,2.38A12.88,12.88,0,0,0,247.68,291.75Z"/><path class="cls-5" d="M379.49,291.75c-1.54-18.69-14.33-34.69-30.43-38-10.11-2.1-20.72.89-29.11,8.2a44.45,44.45,0,0,0-14.65,29.82l-4.89-.53c1.09-13.23,7.13-25.55,16.57-33.77s21.49-11.64,32.95-9.26c18.22,3.77,32.71,21.87,34.44,43Z"/><path class="cls-5" d="M366.34,291.75c-1-12.07-9.25-22.39-19.64-24.54a21.81,21.81,0,0,0-18.8,5.3,28.72,28.72,0,0,0-9.46,19.24l-4.88-.53A34.62,34.62,0,0,1,324.94,268a26.28,26.28,0,0,1,22.63-6.35c12.71,2.63,22.44,14.79,23.65,29.55Z"/><path class="cls-5" d="M331.63,291.75l-4.88-.53a18.73,18.73,0,0,1,6.17-12.59,14.25,14.25,0,0,1,12.28-3.44c6.9,1.43,12.18,8,12.83,16l-4.88.53c-.44-5.42-4.16-10.06-8.82-11a9.79,9.79,0,0,0-8.44,2.38A12.93,12.93,0,0,0,331.63,291.75Z"/><path class="cls-5" d="M408,252.46a42.09,42.09,0,0,0-7.06,5c-9.45,8.22-15.49,20.54-16.57,33.77l4.88.53a44.54,44.54,0,0,1,14.65-29.82,39.75,39.75,0,0,1,4.1-3.1Z"/><path class="cls-5" d="M408,268.89a34.73,34.73,0,0,0-10.48,22.33l4.88.53a29.3,29.3,0,0,1,5.6-15Z"/><path class="cls-5" d="M85.64,247.45c-1.53-18.7-14.33-34.69-30.43-38-10.1-2.09-20.71.9-29.1,8.21a44.41,44.41,0,0,0-14.65,29.82l-4.89-.53c1.09-13.24,7.13-25.55,16.57-33.78s21.49-11.63,33-9.26c18.22,3.78,32.7,21.88,34.44,43Z"/><path class="cls-5" d="M72.5,247.45c-1-12.07-9.25-22.4-19.65-24.55a21.83,21.83,0,0,0-18.79,5.3,28.74,28.74,0,0,0-9.46,19.25l-4.88-.53A34.58,34.58,0,0,1,31.1,223.71a26.25,26.25,0,0,1,22.62-6.35c12.72,2.63,22.45,14.79,23.66,29.56Z"/><path class="cls-5" d="M37.79,247.45l-4.88-.53a18.78,18.78,0,0,1,6.17-12.6,14.25,14.25,0,0,1,12.28-3.44c6.9,1.43,12.17,8,12.83,16l-4.88.53c-.45-5.43-4.16-10.06-8.83-11A9.78,9.78,0,0,0,42,238.81,12.92,12.92,0,0,0,37.79,247.45Z"/><path class="cls-5" d="M169.6,247.45c-1.53-18.7-14.33-34.69-30.43-38-10.11-2.09-20.72.9-29.11,8.21a44.5,44.5,0,0,0-14.65,29.82l-4.88-.53c1.08-13.24,7.12-25.55,16.57-33.78s21.48-11.63,32.94-9.26c18.22,3.78,32.71,21.88,34.44,43Z"/><path class="cls-5" d="M156.45,247.45c-1-12.07-9.25-22.4-19.64-24.55A21.83,21.83,0,0,0,118,228.2a28.66,28.66,0,0,0-9.46,19.25l-4.89-.53a34.67,34.67,0,0,1,11.38-23.21,26.28,26.28,0,0,1,22.63-6.35c12.72,2.63,22.44,14.79,23.65,29.56Z"/><path class="cls-5" d="M121.75,247.45l-4.89-.53a18.86,18.86,0,0,1,6.17-12.6,14.26,14.26,0,0,1,12.28-3.44c6.9,1.43,12.18,8,12.84,16l-4.89.53c-.44-5.43-4.15-10.06-8.82-11a9.77,9.77,0,0,0-8.44,2.39A12.83,12.83,0,0,0,121.75,247.45Z"/><path class="cls-5" d="M253.55,247.45c-1.53-18.7-14.33-34.69-30.43-38-10.1-2.09-20.71.9-29.1,8.21a44.41,44.41,0,0,0-14.65,29.82l-4.89-.53c1.09-13.24,7.13-25.55,16.57-33.78s21.49-11.63,32.95-9.26c18.22,3.78,32.7,21.88,34.44,43Z"/><path class="cls-5" d="M240.41,247.45c-1-12.07-9.25-22.4-19.65-24.55A21.83,21.83,0,0,0,202,228.2a28.74,28.74,0,0,0-9.46,19.25l-4.88-.53A34.58,34.58,0,0,1,199,223.71a26.25,26.25,0,0,1,22.62-6.35c12.72,2.63,22.45,14.79,23.66,29.56Z"/><path class="cls-5" d="M205.7,247.45l-4.88-.53a18.78,18.78,0,0,1,6.17-12.6,14.25,14.25,0,0,1,12.28-3.44c6.9,1.43,12.17,8,12.83,16l-4.88.53c-.45-5.43-4.16-10.06-8.83-11a9.78,9.78,0,0,0-8.44,2.39A12.92,12.92,0,0,0,205.7,247.45Z"/><path class="cls-5" d="M337.51,247.45c-1.53-18.7-14.33-34.69-30.43-38-10.11-2.09-20.72.9-29.11,8.21a44.5,44.5,0,0,0-14.65,29.82l-4.88-.53c1.08-13.24,7.12-25.55,16.57-33.78s21.48-11.63,32.94-9.26c18.22,3.78,32.71,21.88,34.44,43Z"/><path class="cls-5" d="M324.36,247.45c-1-12.07-9.25-22.4-19.64-24.55a21.83,21.83,0,0,0-18.79,5.3,28.66,28.66,0,0,0-9.46,19.25l-4.89-.53A34.67,34.67,0,0,1,283,223.71a26.28,26.28,0,0,1,22.63-6.35c12.72,2.63,22.44,14.79,23.65,29.56Z"/><path class="cls-5" d="M289.66,247.45l-4.89-.53a18.86,18.86,0,0,1,6.17-12.6,14.26,14.26,0,0,1,12.28-3.44c6.9,1.43,12.18,8,12.84,16l-4.89.53c-.44-5.43-4.15-10.06-8.82-11a9.77,9.77,0,0,0-8.44,2.39A12.83,12.83,0,0,0,289.66,247.45Z"/><path class="cls-5" d="M408,211.6a38.59,38.59,0,0,0-16.09-7.72c-11.46-2.37-23.47,1-33,9.26s-15.48,20.54-16.57,33.78l4.89.53a44.41,44.41,0,0,1,14.65-29.82c8.39-7.31,19-10.3,29.1-8.21a35,35,0,0,1,17,9.23Z"/><path class="cls-5" d="M408,230.92c-4.28-6.95-10.82-12-18.45-13.56a26.27,26.27,0,0,0-22.63,6.35,34.58,34.58,0,0,0-11.38,23.21l4.88.53a28.74,28.74,0,0,1,9.46-19.25,21.83,21.83,0,0,1,18.79-5.3c9.68,2,17.5,11.09,19.33,22.07Z"/><path class="cls-5" d="M373.61,247.45l-4.88-.53a18.78,18.78,0,0,1,6.17-12.6,14.25,14.25,0,0,1,12.28-3.44c6.9,1.43,12.17,8,12.83,16l-4.88.53c-.45-5.43-4.16-10.06-8.83-11a9.78,9.78,0,0,0-8.44,2.39A12.92,12.92,0,0,0,373.61,247.45Z"/><path class="cls-5" d="M14.11,164.2a35.63,35.63,0,0,0-8.28-.72v5.62a31.43,31.43,0,0,1,7.41.64c16.1,3.33,28.89,19.32,30.42,38l4.89-.53C46.81,186.07,32.33,168,14.11,164.2Z"/><path class="cls-5" d="M11.75,177.67a25.15,25.15,0,0,0-5.92-.49v5.64a20.5,20.5,0,0,1,5.05.39c10.39,2.16,18.65,12.48,19.64,24.55l4.88-.53C34.19,192.46,24.46,180.31,11.75,177.67Z"/><path class="cls-5" d="M9.38,191.19A13.69,13.69,0,0,0,5.83,191v5.64a9,9,0,0,1,2.68.14c4.66,1,8.38,5.6,8.82,11l4.88-.53C21.56,199.22,16.28,192.63,9.38,191.19Z"/><path class="cls-5" d="M127.62,207.76c-1.53-18.7-14.33-34.69-30.43-38-10.11-2.1-20.72.89-29.11,8.2a44.54,44.54,0,0,0-14.65,29.82l-4.88-.53c1.08-13.24,7.12-25.55,16.57-33.77s21.49-11.64,32.94-9.26c18.23,3.77,32.71,21.87,34.44,43Z"/><path class="cls-5" d="M114.47,207.76c-1-12.07-9.25-22.39-19.64-24.55A21.83,21.83,0,0,0,76,188.51a28.72,28.72,0,0,0-9.46,19.25l-4.88-.53A34.61,34.61,0,0,1,73.07,184a26.28,26.28,0,0,1,22.63-6.36c12.72,2.64,22.45,14.8,23.66,29.56Z"/><path class="cls-5" d="M79.77,207.76l-4.89-.53a18.79,18.79,0,0,1,6.18-12.59,14.2,14.2,0,0,1,12.27-3.44c6.9,1.43,12.18,8,12.84,16l-4.89.53c-.44-5.42-4.15-10.06-8.82-11A9.8,9.8,0,0,0,84,199.12,12.86,12.86,0,0,0,79.77,207.76Z"/><path class="cls-5" d="M211.57,207.76c-1.53-18.7-14.32-34.69-30.42-38-10.11-2.1-20.72.89-29.11,8.2a44.45,44.45,0,0,0-14.65,29.82l-4.89-.53c1.09-13.24,7.13-25.55,16.57-33.77s21.49-11.64,33-9.26c18.22,3.77,32.7,21.87,34.44,43Z"/><path class="cls-5" d="M198.43,207.76c-1-12.07-9.25-22.39-19.64-24.55a21.84,21.84,0,0,0-18.8,5.3,28.77,28.77,0,0,0-9.46,19.25l-4.88-.53A34.62,34.62,0,0,1,157,184a26.28,26.28,0,0,1,22.63-6.36c12.71,2.64,22.44,14.8,23.65,29.56Z"/><path class="cls-5" d="M163.72,207.76l-4.88-.53A18.73,18.73,0,0,1,165,194.64a14.22,14.22,0,0,1,12.28-3.44c6.9,1.43,12.18,8,12.83,16l-4.88.53c-.44-5.42-4.16-10.06-8.82-11a9.79,9.79,0,0,0-8.44,2.38A12.91,12.91,0,0,0,163.72,207.76Z"/><path class="cls-5" d="M295.53,207.76c-1.53-18.7-14.33-34.69-30.43-38-10.11-2.1-20.72.89-29.11,8.2a44.54,44.54,0,0,0-14.65,29.82l-4.88-.53c1.08-13.24,7.12-25.55,16.57-33.77s21.49-11.64,32.94-9.26c18.23,3.77,32.71,21.87,34.44,43Z"/><path class="cls-5" d="M282.38,207.76c-1-12.07-9.25-22.39-19.64-24.55a21.83,21.83,0,0,0-18.79,5.3,28.72,28.72,0,0,0-9.46,19.25l-4.88-.53A34.61,34.61,0,0,1,241,184a26.28,26.28,0,0,1,22.63-6.36c12.72,2.64,22.45,14.8,23.66,29.56Z"/><path class="cls-5" d="M247.68,207.76l-4.89-.53A18.79,18.79,0,0,1,249,194.64a14.2,14.2,0,0,1,12.27-3.44c6.9,1.43,12.18,8,12.84,16l-4.89.53c-.44-5.42-4.15-10.06-8.82-11a9.81,9.81,0,0,0-8.44,2.38A12.86,12.86,0,0,0,247.68,207.76Z"/><path class="cls-5" d="M379.49,207.76c-1.54-18.7-14.33-34.69-30.43-38-10.11-2.1-20.72.89-29.11,8.2a44.45,44.45,0,0,0-14.65,29.82l-4.89-.53c1.09-13.24,7.13-25.55,16.57-33.77s21.49-11.64,32.95-9.26c18.22,3.77,32.71,21.87,34.44,43Z"/><path class="cls-5" d="M366.34,207.76c-1-12.07-9.25-22.39-19.64-24.55a21.84,21.84,0,0,0-18.8,5.3,28.77,28.77,0,0,0-9.46,19.25l-4.88-.53A34.62,34.62,0,0,1,324.94,184a26.28,26.28,0,0,1,22.63-6.36c12.71,2.64,22.44,14.8,23.65,29.56Z"/><path class="cls-5" d="M331.63,207.76l-4.88-.53a18.73,18.73,0,0,1,6.17-12.59,14.22,14.22,0,0,1,12.28-3.44c6.9,1.43,12.18,8,12.83,16l-4.88.53c-.44-5.42-4.16-10.06-8.82-11a9.79,9.79,0,0,0-8.44,2.38A12.91,12.91,0,0,0,331.63,207.76Z"/><path class="cls-5" d="M408,168.47a42.09,42.09,0,0,0-7.06,5c-9.45,8.22-15.49,20.53-16.57,33.77l4.88.53a44.54,44.54,0,0,1,14.65-29.82,39.75,39.75,0,0,1,4.1-3.1Z"/><path class="cls-5" d="M408,184.89a34.73,34.73,0,0,0-10.48,22.34l4.88.53a29.37,29.37,0,0,1,5.6-15Z"/><path class="cls-5" d="M85.64,163.45c-1.53-18.69-14.33-34.68-30.43-38-10.1-2.1-20.71.9-29.1,8.2a44.45,44.45,0,0,0-14.65,29.82l-4.89-.52c1.09-13.24,7.13-25.55,16.57-33.78s21.49-11.63,33-9.26c18.22,3.78,32.7,21.88,34.44,43Z"/><path class="cls-5" d="M72.5,163.45c-1-12.07-9.25-22.39-19.65-24.54a21.83,21.83,0,0,0-18.79,5.3,28.74,28.74,0,0,0-9.46,19.24l-4.88-.52A34.58,34.58,0,0,1,31.1,139.72a26.25,26.25,0,0,1,22.62-6.35c12.72,2.63,22.45,14.79,23.66,29.56Z"/><path class="cls-5" d="M37.79,163.45l-4.88-.52a18.76,18.76,0,0,1,6.17-12.6,14.25,14.25,0,0,1,12.28-3.44c6.9,1.43,12.17,8,12.83,16l-4.88.52c-.45-5.42-4.16-10-8.83-11A9.78,9.78,0,0,0,42,154.82,12.92,12.92,0,0,0,37.79,163.45Z"/><path class="cls-5" d="M169.6,163.45c-1.53-18.69-14.33-34.68-30.43-38-10.11-2.1-20.72.9-29.11,8.2a44.54,44.54,0,0,0-14.65,29.82l-4.88-.52c1.08-13.24,7.12-25.55,16.57-33.78s21.48-11.63,32.94-9.26c18.22,3.78,32.71,21.88,34.44,43Z"/><path class="cls-5" d="M156.45,163.45c-1-12.07-9.25-22.39-19.64-24.54a21.83,21.83,0,0,0-18.79,5.3,28.66,28.66,0,0,0-9.46,19.24l-4.89-.52a34.67,34.67,0,0,1,11.38-23.21,26.28,26.28,0,0,1,22.63-6.35c12.72,2.63,22.44,14.79,23.65,29.56Z"/><path class="cls-5" d="M121.75,163.45l-4.89-.52a18.84,18.84,0,0,1,6.17-12.6,14.26,14.26,0,0,1,12.28-3.44c6.9,1.43,12.18,8,12.84,16l-4.89.52c-.44-5.42-4.15-10-8.82-11a9.77,9.77,0,0,0-8.44,2.39A12.83,12.83,0,0,0,121.75,163.45Z"/><path class="cls-5" d="M253.55,163.45c-1.53-18.69-14.33-34.68-30.43-38-10.1-2.1-20.71.9-29.1,8.2a44.45,44.45,0,0,0-14.65,29.82l-4.89-.52c1.09-13.24,7.13-25.55,16.57-33.78s21.49-11.63,32.95-9.26c18.22,3.78,32.7,21.88,34.44,43Z"/><path class="cls-5" d="M240.41,163.45c-1-12.07-9.25-22.39-19.65-24.54a21.83,21.83,0,0,0-18.79,5.3,28.74,28.74,0,0,0-9.46,19.24l-4.88-.52A34.58,34.58,0,0,1,199,139.72a26.25,26.25,0,0,1,22.62-6.35c12.72,2.63,22.45,14.79,23.66,29.56Z"/><path class="cls-5" d="M205.7,163.45l-4.88-.52a18.76,18.76,0,0,1,6.17-12.6,14.25,14.25,0,0,1,12.28-3.44c6.9,1.43,12.17,8,12.83,16l-4.88.52c-.45-5.42-4.16-10-8.83-11a9.78,9.78,0,0,0-8.44,2.39A12.92,12.92,0,0,0,205.7,163.45Z"/><path class="cls-5" d="M337.51,163.45c-1.53-18.69-14.33-34.68-30.43-38-10.11-2.1-20.72.9-29.11,8.2a44.54,44.54,0,0,0-14.65,29.82l-4.88-.52c1.08-13.24,7.12-25.55,16.57-33.78s21.48-11.63,32.94-9.26c18.22,3.78,32.71,21.88,34.44,43Z"/><path class="cls-5" d="M324.36,163.45c-1-12.07-9.25-22.39-19.64-24.54a21.83,21.83,0,0,0-18.79,5.3,28.66,28.66,0,0,0-9.46,19.24l-4.89-.52A34.67,34.67,0,0,1,283,139.72a26.28,26.28,0,0,1,22.63-6.35c12.72,2.63,22.44,14.79,23.65,29.56Z"/><path class="cls-5" d="M289.66,163.45l-4.89-.52a18.84,18.84,0,0,1,6.17-12.6,14.26,14.26,0,0,1,12.28-3.44c6.9,1.43,12.18,8,12.84,16l-4.89.52c-.44-5.42-4.15-10-8.82-11a9.77,9.77,0,0,0-8.44,2.39A12.83,12.83,0,0,0,289.66,163.45Z"/><path class="cls-5" d="M408,127.6a38.57,38.57,0,0,0-16.09-7.71c-11.46-2.37-23.47,1-33,9.26s-15.48,20.54-16.57,33.78l4.89.52a44.45,44.45,0,0,1,14.65-29.82c8.39-7.3,19-10.3,29.1-8.2a35,35,0,0,1,17,9.23Z"/><path class="cls-5" d="M408,146.92c-4.28-6.94-10.82-12-18.45-13.55a26.27,26.27,0,0,0-22.63,6.35,34.58,34.58,0,0,0-11.38,23.21l4.88.52a28.74,28.74,0,0,1,9.46-19.24,21.83,21.83,0,0,1,18.79-5.3c9.68,2,17.5,11.09,19.33,22.07Z"/><path class="cls-5" d="M373.61,163.45l-4.88-.52a18.76,18.76,0,0,1,6.17-12.6,14.25,14.25,0,0,1,12.28-3.44c6.9,1.43,12.17,8,12.83,16l-4.88.52c-.45-5.42-4.16-10-8.83-11a9.78,9.78,0,0,0-8.44,2.39A12.92,12.92,0,0,0,373.61,163.45Z"/><path class="cls-5" d="M14.11,80.21a35.63,35.63,0,0,0-8.28-.72v5.62a31.43,31.43,0,0,1,7.41.64c16.1,3.33,28.89,19.32,30.42,38l4.89-.53C46.81,102.08,32.33,84,14.11,80.21Z"/><path class="cls-5" d="M11.75,93.68a25.15,25.15,0,0,0-5.92-.49v5.64a20.5,20.5,0,0,1,5.05.39c10.39,2.16,18.65,12.48,19.64,24.55l4.88-.53C34.19,108.47,24.46,96.32,11.75,93.68Z"/><path class="cls-5" d="M9.38,107.2A13.27,13.27,0,0,0,5.83,107v5.64a9.29,9.29,0,0,1,2.68.13c4.66,1,8.38,5.61,8.82,11l4.88-.53C21.56,115.23,16.28,108.63,9.38,107.2Z"/><path class="cls-5" d="M127.62,123.77c-1.53-18.7-14.33-34.69-30.43-38-10.11-2.1-20.72.89-29.11,8.2a44.52,44.52,0,0,0-14.65,29.82l-4.88-.53C49.63,110,55.67,97.69,65.12,89.46s21.49-11.63,32.94-9.25c18.23,3.77,32.71,21.87,34.44,43Z"/><path class="cls-5" d="M114.47,123.77c-1-12.07-9.25-22.39-19.64-24.55A21.83,21.83,0,0,0,76,104.52a28.72,28.72,0,0,0-9.46,19.25l-4.88-.53A34.59,34.59,0,0,1,73.07,100,26.28,26.28,0,0,1,95.7,93.68c12.72,2.64,22.45,14.79,23.66,29.56Z"/><path class="cls-5" d="M79.77,123.77l-4.89-.53a18.79,18.79,0,0,1,6.18-12.59,14.23,14.23,0,0,1,12.27-3.45c6.9,1.43,12.18,8,12.84,16l-4.89.53c-.44-5.42-4.15-10.06-8.82-11A9.84,9.84,0,0,0,84,115.13,12.83,12.83,0,0,0,79.77,123.77Z"/><path class="cls-5" d="M211.57,123.77c-1.53-18.7-14.32-34.69-30.42-38C171,83.65,160.43,86.64,152,94a44.43,44.43,0,0,0-14.65,29.82l-4.89-.53c1.09-13.24,7.13-25.55,16.57-33.78s21.49-11.63,33-9.25c18.22,3.77,32.7,21.87,34.44,43Z"/><path class="cls-5" d="M198.43,123.77c-1-12.07-9.25-22.39-19.64-24.55a21.84,21.84,0,0,0-18.8,5.3,28.77,28.77,0,0,0-9.46,19.25l-4.88-.53A34.6,34.6,0,0,1,157,100a26.28,26.28,0,0,1,22.63-6.36c12.71,2.64,22.44,14.79,23.65,29.56Z"/><path class="cls-5" d="M163.72,123.77l-4.88-.53A18.73,18.73,0,0,1,165,110.65a14.25,14.25,0,0,1,12.28-3.45c6.9,1.43,12.18,8,12.83,16l-4.88.53c-.44-5.42-4.16-10.06-8.82-11a9.83,9.83,0,0,0-8.44,2.39A12.89,12.89,0,0,0,163.72,123.77Z"/><path class="cls-5" d="M295.53,123.77c-1.53-18.7-14.33-34.69-30.43-38C255,83.65,244.38,86.64,236,94a44.52,44.52,0,0,0-14.65,29.82l-4.88-.53C217.54,110,223.58,97.69,233,89.46S254.52,77.83,266,80.21c18.23,3.77,32.71,21.87,34.44,43Z"/><path class="cls-5" d="M282.38,123.77c-1-12.07-9.25-22.39-19.64-24.55a21.83,21.83,0,0,0-18.79,5.3,28.72,28.72,0,0,0-9.46,19.25l-4.88-.53A34.59,34.59,0,0,1,241,100a26.28,26.28,0,0,1,22.63-6.36c12.72,2.64,22.45,14.79,23.66,29.56Z"/><path class="cls-5" d="M247.68,123.77l-4.89-.53A18.79,18.79,0,0,1,249,110.65a14.23,14.23,0,0,1,12.27-3.45c6.9,1.43,12.18,8,12.84,16l-4.89.53c-.44-5.42-4.15-10.06-8.82-11a9.84,9.84,0,0,0-8.44,2.39A12.83,12.83,0,0,0,247.68,123.77Z"/><path class="cls-5" d="M379.49,123.77c-1.54-18.7-14.33-34.69-30.43-38C339,83.65,328.34,86.64,320,94a44.43,44.43,0,0,0-14.65,29.82l-4.89-.53C301.5,110,307.54,97.69,317,89.46s21.49-11.63,32.95-9.25c18.22,3.77,32.71,21.87,34.44,43Z"/><path class="cls-5" d="M366.34,123.77c-1-12.07-9.25-22.39-19.64-24.55a21.84,21.84,0,0,0-18.8,5.3,28.77,28.77,0,0,0-9.46,19.25l-4.88-.53A34.6,34.6,0,0,1,324.94,100a26.28,26.28,0,0,1,22.63-6.36c12.71,2.64,22.44,14.79,23.65,29.56Z"/><path class="cls-5" d="M331.63,123.77l-4.88-.53a18.73,18.73,0,0,1,6.17-12.59,14.25,14.25,0,0,1,12.28-3.45c6.9,1.43,12.18,8,12.83,16l-4.88.53c-.44-5.42-4.16-10.06-8.82-11a9.83,9.83,0,0,0-8.44,2.39A12.89,12.89,0,0,0,331.63,123.77Z"/><path class="cls-5" d="M408,84.48a42,42,0,0,0-7.06,5c-9.45,8.23-15.49,20.54-16.57,33.78l4.88.53A44.52,44.52,0,0,1,403.9,94a38.37,38.37,0,0,1,4.1-3.1Z"/><path class="cls-5" d="M408,100.9a34.73,34.73,0,0,0-10.48,22.34l4.88.53a29.34,29.34,0,0,1,5.6-15Z"/><path class="cls-5" d="M85.64,79.46c-1.53-18.69-14.33-34.68-30.43-38-10.1-2.1-20.71.89-29.1,8.2A44.45,44.45,0,0,0,11.46,79.46l-4.89-.52C7.66,65.7,13.7,53.39,23.14,45.16s21.49-11.64,33-9.26c18.22,3.78,32.7,21.87,34.44,43Z"/><path class="cls-5" d="M72.5,79.46c-1-12.07-9.25-22.39-19.65-24.54a21.8,21.8,0,0,0-18.79,5.3A28.74,28.74,0,0,0,24.6,79.46l-4.88-.52A34.58,34.58,0,0,1,31.1,55.73a26.25,26.25,0,0,1,22.62-6.35C66.44,52,76.17,64.17,77.38,78.94Z"/><path class="cls-5" d="M37.79,79.46l-4.88-.52a18.73,18.73,0,0,1,6.17-12.6A14.25,14.25,0,0,1,51.36,62.9c6.9,1.43,12.17,8,12.83,16l-4.88.52c-.45-5.42-4.16-10.06-8.83-11A9.81,9.81,0,0,0,42,70.82,13,13,0,0,0,37.79,79.46Z"/><path class="cls-5" d="M169.6,79.46c-1.53-18.69-14.33-34.68-30.43-38-10.11-2.1-20.72.89-29.11,8.2A44.54,44.54,0,0,0,95.41,79.46l-4.88-.52c1.08-13.24,7.12-25.55,16.57-33.78S128.58,33.52,140,35.9c18.22,3.78,32.71,21.87,34.44,43Z"/><path class="cls-5" d="M156.45,79.46c-1-12.07-9.25-22.39-19.64-24.54A21.8,21.8,0,0,0,118,60.22a28.66,28.66,0,0,0-9.46,19.24l-4.89-.52a34.67,34.67,0,0,1,11.38-23.21,26.28,26.28,0,0,1,22.63-6.35C150.4,52,160.12,64.17,161.33,78.94Z"/><path class="cls-5" d="M121.75,79.46l-4.89-.52A18.82,18.82,0,0,1,123,66.34a14.26,14.26,0,0,1,12.28-3.44c6.9,1.43,12.18,8,12.84,16l-4.89.52c-.44-5.42-4.15-10.06-8.82-11A9.8,9.8,0,0,0,126,70.82,12.88,12.88,0,0,0,121.75,79.46Z"/><path class="cls-5" d="M253.55,79.46c-1.53-18.69-14.33-34.68-30.43-38-10.1-2.1-20.71.89-29.1,8.2a44.45,44.45,0,0,0-14.65,29.82l-4.89-.52c1.09-13.24,7.13-25.55,16.57-33.78S212.54,33.52,224,35.9c18.22,3.78,32.7,21.87,34.44,43Z"/><path class="cls-5" d="M240.41,79.46c-1-12.07-9.25-22.39-19.65-24.54A21.8,21.8,0,0,0,202,60.22a28.74,28.74,0,0,0-9.46,19.24l-4.88-.52A34.58,34.58,0,0,1,199,55.73a26.25,26.25,0,0,1,22.62-6.35c12.72,2.63,22.45,14.79,23.66,29.56Z"/><path class="cls-5" d="M205.7,79.46l-4.88-.52A18.73,18.73,0,0,1,207,66.34a14.25,14.25,0,0,1,12.28-3.44c6.9,1.43,12.17,8,12.83,16l-4.88.52c-.45-5.42-4.16-10.06-8.83-11A9.81,9.81,0,0,0,210,70.82,13,13,0,0,0,205.7,79.46Z"/><path class="cls-5" d="M337.51,79.46c-1.53-18.69-14.33-34.68-30.43-38-10.11-2.1-20.72.89-29.11,8.2a44.54,44.54,0,0,0-14.65,29.82l-4.88-.52c1.08-13.24,7.12-25.55,16.57-33.78S296.49,33.52,308,35.9c18.22,3.78,32.71,21.87,34.44,43Z"/><path class="cls-5" d="M324.36,79.46c-1-12.07-9.25-22.39-19.64-24.54a21.8,21.8,0,0,0-18.79,5.3,28.66,28.66,0,0,0-9.46,19.24l-4.89-.52A34.67,34.67,0,0,1,283,55.73a26.28,26.28,0,0,1,22.63-6.35C318.31,52,328,64.17,329.24,78.94Z"/><path class="cls-5" d="M289.66,79.46l-4.89-.52a18.82,18.82,0,0,1,6.17-12.6,14.26,14.26,0,0,1,12.28-3.44c6.9,1.43,12.18,8,12.84,16l-4.89.52c-.44-5.42-4.15-10.06-8.82-11a9.8,9.8,0,0,0-8.44,2.38A12.88,12.88,0,0,0,289.66,79.46Z"/><path class="cls-5" d="M408,43.61a38.57,38.57,0,0,0-16.09-7.71c-11.46-2.38-23.47,1-33,9.26S343.48,65.7,342.39,78.94l4.89.52a44.45,44.45,0,0,1,14.65-29.82c8.39-7.31,19-10.3,29.1-8.2a34.87,34.87,0,0,1,17,9.23Z"/><path class="cls-5" d="M408,62.93c-4.28-6.94-10.82-12-18.45-13.55a26.27,26.27,0,0,0-22.63,6.35,34.58,34.58,0,0,0-11.38,23.21l4.88.52a28.74,28.74,0,0,1,9.46-19.24,21.8,21.8,0,0,1,18.79-5.3C398.35,56.92,406.17,66,408,77Z"/><path class="cls-5" d="M373.61,79.46l-4.88-.52a18.73,18.73,0,0,1,6.17-12.6,14.25,14.25,0,0,1,12.28-3.44c6.9,1.43,12.17,8,12.83,16l-4.88.52c-.45-5.42-4.16-10.06-8.83-11a9.81,9.81,0,0,0-8.44,2.38A13,13,0,0,0,373.61,79.46Z"/><path class="cls-5" d="M14.11-3.79a36.75,36.75,0,0,0-8.28-.72V1.12a32,32,0,0,1,7.41.63c16.1,3.34,28.89,19.33,30.42,38l4.89-.53C46.81,18.09,32.33,0,14.11-3.79Z"/><path class="cls-5" d="M11.75,9.69A24.14,24.14,0,0,0,5.83,9.2v5.64a20,20,0,0,1,5.05.39c10.39,2.16,18.65,12.48,19.64,24.55l4.88-.53C34.19,24.48,24.46,12.33,11.75,9.69Z"/><path class="cls-5" d="M9.38,23.21A13.27,13.27,0,0,0,5.83,23v5.64a9.29,9.29,0,0,1,2.68.13c4.66,1,8.38,5.61,8.82,11l4.88-.53C21.56,31.24,16.28,24.64,9.38,23.21Z"/><path class="cls-5" d="M127.62,39.78c-1.53-18.7-14.33-34.69-30.43-38C87.08-.34,76.47,2.65,68.08,10A44.5,44.5,0,0,0,53.43,39.78l-4.88-.53C49.63,26,55.67,13.7,65.12,5.47S86.61-6.16,98.06-3.79c18.23,3.78,32.71,21.88,34.44,43Z"/><path class="cls-5" d="M114.47,39.78c-1-12.07-9.25-22.39-19.64-24.55A21.83,21.83,0,0,0,76,20.53a28.72,28.72,0,0,0-9.46,19.25l-4.88-.53a34.59,34.59,0,0,1,11.37-23.2A26.28,26.28,0,0,1,95.7,9.69c12.72,2.64,22.45,14.79,23.66,29.56Z"/><path class="cls-5" d="M79.77,39.78l-4.89-.53a18.83,18.83,0,0,1,6.18-12.6,14.26,14.26,0,0,1,12.27-3.44c6.9,1.43,12.18,8,12.84,16l-4.89.53c-.44-5.42-4.15-10.06-8.82-11A9.84,9.84,0,0,0,84,31.14,12.83,12.83,0,0,0,79.77,39.78Z"/><path class="cls-5" d="M211.57,39.78c-1.53-18.7-14.32-34.69-30.42-38C171-.34,160.43,2.65,152,10a44.41,44.41,0,0,0-14.65,29.82l-4.89-.53C133.59,26,139.63,13.7,149.07,5.47s21.49-11.63,33-9.26c18.22,3.78,32.7,21.88,34.44,43Z"/><path class="cls-5" d="M198.43,39.78c-1-12.07-9.25-22.39-19.64-24.55a21.84,21.84,0,0,0-18.8,5.3,28.77,28.77,0,0,0-9.46,19.25l-4.88-.53A34.6,34.6,0,0,1,157,16.05a26.28,26.28,0,0,1,22.63-6.36c12.71,2.64,22.44,14.79,23.65,29.56Z"/><path class="cls-5" d="M163.72,39.78l-4.88-.53A18.78,18.78,0,0,1,165,26.65a14.28,14.28,0,0,1,12.28-3.44c6.9,1.43,12.18,8,12.83,16l-4.88.53c-.44-5.42-4.16-10.06-8.82-11A9.83,9.83,0,0,0,168,31.14,12.89,12.89,0,0,0,163.72,39.78Z"/><path class="cls-5" d="M295.53,39.78C294,21.08,281.2,5.09,265.1,1.75,255-.34,244.38,2.65,236,10a44.5,44.5,0,0,0-14.65,29.82l-4.88-.53C217.54,26,223.58,13.7,233,5.47S254.52-6.16,266-3.79c18.23,3.78,32.71,21.88,34.44,43Z"/><path class="cls-5" d="M282.38,39.78c-1-12.07-9.25-22.39-19.64-24.55A21.83,21.83,0,0,0,244,20.53a28.72,28.72,0,0,0-9.46,19.25l-4.88-.53A34.59,34.59,0,0,1,241,16.05a26.28,26.28,0,0,1,22.63-6.36c12.72,2.64,22.45,14.79,23.66,29.56Z"/><path class="cls-5" d="M247.68,39.78l-4.89-.53A18.83,18.83,0,0,1,249,26.65a14.26,14.26,0,0,1,12.27-3.44c6.9,1.43,12.18,8,12.84,16l-4.89.53c-.44-5.42-4.15-10.06-8.82-11a9.84,9.84,0,0,0-8.44,2.39A12.83,12.83,0,0,0,247.68,39.78Z"/><path class="cls-5" d="M379.49,39.78c-1.54-18.7-14.33-34.69-30.43-38C339-.34,328.34,2.65,320,10A44.41,44.41,0,0,0,305.3,39.78l-4.89-.53C301.5,26,307.54,13.7,317,5.47s21.49-11.63,32.95-9.26c18.22,3.78,32.71,21.88,34.44,43Z"/><path class="cls-5" d="M366.34,39.78c-1-12.07-9.25-22.39-19.64-24.55a21.84,21.84,0,0,0-18.8,5.3,28.77,28.77,0,0,0-9.46,19.25l-4.88-.53a34.6,34.6,0,0,1,11.38-23.2,26.28,26.28,0,0,1,22.63-6.36c12.71,2.64,22.44,14.79,23.65,29.56Z"/><path class="cls-5" d="M331.63,39.78l-4.88-.53a18.78,18.78,0,0,1,6.17-12.6,14.28,14.28,0,0,1,12.28-3.44c6.9,1.43,12.18,8,12.83,16l-4.88.53c-.44-5.42-4.16-10.06-8.82-11a9.83,9.83,0,0,0-8.44,2.39A12.89,12.89,0,0,0,331.63,39.78Z"/><path class="cls-5" d="M408,.48a42.09,42.09,0,0,0-7.06,5C391.49,13.7,385.45,26,384.37,39.25l4.88.53A44.5,44.5,0,0,1,403.9,10a38.37,38.37,0,0,1,4.1-3.1Z"/><path class="cls-5" d="M408,16.91a34.73,34.73,0,0,0-10.48,22.34l4.88.53a29.34,29.34,0,0,1,5.6-15Z"/></g></g><path class="cls-6" d="M196.71,159.36l.13,0-.08-.09Z"/></svg>