<svg id="圖層_1" data-name="圖層 1" xmlns="http://www.w3.org/2000/svg" xmlns:xlink="http://www.w3.org/1999/xlink" viewBox="0 0 400 650"><defs><style>.cls-1{fill:none;}.cls-2{fill:url(#未命名漸層_50);}.cls-3{opacity:0.47;}.cls-4{clip-path:url(#clip-path);}.cls-5{fill:#911010;}.cls-6{fill:url(#Polished_Brass);}.cls-7{fill:url(#Polished_Brass-2);}.cls-8{fill:url(#Polished_Brass-3);}.cls-9{fill:url(#radial-gradient);}.cls-10{fill:url(#Polished_Brass-4);}.cls-11{fill:url(#radial-gradient-2);}.cls-12{fill:url(#linear-gradient);}.cls-13{opacity:0.38;}.cls-14{fill:#6b4c2d;}.cls-15,.cls-18,.cls-21,.cls-24,.cls-27,.cls-30{opacity:0.39;}.cls-15,.cls-16{fill:url(#linear-gradient-2);}.cls-16,.cls-19,.cls-22,.cls-25,.cls-28,.cls-31{opacity:0.54;}.cls-17{fill:url(#linear-gradient-4);}.cls-18,.cls-19{fill:url(#linear-gradient-5);}.cls-20{fill:url(#linear-gradient-7);}.cls-21,.cls-22{fill:url(#linear-gradient-8);}.cls-23{fill:url(#linear-gradient-10);}.cls-24,.cls-25{fill:url(#linear-gradient-11);}.cls-26{fill:url(#linear-gradient-13);}.cls-27,.cls-28{fill:url(#linear-gradient-14);}.cls-29{fill:url(#linear-gradient-16);}.cls-30,.cls-31{fill:url(#linear-gradient-17);}</style><linearGradient id="未命名漸層_50" x1="200.18" y1="602.12" x2="200.18" y2="-217.13" gradientUnits="userSpaceOnUse"><stop offset="0" stop-color="#500"/><stop offset="1" stop-color="#fc5000"/></linearGradient><clipPath id="clip-path"><rect class="cls-1" x="0.26" y="0.07" width="399.85" height="649.93"/></clipPath><linearGradient id="Polished_Brass" x1="201" y1="347.73" x2="201.13" y2="347.73" gradientUnits="userSpaceOnUse"><stop offset="0.01" stop-color="#ebc17d"/><stop offset="0.19" stop-color="#edd089"/><stop offset="0.41" stop-color="#f4e8d9"/><stop offset="0.73" stop-color="#c08329"/><stop offset="0.95" stop-color="#eabe81"/></linearGradient><linearGradient id="Polished_Brass-2" x1="10.94" y1="324.2" x2="390.14" y2="324.2" xlink:href="#Polished_Brass"/><linearGradient id="Polished_Brass-3" x1="43.41" y1="430.23" x2="132" y2="430.23" xlink:href="#Polished_Brass"/><radialGradient id="radial-gradient" cx="86.59" cy="430.23" r="36.43" gradientUnits="userSpaceOnUse"><stop offset="0" stop-color="#faaa17"/><stop offset="0.4" stop-color="#e18717"/><stop offset="0.78" stop-color="#cf6d18"/><stop offset="1" stop-color="#c86318"/></radialGradient><linearGradient id="Polished_Brass-4" x1="283.15" y1="586.29" x2="352.85" y2="586.29" xlink:href="#Polished_Brass"/><radialGradient id="radial-gradient-2" cx="317.12" cy="586.29" r="28.67" xlink:href="#radial-gradient"/><linearGradient id="linear-gradient" x1="219.98" y1="604.93" x2="320.58" y2="604.93" gradientTransform="translate(588.46 -48.39) rotate(59.89)" gradientUnits="userSpaceOnUse"><stop offset="0.01" stop-color="#fbc926"/><stop offset="0.34" stop-color="#f3e6ad"/><stop offset="0.43" stop-color="#e3ca82"/><stop offset="0.6" stop-color="#c3922e"/><stop offset="0.87" stop-color="#eed688"/><stop offset="1" stop-color="#fffbcc"/></linearGradient><linearGradient id="linear-gradient-2" x1="246.7" y1="604.93" x2="293.86" y2="604.93" gradientTransform="translate(588.46 -48.39) rotate(59.89)" gradientUnits="userSpaceOnUse"><stop offset="0.01" stop-color="#401617"/><stop offset="0.24" stop-color="#6b4c2d"/><stop offset="0.62" stop-color="#a58a55"/><stop offset="0.8" stop-color="#967857"/><stop offset="0.96" stop-color="#814f2f"/></linearGradient><linearGradient id="linear-gradient-4" x1="88.42" y1="505.29" x2="167" y2="505.29" gradientTransform="matrix(1, 0, 0, 1, 0, 0)" xlink:href="#linear-gradient"/><linearGradient id="linear-gradient-5" x1="109.29" y1="505.29" x2="146.13" y2="505.29" gradientTransform="matrix(1, 0, 0, 1, 0, 0)" xlink:href="#linear-gradient-2"/><linearGradient id="linear-gradient-7" x1="231.48" y1="756.6" x2="338.26" y2="756.6" gradientTransform="translate(607.37 -227.74) rotate(45)" xlink:href="#linear-gradient"/><linearGradient id="linear-gradient-8" x1="259.85" y1="756.6" x2="309.9" y2="756.6" gradientTransform="translate(607.37 -227.74) rotate(45)" xlink:href="#linear-gradient-2"/><linearGradient id="linear-gradient-10" x1="152.7" y1="527.12" x2="229" y2="527.12" gradientTransform="matrix(1, 0, 0, 1, 0, 0)" xlink:href="#linear-gradient"/><linearGradient id="linear-gradient-11" x1="172.97" y1="527.12" x2="208.73" y2="527.12" gradientTransform="matrix(1, 0, 0, 1, 0, 0)" xlink:href="#linear-gradient-2"/><linearGradient id="linear-gradient-13" x1="236.76" y1="769.55" x2="276.4" y2="769.55" gradientTransform="translate(710.56 -37.58) rotate(62.77)" xlink:href="#linear-gradient"/><linearGradient id="linear-gradient-14" x1="247.29" y1="769.55" x2="265.87" y2="769.55" gradientTransform="translate(710.56 -37.58) rotate(62.77)" xlink:href="#linear-gradient-2"/><linearGradient id="linear-gradient-16" x1="271.36" y1="428.34" x2="320.55" y2="428.34" gradientTransform="translate(-172.7 226.99) rotate(-16.62)" xlink:href="#linear-gradient"/><linearGradient id="linear-gradient-17" x1="284.42" y1="428.34" x2="307.49" y2="428.34" gradientTransform="translate(-172.7 226.99) rotate(-16.62)" xlink:href="#linear-gradient-2"/></defs><rect class="cls-2" x="0.26" y="0.07" width="399.85" height="649.93"/><g class="cls-3"><g class="cls-4"><path class="cls-5" d="M85.93,667.8c-1.53-18.7-14.33-34.69-30.42-38-10.11-2.1-20.72.89-29.11,8.2A44.45,44.45,0,0,0,11.75,667.8l-4.89-.53C8,654,14,641.72,23.43,633.5s21.49-11.64,33-9.26c18.22,3.77,32.7,21.87,34.44,43Z"/><path class="cls-5" d="M72.79,667.8c-1-12.07-9.25-22.39-19.65-24.55a21.83,21.83,0,0,0-18.79,5.3,28.77,28.77,0,0,0-9.46,19.25L20,667.27a34.58,34.58,0,0,1,11.38-23.2A26.28,26.28,0,0,1,54,637.71c12.71,2.64,22.44,14.79,23.65,29.56Z"/><path class="cls-5" d="M169.89,667.8c-1.53-18.7-14.33-34.69-30.43-38-10.11-2.1-20.72.89-29.11,8.2A44.54,44.54,0,0,0,95.7,667.8l-4.88-.53c1.08-13.24,7.12-25.55,16.57-33.77s21.48-11.64,32.94-9.26c18.22,3.77,32.71,21.87,34.44,43Z"/><path class="cls-5" d="M156.74,667.8c-1-12.07-9.25-22.39-19.64-24.55a21.83,21.83,0,0,0-18.79,5.3,28.68,28.68,0,0,0-9.46,19.25l-4.89-.53a34.66,34.66,0,0,1,11.38-23.2A26.28,26.28,0,0,1,138,637.71c12.72,2.64,22.45,14.79,23.66,29.56Z"/><path class="cls-5" d="M253.84,667.8c-1.53-18.7-14.33-34.69-30.42-38-10.11-2.1-20.72.89-29.11,8.2a44.45,44.45,0,0,0-14.65,29.82l-4.89-.53c1.09-13.24,7.13-25.55,16.57-33.77s21.49-11.64,32.95-9.26c18.22,3.77,32.7,21.87,34.44,43Z"/><path class="cls-5" d="M240.7,667.8c-1-12.07-9.25-22.39-19.65-24.55a21.83,21.83,0,0,0-18.79,5.3,28.77,28.77,0,0,0-9.46,19.25l-4.88-.53a34.58,34.58,0,0,1,11.38-23.2,26.28,26.28,0,0,1,22.63-6.36c12.71,2.64,22.44,14.79,23.65,29.56Z"/><path class="cls-5" d="M337.8,667.8c-1.53-18.7-14.33-34.69-30.43-38-10.11-2.1-20.72.89-29.11,8.2a44.54,44.54,0,0,0-14.65,29.82l-4.88-.53c1.08-13.24,7.12-25.55,16.57-33.77s21.48-11.64,32.94-9.26c18.22,3.77,32.71,21.87,34.44,43Z"/><path class="cls-5" d="M324.65,667.8c-1-12.07-9.25-22.39-19.64-24.55a21.83,21.83,0,0,0-18.79,5.3,28.68,28.68,0,0,0-9.46,19.25l-4.89-.53a34.66,34.66,0,0,1,11.38-23.2,26.28,26.28,0,0,1,22.63-6.36c12.72,2.64,22.45,14.79,23.66,29.56Z"/><path class="cls-5" d="M408.29,632a38.45,38.45,0,0,0-16.09-7.71c-11.46-2.38-23.47,1-32.95,9.25S343.77,654,342.68,667.27l4.89.53A44.45,44.45,0,0,1,362.22,638c8.39-7.31,19-10.3,29.11-8.2a34.9,34.9,0,0,1,17,9.22Z"/><path class="cls-5" d="M408.29,651.27c-4.28-6.95-10.82-12-18.45-13.56a26.28,26.28,0,0,0-22.63,6.36,34.58,34.58,0,0,0-11.38,23.2l4.88.53a28.77,28.77,0,0,1,9.46-19.25,21.83,21.83,0,0,1,18.79-5.3c9.68,2,17.5,11.09,19.33,22.08Z"/><path class="cls-5" d="M14.4,584.55a35.58,35.58,0,0,0-8.28-.72v5.63a31.42,31.42,0,0,1,7.41.63c16.1,3.34,28.89,19.33,30.43,38l4.88-.52C47.11,606.43,32.62,588.33,14.4,584.55Z"/><path class="cls-5" d="M12,598a24.14,24.14,0,0,0-5.92-.49v5.63a20.51,20.51,0,0,1,5.05.4c10.39,2.15,18.65,12.48,19.64,24.54l4.88-.52C34.48,612.82,24.76,600.66,12,598Z"/><path class="cls-5" d="M9.67,611.55a13.7,13.7,0,0,0-3.55-.24V617a9,9,0,0,1,2.68.13c4.67,1,8.38,5.6,8.82,11l4.88-.52C21.85,619.57,16.57,613,9.67,611.55Z"/><path class="cls-5" d="M127.91,628.11c-1.53-18.69-14.33-34.68-30.43-38-10.11-2.1-20.72.9-29.11,8.2a44.54,44.54,0,0,0-14.65,29.82l-4.88-.52C49.92,614.35,56,602,65.41,593.81s21.49-11.63,32.94-9.26c18.23,3.78,32.71,21.88,34.44,43Z"/><path class="cls-5" d="M114.76,628.11c-1-12.06-9.25-22.39-19.64-24.54a21.83,21.83,0,0,0-18.79,5.3,28.74,28.74,0,0,0-9.46,19.24L62,627.59a34.61,34.61,0,0,1,11.37-23.21A26.28,26.28,0,0,1,96,598c12.72,2.63,22.45,14.79,23.66,29.56Z"/><path class="cls-5" d="M80.06,628.11l-4.88-.52A18.78,18.78,0,0,1,81.35,615a14.23,14.23,0,0,1,12.27-3.44c6.9,1.43,12.18,8,12.84,16l-4.89.52c-.44-5.42-4.15-10.05-8.82-11a9.78,9.78,0,0,0-8.44,2.39A12.92,12.92,0,0,0,80.06,628.11Z"/><path class="cls-5" d="M211.87,628.11c-1.54-18.69-14.33-34.68-30.43-38-10.11-2.1-20.72.9-29.11,8.2a44.5,44.5,0,0,0-14.65,29.82l-4.89-.52c1.09-13.24,7.13-25.55,16.57-33.78s21.49-11.63,32.95-9.26c18.22,3.78,32.71,21.88,34.44,43Z"/><path class="cls-5" d="M198.72,628.11c-1-12.06-9.25-22.39-19.64-24.54a21.82,21.82,0,0,0-18.79,5.3,28.66,28.66,0,0,0-9.46,19.24l-4.89-.52a34.62,34.62,0,0,1,11.38-23.21A26.28,26.28,0,0,1,180,598c12.72,2.63,22.44,14.79,23.65,29.56Z"/><path class="cls-5" d="M164,628.11l-4.88-.52A18.82,18.82,0,0,1,165.3,615a14.25,14.25,0,0,1,12.28-3.44c6.9,1.43,12.18,8,12.83,16l-4.88.52c-.44-5.42-4.15-10.05-8.82-11a9.77,9.77,0,0,0-8.44,2.39A12.89,12.89,0,0,0,164,628.11Z"/><path class="cls-5" d="M295.82,628.11c-1.53-18.69-14.33-34.68-30.43-38-10.11-2.1-20.72.9-29.11,8.2a44.54,44.54,0,0,0-14.65,29.82l-4.88-.52c1.08-13.24,7.12-25.55,16.57-33.78s21.49-11.63,32.94-9.26c18.23,3.78,32.71,21.88,34.44,43Z"/><path class="cls-5" d="M282.67,628.11c-1-12.06-9.25-22.39-19.64-24.54a21.83,21.83,0,0,0-18.79,5.3,28.74,28.74,0,0,0-9.46,19.24l-4.88-.52a34.58,34.58,0,0,1,11.38-23.21A26.25,26.25,0,0,1,263.9,598c12.72,2.63,22.45,14.79,23.66,29.56Z"/><path class="cls-5" d="M248,628.11l-4.88-.52a18.78,18.78,0,0,1,6.17-12.6,14.23,14.23,0,0,1,12.27-3.44c6.9,1.43,12.18,8,12.84,16l-4.88.52c-.45-5.42-4.16-10.05-8.83-11a9.78,9.78,0,0,0-8.44,2.39A12.92,12.92,0,0,0,248,628.11Z"/><path class="cls-5" d="M379.78,628.11c-1.54-18.69-14.33-34.68-30.43-38-10.11-2.1-20.72.9-29.11,8.2a44.5,44.5,0,0,0-14.65,29.82l-4.89-.52c1.09-13.24,7.13-25.55,16.57-33.78s21.49-11.63,33-9.26c18.22,3.78,32.71,21.88,34.44,43Z"/><path class="cls-5" d="M366.63,628.11c-1-12.06-9.25-22.39-19.64-24.54a21.82,21.82,0,0,0-18.79,5.3,28.66,28.66,0,0,0-9.46,19.24l-4.89-.52a34.62,34.62,0,0,1,11.38-23.21A26.28,26.28,0,0,1,347.86,598c12.72,2.63,22.44,14.79,23.65,29.56Z"/><path class="cls-5" d="M331.92,628.11l-4.88-.52a18.82,18.82,0,0,1,6.17-12.6,14.25,14.25,0,0,1,12.28-3.44c6.9,1.43,12.18,8,12.83,16l-4.88.52c-.44-5.42-4.15-10.05-8.82-11a9.77,9.77,0,0,0-8.44,2.39A12.89,12.89,0,0,0,331.92,628.11Z"/><path class="cls-5" d="M408.29,588.82a42.92,42.92,0,0,0-7.06,5c-9.45,8.23-15.49,20.54-16.57,33.78l4.88.52a44.54,44.54,0,0,1,14.65-29.82,39.64,39.64,0,0,1,4.1-3.09Z"/><path class="cls-5" d="M408.29,605.25a34.73,34.73,0,0,0-10.48,22.34l4.88.52a29.3,29.3,0,0,1,5.6-15Z"/><path class="cls-5" d="M85.93,583.81c-1.53-18.7-14.33-34.69-30.42-38-10.11-2.1-20.72.89-29.11,8.2a44.41,44.41,0,0,0-14.65,29.82l-4.89-.53C8,570,14,557.73,23.43,549.5s21.49-11.63,33-9.26c18.22,3.78,32.7,21.88,34.44,43Z"/><path class="cls-5" d="M72.79,583.81c-1-12.07-9.25-22.39-19.65-24.55a21.83,21.83,0,0,0-18.79,5.3,28.77,28.77,0,0,0-9.46,19.25L20,583.28a34.56,34.56,0,0,1,11.38-23.2A26.28,26.28,0,0,1,54,553.72c12.71,2.64,22.44,14.79,23.65,29.56Z"/><path class="cls-5" d="M38.08,583.81l-4.88-.53a18.73,18.73,0,0,1,6.17-12.59,14.25,14.25,0,0,1,12.28-3.45c6.9,1.43,12.17,8,12.83,16l-4.88.53c-.45-5.42-4.16-10.06-8.83-11a9.84,9.84,0,0,0-8.44,2.39A12.92,12.92,0,0,0,38.08,583.81Z"/><path class="cls-5" d="M169.89,583.81c-1.53-18.7-14.33-34.69-30.43-38-10.11-2.1-20.72.89-29.11,8.2A44.5,44.5,0,0,0,95.7,583.81l-4.88-.53c1.08-13.24,7.12-25.55,16.57-33.78s21.48-11.63,32.94-9.26c18.22,3.78,32.71,21.88,34.44,43Z"/><path class="cls-5" d="M156.74,583.81c-1-12.07-9.25-22.39-19.64-24.55a21.83,21.83,0,0,0-18.79,5.3,28.68,28.68,0,0,0-9.46,19.25l-4.89-.53a34.64,34.64,0,0,1,11.38-23.2A26.28,26.28,0,0,1,138,553.72c12.72,2.64,22.45,14.79,23.66,29.56Z"/><path class="cls-5" d="M122,583.81l-4.89-.53a18.82,18.82,0,0,1,6.17-12.59,14.26,14.26,0,0,1,12.28-3.45c6.9,1.43,12.18,8,12.84,16l-4.89.53c-.44-5.42-4.15-10.06-8.82-11a9.84,9.84,0,0,0-8.44,2.39A12.83,12.83,0,0,0,122,583.81Z"/><path class="cls-5" d="M253.84,583.81c-1.53-18.7-14.33-34.69-30.42-38-10.11-2.1-20.72.89-29.11,8.2a44.41,44.41,0,0,0-14.65,29.82l-4.89-.53c1.09-13.24,7.13-25.55,16.57-33.78s21.49-11.63,32.95-9.26c18.22,3.78,32.7,21.88,34.44,43Z"/><path class="cls-5" d="M240.7,583.81c-1-12.07-9.25-22.39-19.65-24.55a21.83,21.83,0,0,0-18.79,5.3,28.77,28.77,0,0,0-9.46,19.25l-4.88-.53a34.56,34.56,0,0,1,11.38-23.2,26.28,26.28,0,0,1,22.63-6.36c12.71,2.64,22.44,14.79,23.65,29.56Z"/><path class="cls-5" d="M206,583.81l-4.88-.53a18.73,18.73,0,0,1,6.17-12.59,14.25,14.25,0,0,1,12.28-3.45c6.9,1.43,12.17,8,12.83,16l-4.88.53c-.45-5.42-4.16-10.06-8.83-11a9.84,9.84,0,0,0-8.44,2.39A12.92,12.92,0,0,0,206,583.81Z"/><path class="cls-5" d="M337.8,583.81c-1.53-18.7-14.33-34.69-30.43-38-10.11-2.1-20.72.89-29.11,8.2a44.5,44.5,0,0,0-14.65,29.82l-4.88-.53c1.08-13.24,7.12-25.55,16.57-33.78s21.48-11.63,32.94-9.26c18.22,3.78,32.71,21.88,34.44,43Z"/><path class="cls-5" d="M324.65,583.81c-1-12.07-9.25-22.39-19.64-24.55a21.83,21.83,0,0,0-18.79,5.3,28.68,28.68,0,0,0-9.46,19.25l-4.89-.53a34.64,34.64,0,0,1,11.38-23.2,26.28,26.28,0,0,1,22.63-6.36c12.72,2.64,22.45,14.79,23.66,29.56Z"/><path class="cls-5" d="M290,583.81l-4.89-.53a18.82,18.82,0,0,1,6.17-12.59,14.26,14.26,0,0,1,12.28-3.45c6.9,1.43,12.18,8,12.84,16l-4.89.53c-.44-5.42-4.15-10.06-8.82-11a9.84,9.84,0,0,0-8.44,2.39A12.83,12.83,0,0,0,290,583.81Z"/><path class="cls-5" d="M408.29,548a38.59,38.59,0,0,0-16.09-7.72c-11.46-2.37-23.47,1-32.95,9.26S343.77,570,342.68,583.28l4.89.53A44.41,44.41,0,0,1,362.22,554c8.39-7.31,19-10.3,29.11-8.2a34.9,34.9,0,0,1,17,9.22Z"/><path class="cls-5" d="M408.29,567.28c-4.28-6.95-10.82-12-18.45-13.56a26.28,26.28,0,0,0-22.63,6.36,34.56,34.56,0,0,0-11.38,23.2l4.88.53a28.77,28.77,0,0,1,9.46-19.25,21.83,21.83,0,0,1,18.79-5.3c9.68,2,17.5,11.09,19.33,22.07Z"/><path class="cls-5" d="M373.9,583.81l-4.88-.53a18.73,18.73,0,0,1,6.17-12.59,14.25,14.25,0,0,1,12.28-3.45c6.9,1.43,12.17,8,12.83,16l-4.88.53c-.45-5.42-4.16-10.06-8.83-11a9.84,9.84,0,0,0-8.44,2.39A12.92,12.92,0,0,0,373.9,583.81Z"/><path class="cls-5" d="M14.4,500.56a35.58,35.58,0,0,0-8.28-.72v5.63a31.42,31.42,0,0,1,7.41.63c16.1,3.34,28.89,19.33,30.43,38l4.88-.52C47.11,522.43,32.62,504.34,14.4,500.56Z"/><path class="cls-5" d="M12,514a24.64,24.64,0,0,0-5.92-.5v5.64a20.51,20.51,0,0,1,5.05.4c10.39,2.15,18.65,12.47,19.64,24.54l4.88-.52C34.48,528.83,24.76,516.67,12,514Z"/><path class="cls-5" d="M9.67,527.56a13.28,13.28,0,0,0-3.55-.24V533a9,9,0,0,1,2.68.14c4.67,1,8.38,5.6,8.82,11l4.88-.52C21.85,535.58,16.57,529,9.67,527.56Z"/><path class="cls-5" d="M127.91,544.12c-1.53-18.69-14.33-34.68-30.43-38-10.11-2.1-20.72.89-29.11,8.2a44.54,44.54,0,0,0-14.65,29.82l-4.88-.52c1.08-13.24,7.12-25.55,16.57-33.78s21.49-11.63,32.94-9.26c18.23,3.78,32.71,21.87,34.44,43Z"/><path class="cls-5" d="M114.76,544.12c-1-12.07-9.25-22.39-19.64-24.54a21.83,21.83,0,0,0-18.79,5.3,28.74,28.74,0,0,0-9.46,19.24L62,543.6a34.61,34.61,0,0,1,11.37-23.21A26.28,26.28,0,0,1,96,514c12.72,2.63,22.45,14.79,23.66,29.56Z"/><path class="cls-5" d="M80.06,544.12l-4.88-.52A18.73,18.73,0,0,1,81.35,531a14.23,14.23,0,0,1,12.27-3.44c6.9,1.43,12.18,8,12.84,16l-4.89.52c-.44-5.42-4.15-10-8.82-11a9.78,9.78,0,0,0-8.44,2.39A12.92,12.92,0,0,0,80.06,544.12Z"/><path class="cls-5" d="M211.87,544.12c-1.54-18.69-14.33-34.68-30.43-38-10.11-2.1-20.72.89-29.11,8.2a44.5,44.5,0,0,0-14.65,29.82l-4.89-.52c1.09-13.24,7.13-25.55,16.57-33.78s21.49-11.63,32.95-9.26c18.22,3.78,32.71,21.87,34.44,43Z"/><path class="cls-5" d="M198.72,544.12c-1-12.07-9.25-22.39-19.64-24.54a21.82,21.82,0,0,0-18.79,5.3,28.66,28.66,0,0,0-9.46,19.24l-4.89-.52a34.62,34.62,0,0,1,11.38-23.21A26.28,26.28,0,0,1,180,514c12.72,2.63,22.44,14.79,23.65,29.56Z"/><path class="cls-5" d="M164,544.12l-4.88-.52A18.78,18.78,0,0,1,165.3,531a14.25,14.25,0,0,1,12.28-3.44c6.9,1.43,12.18,8,12.83,16l-4.88.52c-.44-5.42-4.15-10-8.82-11a9.77,9.77,0,0,0-8.44,2.39A12.89,12.89,0,0,0,164,544.12Z"/><path class="cls-5" d="M295.82,544.12c-1.53-18.69-14.33-34.68-30.43-38-10.11-2.1-20.72.89-29.11,8.2a44.54,44.54,0,0,0-14.65,29.82l-4.88-.52c1.08-13.24,7.12-25.55,16.57-33.78s21.49-11.63,32.94-9.26c18.23,3.78,32.71,21.87,34.44,43Z"/><path class="cls-5" d="M282.67,544.12c-1-12.07-9.25-22.39-19.64-24.54a21.83,21.83,0,0,0-18.79,5.3,28.74,28.74,0,0,0-9.46,19.24l-4.88-.52a34.58,34.58,0,0,1,11.38-23.21A26.25,26.25,0,0,1,263.9,514c12.72,2.63,22.45,14.79,23.66,29.56Z"/><path class="cls-5" d="M248,544.12l-4.88-.52a18.73,18.73,0,0,1,6.17-12.6,14.23,14.23,0,0,1,12.27-3.44c6.9,1.43,12.18,8,12.84,16l-4.88.52c-.45-5.42-4.16-10-8.83-11a9.78,9.78,0,0,0-8.44,2.39A12.92,12.92,0,0,0,248,544.12Z"/><path class="cls-5" d="M379.78,544.12c-1.54-18.69-14.33-34.68-30.43-38-10.11-2.1-20.72.89-29.11,8.2a44.5,44.5,0,0,0-14.65,29.82l-4.89-.52c1.09-13.24,7.13-25.55,16.57-33.78s21.49-11.63,33-9.26c18.22,3.78,32.71,21.87,34.44,43Z"/><path class="cls-5" d="M366.63,544.12c-1-12.07-9.25-22.39-19.64-24.54a21.82,21.82,0,0,0-18.79,5.3,28.66,28.66,0,0,0-9.46,19.24l-4.89-.52a34.62,34.62,0,0,1,11.38-23.21A26.28,26.28,0,0,1,347.86,514c12.72,2.63,22.44,14.79,23.65,29.56Z"/><path class="cls-5" d="M331.92,544.12,327,543.6a18.78,18.78,0,0,1,6.17-12.6,14.25,14.25,0,0,1,12.28-3.44c6.9,1.43,12.18,8,12.83,16l-4.88.52c-.44-5.42-4.15-10-8.82-11a9.77,9.77,0,0,0-8.44,2.39A12.89,12.89,0,0,0,331.92,544.12Z"/><path class="cls-5" d="M408.29,504.83a42.92,42.92,0,0,0-7.06,5c-9.45,8.23-15.49,20.54-16.57,33.78l4.88.52a44.54,44.54,0,0,1,14.65-29.82,39.75,39.75,0,0,1,4.1-3.1Z"/><path class="cls-5" d="M408.29,521.26a34.73,34.73,0,0,0-10.48,22.34l4.88.52a29.3,29.3,0,0,1,5.6-15Z"/><path class="cls-5" d="M85.93,499.82c-1.53-18.7-14.33-34.69-30.42-38-10.11-2.09-20.72.9-29.11,8.21a44.41,44.41,0,0,0-14.65,29.82l-4.89-.53C8,486.05,14,473.74,23.43,465.51s21.49-11.63,33-9.26c18.22,3.78,32.7,21.88,34.44,43Z"/><path class="cls-5" d="M72.79,499.82c-1-12.07-9.25-22.4-19.65-24.55a21.83,21.83,0,0,0-18.79,5.3,28.74,28.74,0,0,0-9.46,19.25L20,499.29a34.56,34.56,0,0,1,11.38-23.2A26.28,26.28,0,0,1,54,469.73c12.71,2.64,22.44,14.79,23.65,29.56Z"/><path class="cls-5" d="M38.08,499.82l-4.88-.53a18.78,18.78,0,0,1,6.17-12.6,14.28,14.28,0,0,1,12.28-3.44c6.9,1.43,12.17,8,12.83,16l-4.88.53c-.45-5.42-4.16-10.06-8.83-11a9.84,9.84,0,0,0-8.44,2.39A12.92,12.92,0,0,0,38.08,499.82Z"/><path class="cls-5" d="M169.89,499.82c-1.53-18.7-14.33-34.69-30.43-38-10.11-2.09-20.72.9-29.11,8.21A44.5,44.5,0,0,0,95.7,499.82l-4.88-.53c1.08-13.24,7.12-25.55,16.57-33.78s21.48-11.63,32.94-9.26c18.22,3.78,32.71,21.88,34.44,43Z"/><path class="cls-5" d="M156.74,499.82c-1-12.07-9.25-22.4-19.64-24.55a21.83,21.83,0,0,0-18.79,5.3,28.66,28.66,0,0,0-9.46,19.25l-4.89-.53a34.64,34.64,0,0,1,11.38-23.2A26.28,26.28,0,0,1,138,469.73c12.72,2.64,22.45,14.79,23.66,29.56Z"/><path class="cls-5" d="M122,499.82l-4.89-.53a18.86,18.86,0,0,1,6.17-12.6,14.29,14.29,0,0,1,12.28-3.44c6.9,1.43,12.18,8,12.84,16l-4.89.53c-.44-5.42-4.15-10.06-8.82-11a9.84,9.84,0,0,0-8.44,2.39A12.83,12.83,0,0,0,122,499.82Z"/><path class="cls-5" d="M253.84,499.82c-1.53-18.7-14.33-34.69-30.42-38-10.11-2.09-20.72.9-29.11,8.21a44.41,44.41,0,0,0-14.65,29.82l-4.89-.53c1.09-13.24,7.13-25.55,16.57-33.78s21.49-11.63,32.95-9.26c18.22,3.78,32.7,21.88,34.44,43Z"/><path class="cls-5" d="M240.7,499.82c-1-12.07-9.25-22.4-19.65-24.55a21.83,21.83,0,0,0-18.79,5.3,28.74,28.74,0,0,0-9.46,19.25l-4.88-.53a34.56,34.56,0,0,1,11.38-23.2,26.28,26.28,0,0,1,22.63-6.36c12.71,2.64,22.44,14.79,23.65,29.56Z"/><path class="cls-5" d="M206,499.82l-4.88-.53a18.78,18.78,0,0,1,6.17-12.6,14.28,14.28,0,0,1,12.28-3.44c6.9,1.43,12.17,8,12.83,16l-4.88.53c-.45-5.42-4.16-10.06-8.83-11a9.84,9.84,0,0,0-8.44,2.39A12.92,12.92,0,0,0,206,499.82Z"/><path class="cls-5" d="M337.8,499.82c-1.53-18.7-14.33-34.69-30.43-38-10.11-2.09-20.72.9-29.11,8.21a44.5,44.5,0,0,0-14.65,29.82l-4.88-.53c1.08-13.24,7.12-25.55,16.57-33.78s21.48-11.63,32.94-9.26c18.22,3.78,32.71,21.88,34.44,43Z"/><path class="cls-5" d="M324.65,499.82c-1-12.07-9.25-22.4-19.64-24.55a21.83,21.83,0,0,0-18.79,5.3,28.66,28.66,0,0,0-9.46,19.25l-4.89-.53a34.64,34.64,0,0,1,11.38-23.2,26.28,26.28,0,0,1,22.63-6.36c12.72,2.64,22.45,14.79,23.66,29.56Z"/><path class="cls-5" d="M290,499.82l-4.89-.53a18.86,18.86,0,0,1,6.17-12.6,14.29,14.29,0,0,1,12.28-3.44c6.9,1.43,12.18,8,12.84,16l-4.89.53c-.44-5.42-4.15-10.06-8.82-11a9.84,9.84,0,0,0-8.44,2.39A12.83,12.83,0,0,0,290,499.82Z"/><path class="cls-5" d="M408.29,464a38.59,38.59,0,0,0-16.09-7.72c-11.46-2.37-23.47,1-32.95,9.26s-15.48,20.54-16.57,33.78l4.89.53A44.41,44.41,0,0,1,362.22,470c8.39-7.31,19-10.3,29.11-8.21a35,35,0,0,1,17,9.23Z"/><path class="cls-5" d="M408.29,483.29c-4.28-7-10.82-12-18.45-13.56a26.28,26.28,0,0,0-22.63,6.36,34.56,34.56,0,0,0-11.38,23.2l4.88.53a28.74,28.74,0,0,1,9.46-19.25,21.83,21.83,0,0,1,18.79-5.3c9.68,2,17.5,11.09,19.33,22.07Z"/><path class="cls-5" d="M373.9,499.82l-4.88-.53a18.78,18.78,0,0,1,6.17-12.6,14.28,14.28,0,0,1,12.28-3.44c6.9,1.43,12.17,8,12.83,16l-4.88.53c-.45-5.42-4.16-10.06-8.83-11a9.84,9.84,0,0,0-8.44,2.39A12.92,12.92,0,0,0,373.9,499.82Z"/><path class="cls-5" d="M14.4,416.57a35.58,35.58,0,0,0-8.28-.72v5.63a31.42,31.42,0,0,1,7.41.63c16.1,3.33,28.89,19.33,30.43,38l4.88-.53C47.11,438.44,32.62,420.34,14.4,416.57Z"/><path class="cls-5" d="M12,430.05a24.64,24.64,0,0,0-5.92-.5v5.64a20.51,20.51,0,0,1,5.05.4c10.39,2.15,18.65,12.47,19.64,24.54l4.88-.53C34.48,444.84,24.76,432.68,12,430.05Z"/><path class="cls-5" d="M9.67,443.57a13.28,13.28,0,0,0-3.55-.24V449a9,9,0,0,1,2.68.14c4.67,1,8.38,5.6,8.82,11l4.88-.53C21.85,451.59,16.57,445,9.67,443.57Z"/><path class="cls-5" d="M127.91,460.13c-1.53-18.69-14.33-34.69-30.43-38-10.11-2.1-20.72.89-29.11,8.2a44.54,44.54,0,0,0-14.65,29.82l-4.88-.53c1.08-13.23,7.12-25.55,16.57-33.77s21.49-11.64,32.94-9.26c18.23,3.77,32.71,21.87,34.44,43Z"/><path class="cls-5" d="M114.76,460.13c-1-12.07-9.25-22.39-19.64-24.54a21.8,21.8,0,0,0-18.79,5.3,28.72,28.72,0,0,0-9.46,19.24L62,459.6a34.61,34.61,0,0,1,11.37-23.2A26.24,26.24,0,0,1,96,430.05c12.72,2.63,22.45,14.79,23.66,29.55Z"/><path class="cls-5" d="M80.06,460.13l-4.88-.53A18.73,18.73,0,0,1,81.35,447a14.23,14.23,0,0,1,12.27-3.44c6.9,1.43,12.18,8,12.84,16l-4.89.53c-.44-5.42-4.15-10.06-8.82-11a9.81,9.81,0,0,0-8.44,2.38A12.94,12.94,0,0,0,80.06,460.13Z"/><path class="cls-5" d="M211.87,460.13c-1.54-18.69-14.33-34.69-30.43-38-10.11-2.1-20.72.89-29.11,8.2a44.5,44.5,0,0,0-14.65,29.82l-4.89-.53c1.09-13.23,7.13-25.55,16.57-33.77s21.49-11.64,32.95-9.26c18.22,3.77,32.71,21.87,34.44,43Z"/><path class="cls-5" d="M198.72,460.13c-1-12.07-9.25-22.39-19.64-24.54a21.78,21.78,0,0,0-18.79,5.3,28.63,28.63,0,0,0-9.46,19.24l-4.89-.53a34.62,34.62,0,0,1,11.38-23.2A26.24,26.24,0,0,1,180,430.05c12.72,2.63,22.44,14.79,23.65,29.55Z"/><path class="cls-5" d="M164,460.13l-4.88-.53A18.77,18.77,0,0,1,165.3,447a14.25,14.25,0,0,1,12.28-3.44c6.9,1.43,12.18,8,12.83,16l-4.88.53c-.44-5.42-4.15-10.06-8.82-11a9.79,9.79,0,0,0-8.44,2.38A12.91,12.91,0,0,0,164,460.13Z"/><path class="cls-5" d="M295.82,460.13c-1.53-18.69-14.33-34.69-30.43-38-10.11-2.1-20.72.89-29.11,8.2a44.54,44.54,0,0,0-14.65,29.82l-4.88-.53c1.08-13.23,7.12-25.55,16.57-33.77s21.49-11.64,32.94-9.26c18.23,3.77,32.71,21.87,34.44,43Z"/><path class="cls-5" d="M282.67,460.13c-1-12.07-9.25-22.39-19.64-24.54a21.8,21.8,0,0,0-18.79,5.3,28.72,28.72,0,0,0-9.46,19.24l-4.88-.53a34.58,34.58,0,0,1,11.38-23.2,26.22,26.22,0,0,1,22.62-6.35c12.72,2.63,22.45,14.79,23.66,29.55Z"/><path class="cls-5" d="M248,460.13l-4.88-.53A18.73,18.73,0,0,1,249.26,447a14.23,14.23,0,0,1,12.27-3.44c6.9,1.43,12.18,8,12.84,16l-4.88.53c-.45-5.42-4.16-10.06-8.83-11a9.81,9.81,0,0,0-8.44,2.38A12.94,12.94,0,0,0,248,460.13Z"/><path class="cls-5" d="M379.78,460.13c-1.54-18.69-14.33-34.69-30.43-38-10.11-2.1-20.72.89-29.11,8.2a44.5,44.5,0,0,0-14.65,29.82l-4.89-.53c1.09-13.23,7.13-25.55,16.57-33.77s21.49-11.64,33-9.26c18.22,3.77,32.71,21.87,34.44,43Z"/><path class="cls-5" d="M366.63,460.13c-1-12.07-9.25-22.39-19.64-24.54a21.78,21.78,0,0,0-18.79,5.3,28.63,28.63,0,0,0-9.46,19.24l-4.89-.53a34.62,34.62,0,0,1,11.38-23.2,26.24,26.24,0,0,1,22.63-6.35c12.72,2.63,22.44,14.79,23.65,29.55Z"/><path class="cls-5" d="M331.92,460.13,327,459.6A18.77,18.77,0,0,1,333.21,447a14.25,14.25,0,0,1,12.28-3.44c6.9,1.43,12.18,8,12.83,16l-4.88.53c-.44-5.42-4.15-10.06-8.82-11a9.79,9.79,0,0,0-8.44,2.38A12.91,12.91,0,0,0,331.92,460.13Z"/><path class="cls-5" d="M408.29,420.84a42.92,42.92,0,0,0-7.06,5c-9.45,8.22-15.49,20.54-16.57,33.77l4.88.53a44.54,44.54,0,0,1,14.65-29.82,39.75,39.75,0,0,1,4.1-3.1Z"/><path class="cls-5" d="M408.29,437.27a34.73,34.73,0,0,0-10.48,22.33l4.88.53a29.3,29.3,0,0,1,5.6-15Z"/><path class="cls-5" d="M85.93,415.83c-1.53-18.7-14.33-34.69-30.42-38-10.11-2.09-20.72.9-29.11,8.2a44.46,44.46,0,0,0-14.65,29.83l-4.89-.53C8,402.06,14,389.75,23.43,381.52s21.49-11.63,33-9.26c18.22,3.78,32.7,21.88,34.44,43Z"/><path class="cls-5" d="M72.79,415.83c-1-12.07-9.25-22.4-19.65-24.55a21.83,21.83,0,0,0-18.79,5.3,28.74,28.74,0,0,0-9.46,19.25L20,415.3a34.58,34.58,0,0,1,11.38-23.21A26.28,26.28,0,0,1,54,385.74c12.71,2.63,22.44,14.79,23.65,29.56Z"/><path class="cls-5" d="M38.08,415.83l-4.88-.53a18.78,18.78,0,0,1,6.17-12.6,14.25,14.25,0,0,1,12.28-3.44c6.9,1.43,12.17,8,12.83,16l-4.88.53c-.45-5.43-4.16-10.06-8.83-11a9.78,9.78,0,0,0-8.44,2.39A12.92,12.92,0,0,0,38.08,415.83Z"/><path class="cls-5" d="M169.89,415.83c-1.53-18.7-14.33-34.69-30.43-38-10.11-2.09-20.72.9-29.11,8.2A44.54,44.54,0,0,0,95.7,415.83l-4.88-.53c1.08-13.24,7.12-25.55,16.57-33.78s21.48-11.63,32.94-9.26c18.22,3.78,32.71,21.88,34.44,43Z"/><path class="cls-5" d="M156.74,415.83c-1-12.07-9.25-22.4-19.64-24.55a21.83,21.83,0,0,0-18.79,5.3,28.66,28.66,0,0,0-9.46,19.25L104,415.3a34.67,34.67,0,0,1,11.38-23.21A26.28,26.28,0,0,1,138,385.74c12.72,2.63,22.45,14.79,23.66,29.56Z"/><path class="cls-5" d="M122,415.83l-4.89-.53a18.86,18.86,0,0,1,6.17-12.6,14.26,14.26,0,0,1,12.28-3.44c6.9,1.43,12.18,8,12.84,16l-4.89.53c-.44-5.43-4.15-10.06-8.82-11a9.77,9.77,0,0,0-8.44,2.39A12.83,12.83,0,0,0,122,415.83Z"/><path class="cls-5" d="M253.84,415.83c-1.53-18.7-14.33-34.69-30.42-38-10.11-2.09-20.72.9-29.11,8.2a44.46,44.46,0,0,0-14.65,29.83l-4.89-.53c1.09-13.24,7.13-25.55,16.57-33.78s21.49-11.63,32.95-9.26c18.22,3.78,32.7,21.88,34.44,43Z"/><path class="cls-5" d="M240.7,415.83c-1-12.07-9.25-22.4-19.65-24.55a21.83,21.83,0,0,0-18.79,5.3,28.74,28.74,0,0,0-9.46,19.25l-4.88-.53a34.58,34.58,0,0,1,11.38-23.21,26.28,26.28,0,0,1,22.63-6.35c12.71,2.63,22.44,14.79,23.65,29.56Z"/><path class="cls-5" d="M206,415.83l-4.88-.53a18.78,18.78,0,0,1,6.17-12.6,14.25,14.25,0,0,1,12.28-3.44c6.9,1.43,12.17,8,12.83,16l-4.88.53c-.45-5.43-4.16-10.06-8.83-11a9.78,9.78,0,0,0-8.44,2.39A12.92,12.92,0,0,0,206,415.83Z"/><path class="cls-5" d="M337.8,415.83c-1.53-18.7-14.33-34.69-30.43-38-10.11-2.09-20.72.9-29.11,8.2a44.54,44.54,0,0,0-14.65,29.83l-4.88-.53c1.08-13.24,7.12-25.55,16.57-33.78s21.48-11.63,32.94-9.26c18.22,3.78,32.71,21.88,34.44,43Z"/><path class="cls-5" d="M324.65,415.83c-1-12.07-9.25-22.4-19.64-24.55a21.83,21.83,0,0,0-18.79,5.3,28.66,28.66,0,0,0-9.46,19.25l-4.89-.53a34.67,34.67,0,0,1,11.38-23.21,26.28,26.28,0,0,1,22.63-6.35c12.72,2.63,22.45,14.79,23.66,29.56Z"/><path class="cls-5" d="M290,415.83l-4.89-.53a18.86,18.86,0,0,1,6.17-12.6,14.26,14.26,0,0,1,12.28-3.44c6.9,1.43,12.18,8,12.84,16l-4.89.53c-.44-5.43-4.15-10.06-8.82-11a9.77,9.77,0,0,0-8.44,2.39A12.83,12.83,0,0,0,290,415.83Z"/><path class="cls-5" d="M408.29,380a38.59,38.59,0,0,0-16.09-7.72c-11.46-2.37-23.47,1-32.95,9.26s-15.48,20.54-16.57,33.78l4.89.53A44.46,44.46,0,0,1,362.22,386c8.39-7.3,19-10.29,29.11-8.2a34.92,34.92,0,0,1,17,9.23Z"/><path class="cls-5" d="M408.29,399.3c-4.28-6.95-10.82-12-18.45-13.56a26.28,26.28,0,0,0-22.63,6.35,34.58,34.58,0,0,0-11.38,23.21l4.88.53a28.74,28.74,0,0,1,9.46-19.25,21.83,21.83,0,0,1,18.79-5.3c9.68,2,17.5,11.09,19.33,22.07Z"/><path class="cls-5" d="M373.9,415.83,369,415.3a18.78,18.78,0,0,1,6.17-12.6,14.25,14.25,0,0,1,12.28-3.44c6.9,1.43,12.17,8,12.83,16l-4.88.53c-.45-5.43-4.16-10.06-8.83-11a9.78,9.78,0,0,0-8.44,2.39A12.92,12.92,0,0,0,373.9,415.83Z"/><path class="cls-5" d="M14.4,332.58a35.58,35.58,0,0,0-8.28-.72v5.62a31.43,31.43,0,0,1,7.41.64c16.1,3.33,28.89,19.32,30.43,38l4.88-.53C47.11,354.45,32.62,336.35,14.4,332.58Z"/><path class="cls-5" d="M12,346.05a25.15,25.15,0,0,0-5.92-.49v5.64a20.5,20.5,0,0,1,5.05.39c10.39,2.16,18.65,12.48,19.64,24.55l4.88-.53C34.48,360.84,24.76,348.69,12,346.05Z"/><path class="cls-5" d="M9.67,359.57a13.27,13.27,0,0,0-3.55-.23V365a9.29,9.29,0,0,1,2.68.13c4.67,1,8.38,5.61,8.82,11l4.88-.53C21.85,367.6,16.57,361,9.67,359.57Z"/><path class="cls-5" d="M127.91,376.14c-1.53-18.7-14.33-34.69-30.43-38-10.11-2.1-20.72.89-29.11,8.2a44.54,44.54,0,0,0-14.65,29.82l-4.88-.53c1.08-13.24,7.12-25.55,16.57-33.77s21.49-11.64,32.94-9.26c18.23,3.77,32.71,21.87,34.44,43Z"/><path class="cls-5" d="M114.76,376.14c-1-12.07-9.25-22.39-19.64-24.55a21.83,21.83,0,0,0-18.79,5.3,28.77,28.77,0,0,0-9.46,19.25L62,375.61a34.61,34.61,0,0,1,11.37-23.2A26.28,26.28,0,0,1,96,346.05c12.72,2.64,22.45,14.79,23.66,29.56Z"/><path class="cls-5" d="M80.06,376.14l-4.88-.53A18.73,18.73,0,0,1,81.35,363a14.23,14.23,0,0,1,12.27-3.45c6.9,1.44,12.18,8,12.84,16l-4.89.53c-.44-5.42-4.15-10.06-8.82-11a9.81,9.81,0,0,0-8.44,2.38A12.94,12.94,0,0,0,80.06,376.14Z"/><path class="cls-5" d="M211.87,376.14c-1.54-18.7-14.33-34.69-30.43-38-10.11-2.1-20.72.89-29.11,8.2a44.5,44.5,0,0,0-14.65,29.82l-4.89-.53c1.09-13.24,7.13-25.55,16.57-33.77s21.49-11.64,32.95-9.26c18.22,3.77,32.71,21.87,34.44,43Z"/><path class="cls-5" d="M198.72,376.14c-1-12.07-9.25-22.39-19.64-24.55a21.82,21.82,0,0,0-18.79,5.3,28.68,28.68,0,0,0-9.46,19.25l-4.89-.53a34.62,34.62,0,0,1,11.38-23.2A26.28,26.28,0,0,1,180,346.05c12.72,2.64,22.44,14.79,23.65,29.56Z"/><path class="cls-5" d="M164,376.14l-4.88-.53A18.77,18.77,0,0,1,165.3,363a14.25,14.25,0,0,1,12.28-3.45c6.9,1.44,12.18,8,12.83,16l-4.88.53c-.44-5.42-4.15-10.06-8.82-11a9.79,9.79,0,0,0-8.44,2.38A12.91,12.91,0,0,0,164,376.14Z"/><path class="cls-5" d="M295.82,376.14c-1.53-18.7-14.33-34.69-30.43-38-10.11-2.1-20.72.89-29.11,8.2a44.54,44.54,0,0,0-14.65,29.82l-4.88-.53c1.08-13.24,7.12-25.55,16.57-33.77s21.49-11.64,32.94-9.26c18.23,3.77,32.71,21.87,34.44,43Z"/><path class="cls-5" d="M282.67,376.14c-1-12.07-9.25-22.39-19.64-24.55a21.83,21.83,0,0,0-18.79,5.3,28.77,28.77,0,0,0-9.46,19.25l-4.88-.53a34.58,34.58,0,0,1,11.38-23.2,26.25,26.25,0,0,1,22.62-6.36c12.72,2.64,22.45,14.79,23.66,29.56Z"/><path class="cls-5" d="M248,376.14l-4.88-.53A18.73,18.73,0,0,1,249.26,363a14.23,14.23,0,0,1,12.27-3.45c6.9,1.44,12.18,8,12.84,16l-4.88.53c-.45-5.42-4.16-10.06-8.83-11a9.81,9.81,0,0,0-8.44,2.38A12.94,12.94,0,0,0,248,376.14Z"/><path class="cls-5" d="M379.78,376.14c-1.54-18.7-14.33-34.69-30.43-38-10.11-2.1-20.72.89-29.11,8.2a44.5,44.5,0,0,0-14.65,29.82l-4.89-.53c1.09-13.24,7.13-25.55,16.57-33.77s21.49-11.64,33-9.26c18.22,3.77,32.71,21.87,34.44,43Z"/><path class="cls-5" d="M366.63,376.14c-1-12.07-9.25-22.39-19.64-24.55a21.82,21.82,0,0,0-18.79,5.3,28.68,28.68,0,0,0-9.46,19.25l-4.89-.53a34.62,34.62,0,0,1,11.38-23.2,26.28,26.28,0,0,1,22.63-6.36c12.72,2.64,22.44,14.79,23.65,29.56Z"/><path class="cls-5" d="M331.92,376.14l-4.88-.53A18.77,18.77,0,0,1,333.21,363a14.25,14.25,0,0,1,12.28-3.45c6.9,1.44,12.18,8,12.83,16l-4.88.53c-.44-5.42-4.15-10.06-8.82-11a9.79,9.79,0,0,0-8.44,2.38A12.91,12.91,0,0,0,331.92,376.14Z"/><path class="cls-5" d="M408.29,336.85a42.92,42.92,0,0,0-7.06,5c-9.45,8.22-15.49,20.53-16.57,33.77l4.88.53a44.54,44.54,0,0,1,14.65-29.82,39.75,39.75,0,0,1,4.1-3.1Z"/><path class="cls-5" d="M408.29,353.27a34.73,34.73,0,0,0-10.48,22.34l4.88.53a29.37,29.37,0,0,1,5.6-15Z"/><path class="cls-5" d="M85.93,331.83c-1.53-18.69-14.33-34.68-30.42-38-10.11-2.1-20.72.9-29.11,8.2a44.45,44.45,0,0,0-14.65,29.82l-4.89-.52C8,318.07,14,305.76,23.43,297.53s21.49-11.63,33-9.26c18.22,3.78,32.7,21.88,34.44,43Z"/><path class="cls-5" d="M72.79,331.83c-1-12.07-9.25-22.39-19.65-24.54a21.83,21.83,0,0,0-18.79,5.3,28.74,28.74,0,0,0-9.46,19.24L20,331.31A34.58,34.58,0,0,1,31.39,308.1,26.28,26.28,0,0,1,54,301.75c12.71,2.63,22.44,14.79,23.65,29.56Z"/><path class="cls-5" d="M38.08,331.83l-4.88-.52a18.76,18.76,0,0,1,6.17-12.6,14.25,14.25,0,0,1,12.28-3.44c6.9,1.43,12.17,8,12.83,16l-4.88.52c-.45-5.42-4.16-10.05-8.83-11a9.78,9.78,0,0,0-8.44,2.39A12.92,12.92,0,0,0,38.08,331.83Z"/><path class="cls-5" d="M169.89,331.83c-1.53-18.69-14.33-34.68-30.43-38-10.11-2.1-20.72.9-29.11,8.2A44.54,44.54,0,0,0,95.7,331.83l-4.88-.52c1.08-13.24,7.12-25.55,16.57-33.78s21.48-11.63,32.94-9.26c18.22,3.78,32.71,21.88,34.44,43Z"/><path class="cls-5" d="M156.74,331.83c-1-12.07-9.25-22.39-19.64-24.54a21.83,21.83,0,0,0-18.79,5.3,28.66,28.66,0,0,0-9.46,19.24l-4.89-.52a34.67,34.67,0,0,1,11.38-23.21A26.28,26.28,0,0,1,138,301.75c12.72,2.63,22.45,14.79,23.66,29.56Z"/><path class="cls-5" d="M122,331.83l-4.89-.52a18.84,18.84,0,0,1,6.17-12.6,14.26,14.26,0,0,1,12.28-3.44c6.9,1.43,12.18,8,12.84,16l-4.89.52c-.44-5.42-4.15-10.05-8.82-11a9.77,9.77,0,0,0-8.44,2.39A12.83,12.83,0,0,0,122,331.83Z"/><path class="cls-5" d="M253.84,331.83c-1.53-18.69-14.33-34.68-30.42-38-10.11-2.1-20.72.9-29.11,8.2a44.45,44.45,0,0,0-14.65,29.82l-4.89-.52c1.09-13.24,7.13-25.55,16.57-33.78s21.49-11.63,32.95-9.26c18.22,3.78,32.7,21.88,34.44,43Z"/><path class="cls-5" d="M240.7,331.83c-1-12.07-9.25-22.39-19.65-24.54a21.83,21.83,0,0,0-18.79,5.3,28.74,28.74,0,0,0-9.46,19.24l-4.88-.52A34.58,34.58,0,0,1,199.3,308.1a26.28,26.28,0,0,1,22.63-6.35c12.71,2.63,22.44,14.79,23.65,29.56Z"/><path class="cls-5" d="M206,331.83l-4.88-.52a18.76,18.76,0,0,1,6.17-12.6,14.25,14.25,0,0,1,12.28-3.44c6.9,1.43,12.17,8,12.83,16l-4.88.52c-.45-5.42-4.16-10.05-8.83-11a9.78,9.78,0,0,0-8.44,2.39A12.92,12.92,0,0,0,206,331.83Z"/><path class="cls-5" d="M337.8,331.83c-1.53-18.69-14.33-34.68-30.43-38-10.11-2.1-20.72.9-29.11,8.2a44.54,44.54,0,0,0-14.65,29.82l-4.88-.52c1.08-13.24,7.12-25.55,16.57-33.78s21.48-11.63,32.94-9.26c18.22,3.78,32.71,21.88,34.44,43Z"/><path class="cls-5" d="M324.65,331.83c-1-12.07-9.25-22.39-19.64-24.54a21.83,21.83,0,0,0-18.79,5.3,28.66,28.66,0,0,0-9.46,19.24l-4.89-.52a34.67,34.67,0,0,1,11.38-23.21,26.28,26.28,0,0,1,22.63-6.35c12.72,2.63,22.45,14.79,23.66,29.56Z"/><path class="cls-5" d="M290,331.83l-4.89-.52a18.84,18.84,0,0,1,6.17-12.6,14.26,14.26,0,0,1,12.28-3.44c6.9,1.43,12.18,8,12.84,16l-4.89.52c-.44-5.42-4.15-10.05-8.82-11a9.77,9.77,0,0,0-8.44,2.39A12.83,12.83,0,0,0,290,331.83Z"/><path class="cls-5" d="M408.29,296a38.57,38.57,0,0,0-16.09-7.71c-11.46-2.37-23.47,1-32.95,9.26s-15.48,20.54-16.57,33.78l4.89.52A44.45,44.45,0,0,1,362.22,302c8.39-7.3,19-10.3,29.11-8.2a34.84,34.84,0,0,1,17,9.23Z"/><path class="cls-5" d="M408.29,315.3c-4.28-6.94-10.82-12-18.45-13.55a26.28,26.28,0,0,0-22.63,6.35,34.58,34.58,0,0,0-11.38,23.21l4.88.52a28.74,28.74,0,0,1,9.46-19.24,21.83,21.83,0,0,1,18.79-5.3c9.68,2,17.5,11.09,19.33,22.07Z"/><path class="cls-5" d="M373.9,331.83l-4.88-.52a18.76,18.76,0,0,1,6.17-12.6,14.25,14.25,0,0,1,12.28-3.44c6.9,1.43,12.17,8,12.83,16l-4.88.52c-.45-5.42-4.16-10.05-8.83-11a9.78,9.78,0,0,0-8.44,2.39A12.92,12.92,0,0,0,373.9,331.83Z"/><path class="cls-5" d="M14.4,248.59a35.58,35.58,0,0,0-8.28-.72v5.62a31.43,31.43,0,0,1,7.41.64c16.1,3.33,28.89,19.32,30.43,38l4.88-.53C47.11,270.46,32.62,252.36,14.4,248.59Z"/><path class="cls-5" d="M12,262.06a25.15,25.15,0,0,0-5.92-.49v5.64a20.5,20.5,0,0,1,5.05.39c10.39,2.16,18.65,12.48,19.64,24.55l4.88-.53C34.48,276.85,24.76,264.7,12,262.06Z"/><path class="cls-5" d="M9.67,275.58a13.27,13.27,0,0,0-3.55-.23V281a9.29,9.29,0,0,1,2.68.13c4.67,1,8.38,5.61,8.82,11l4.88-.53C21.85,283.61,16.57,277,9.67,275.58Z"/><path class="cls-5" d="M127.91,292.15c-1.53-18.7-14.33-34.69-30.43-38-10.11-2.1-20.72.89-29.11,8.2a44.52,44.52,0,0,0-14.65,29.82l-4.88-.53c1.08-13.24,7.12-25.55,16.57-33.78s21.49-11.63,32.94-9.25c18.23,3.77,32.71,21.87,34.44,43Z"/><path class="cls-5" d="M114.76,292.15c-1-12.07-9.25-22.39-19.64-24.55a21.83,21.83,0,0,0-18.79,5.3,28.77,28.77,0,0,0-9.46,19.25L62,291.62a34.59,34.59,0,0,1,11.37-23.2A26.28,26.28,0,0,1,96,262.06c12.72,2.64,22.45,14.79,23.66,29.56Z"/><path class="cls-5" d="M80.06,292.15l-4.88-.53A18.73,18.73,0,0,1,81.35,279a14.23,14.23,0,0,1,12.27-3.45c6.9,1.43,12.18,8,12.84,16l-4.89.53c-.44-5.42-4.15-10.06-8.82-11a9.84,9.84,0,0,0-8.44,2.39A12.92,12.92,0,0,0,80.06,292.15Z"/><path class="cls-5" d="M211.87,292.15c-1.54-18.7-14.33-34.69-30.43-38-10.11-2.1-20.72.89-29.11,8.2a44.47,44.47,0,0,0-14.65,29.82l-4.89-.53c1.09-13.24,7.13-25.55,16.57-33.78s21.49-11.63,32.95-9.25c18.22,3.77,32.71,21.87,34.44,43Z"/><path class="cls-5" d="M198.72,292.15c-1-12.07-9.25-22.39-19.64-24.55a21.82,21.82,0,0,0-18.79,5.3,28.68,28.68,0,0,0-9.46,19.25l-4.89-.53a34.6,34.6,0,0,1,11.38-23.2A26.28,26.28,0,0,1,180,262.06c12.72,2.64,22.44,14.79,23.65,29.56Z"/><path class="cls-5" d="M164,292.15l-4.88-.53A18.77,18.77,0,0,1,165.3,279a14.25,14.25,0,0,1,12.28-3.45c6.9,1.43,12.18,8,12.83,16l-4.88.53c-.44-5.42-4.15-10.06-8.82-11a9.83,9.83,0,0,0-8.44,2.39A12.89,12.89,0,0,0,164,292.15Z"/><path class="cls-5" d="M295.82,292.15c-1.53-18.7-14.33-34.69-30.43-38-10.11-2.1-20.72.89-29.11,8.2a44.52,44.52,0,0,0-14.65,29.82l-4.88-.53c1.08-13.24,7.12-25.55,16.57-33.78s21.49-11.63,32.94-9.25c18.23,3.77,32.71,21.87,34.44,43Z"/><path class="cls-5" d="M282.67,292.15c-1-12.07-9.25-22.39-19.64-24.55a21.83,21.83,0,0,0-18.79,5.3,28.77,28.77,0,0,0-9.46,19.25l-4.88-.53a34.56,34.56,0,0,1,11.38-23.2,26.25,26.25,0,0,1,22.62-6.36c12.72,2.64,22.45,14.79,23.66,29.56Z"/><path class="cls-5" d="M248,292.15l-4.88-.53A18.73,18.73,0,0,1,249.26,279a14.23,14.23,0,0,1,12.27-3.45c6.9,1.43,12.18,8,12.84,16l-4.88.53c-.45-5.42-4.16-10.06-8.83-11a9.84,9.84,0,0,0-8.44,2.39A12.92,12.92,0,0,0,248,292.15Z"/><path class="cls-5" d="M379.78,292.15c-1.54-18.7-14.33-34.69-30.43-38-10.11-2.1-20.72.89-29.11,8.2a44.47,44.47,0,0,0-14.65,29.82l-4.89-.53c1.09-13.24,7.13-25.55,16.57-33.78s21.49-11.63,33-9.25c18.22,3.77,32.71,21.87,34.44,43Z"/><path class="cls-5" d="M366.63,292.15c-1-12.07-9.25-22.39-19.64-24.55a21.82,21.82,0,0,0-18.79,5.3,28.68,28.68,0,0,0-9.46,19.25l-4.89-.53a34.6,34.6,0,0,1,11.38-23.2,26.28,26.28,0,0,1,22.63-6.36c12.72,2.64,22.44,14.79,23.65,29.56Z"/><path class="cls-5" d="M331.92,292.15l-4.88-.53A18.77,18.77,0,0,1,333.21,279a14.25,14.25,0,0,1,12.28-3.45c6.9,1.43,12.18,8,12.83,16l-4.88.53c-.44-5.42-4.15-10.06-8.82-11a9.83,9.83,0,0,0-8.44,2.39A12.89,12.89,0,0,0,331.92,292.15Z"/><path class="cls-5" d="M408.29,252.86a42.85,42.85,0,0,0-7.06,5c-9.45,8.23-15.49,20.54-16.57,33.78l4.88.53a44.52,44.52,0,0,1,14.65-29.82,38.37,38.37,0,0,1,4.1-3.1Z"/><path class="cls-5" d="M408.29,269.28a34.73,34.73,0,0,0-10.48,22.34l4.88.53a29.34,29.34,0,0,1,5.6-15Z"/><path class="cls-5" d="M85.93,247.84c-1.53-18.69-14.33-34.68-30.42-38-10.11-2.1-20.72.89-29.11,8.2a44.45,44.45,0,0,0-14.65,29.82l-4.89-.52C8,234.08,14,221.76,23.43,213.54s21.49-11.64,33-9.26c18.22,3.78,32.7,21.87,34.44,43Z"/><path class="cls-5" d="M72.79,247.84c-1-12.07-9.25-22.39-19.65-24.54a21.8,21.8,0,0,0-18.79,5.3,28.74,28.74,0,0,0-9.46,19.24L20,247.32a34.58,34.58,0,0,1,11.38-23.21A26.28,26.28,0,0,1,54,217.76c12.71,2.63,22.44,14.79,23.65,29.56Z"/><path class="cls-5" d="M38.08,247.84l-4.88-.52a18.73,18.73,0,0,1,6.17-12.6,14.25,14.25,0,0,1,12.28-3.44c6.9,1.43,12.17,8,12.83,16l-4.88.52c-.45-5.42-4.16-10.06-8.83-11a9.81,9.81,0,0,0-8.44,2.38A13,13,0,0,0,38.08,247.84Z"/><path class="cls-5" d="M169.89,247.84c-1.53-18.69-14.33-34.68-30.43-38-10.11-2.1-20.72.89-29.11,8.2A44.54,44.54,0,0,0,95.7,247.84l-4.88-.52c1.08-13.24,7.12-25.56,16.57-33.78s21.48-11.64,32.94-9.26c18.22,3.78,32.71,21.87,34.44,43Z"/><path class="cls-5" d="M156.74,247.84c-1-12.07-9.25-22.39-19.64-24.54a21.8,21.8,0,0,0-18.79,5.3,28.66,28.66,0,0,0-9.46,19.24l-4.89-.52a34.67,34.67,0,0,1,11.38-23.21A26.28,26.28,0,0,1,138,217.76c12.72,2.63,22.45,14.79,23.66,29.56Z"/><path class="cls-5" d="M122,247.84l-4.89-.52a18.82,18.82,0,0,1,6.17-12.6,14.26,14.26,0,0,1,12.28-3.44c6.9,1.43,12.18,8,12.84,16l-4.89.52c-.44-5.42-4.15-10.06-8.82-11a9.8,9.8,0,0,0-8.44,2.38A12.88,12.88,0,0,0,122,247.84Z"/><path class="cls-5" d="M253.84,247.84c-1.53-18.69-14.33-34.68-30.42-38-10.11-2.1-20.72.89-29.11,8.2a44.45,44.45,0,0,0-14.65,29.82l-4.89-.52c1.09-13.24,7.13-25.56,16.57-33.78s21.49-11.64,32.95-9.26c18.22,3.78,32.7,21.87,34.44,43Z"/><path class="cls-5" d="M240.7,247.84c-1-12.07-9.25-22.39-19.65-24.54a21.8,21.8,0,0,0-18.79,5.3,28.74,28.74,0,0,0-9.46,19.24l-4.88-.52a34.58,34.58,0,0,1,11.38-23.21,26.28,26.28,0,0,1,22.63-6.35c12.71,2.63,22.44,14.79,23.65,29.56Z"/><path class="cls-5" d="M206,247.84l-4.88-.52a18.73,18.73,0,0,1,6.17-12.6,14.25,14.25,0,0,1,12.28-3.44c6.9,1.43,12.17,8,12.83,16l-4.88.52c-.45-5.42-4.16-10.06-8.83-11a9.81,9.81,0,0,0-8.44,2.38A13,13,0,0,0,206,247.84Z"/><path class="cls-5" d="M337.8,247.84c-1.53-18.69-14.33-34.68-30.43-38-10.11-2.1-20.72.89-29.11,8.2a44.54,44.54,0,0,0-14.65,29.82l-4.88-.52c1.08-13.24,7.12-25.56,16.57-33.78s21.48-11.64,32.94-9.26c18.22,3.78,32.71,21.87,34.44,43Z"/><path class="cls-5" d="M324.65,247.84c-1-12.07-9.25-22.39-19.64-24.54a21.8,21.8,0,0,0-18.79,5.3,28.66,28.66,0,0,0-9.46,19.24l-4.89-.52a34.67,34.67,0,0,1,11.38-23.21,26.28,26.28,0,0,1,22.63-6.35c12.72,2.63,22.45,14.79,23.66,29.56Z"/><path class="cls-5" d="M290,247.84l-4.89-.52a18.82,18.82,0,0,1,6.17-12.6,14.26,14.26,0,0,1,12.28-3.44c6.9,1.43,12.18,8,12.84,16l-4.89.52c-.44-5.42-4.15-10.06-8.82-11a9.8,9.8,0,0,0-8.44,2.38A12.88,12.88,0,0,0,290,247.84Z"/><path class="cls-5" d="M408.29,212a38.57,38.57,0,0,0-16.09-7.71c-11.46-2.38-23.47,1-32.95,9.26s-15.48,20.54-16.57,33.78l4.89.52A44.45,44.45,0,0,1,362.22,218c8.39-7.31,19-10.3,29.11-8.2a34.84,34.84,0,0,1,17,9.23Z"/><path class="cls-5" d="M408.29,231.31c-4.28-6.94-10.82-12-18.45-13.55a26.28,26.28,0,0,0-22.63,6.35,34.58,34.58,0,0,0-11.38,23.21l4.88.52a28.74,28.74,0,0,1,9.46-19.24A21.8,21.8,0,0,1,389,223.3c9.68,2,17.5,11.09,19.33,22.07Z"/><path class="cls-5" d="M373.9,247.84l-4.88-.52a18.73,18.73,0,0,1,6.17-12.6,14.25,14.25,0,0,1,12.28-3.44c6.9,1.43,12.17,8,12.83,16l-4.88.52c-.45-5.42-4.16-10.06-8.83-11a9.81,9.81,0,0,0-8.44,2.38A13,13,0,0,0,373.9,247.84Z"/><path class="cls-5" d="M14.4,164.59a36.7,36.7,0,0,0-8.28-.72v5.63a32,32,0,0,1,7.41.63c16.1,3.34,28.89,19.33,30.43,38l4.88-.53C47.11,186.47,32.62,168.37,14.4,164.59Z"/><path class="cls-5" d="M12,178.07a24.14,24.14,0,0,0-5.92-.49v5.64a20,20,0,0,1,5.05.39c10.39,2.16,18.65,12.48,19.64,24.55l4.88-.53C34.48,192.86,24.76,180.71,12,178.07Z"/><path class="cls-5" d="M9.67,191.59a13.27,13.27,0,0,0-3.55-.23V197a9.29,9.29,0,0,1,2.68.13c4.67,1,8.38,5.61,8.82,11l4.88-.53C21.85,199.62,16.57,193,9.67,191.59Z"/><path class="cls-5" d="M127.91,208.16c-1.53-18.7-14.33-34.69-30.43-38-10.11-2.09-20.72.9-29.11,8.21a44.5,44.5,0,0,0-14.65,29.82l-4.88-.53c1.08-13.24,7.12-25.55,16.57-33.78s21.49-11.63,32.94-9.26c18.23,3.78,32.71,21.88,34.44,43Z"/><path class="cls-5" d="M114.76,208.16c-1-12.07-9.25-22.39-19.64-24.55a21.83,21.83,0,0,0-18.79,5.3,28.77,28.77,0,0,0-9.46,19.25L62,207.63a34.59,34.59,0,0,1,11.37-23.2A26.28,26.28,0,0,1,96,178.07c12.72,2.64,22.45,14.79,23.66,29.56Z"/><path class="cls-5" d="M80.06,208.16l-4.88-.53A18.78,18.78,0,0,1,81.35,195a14.26,14.26,0,0,1,12.27-3.44c6.9,1.43,12.18,8,12.84,16l-4.89.53c-.44-5.42-4.15-10.06-8.82-11a9.84,9.84,0,0,0-8.44,2.39A12.92,12.92,0,0,0,80.06,208.16Z"/><path class="cls-5" d="M211.87,208.16c-1.54-18.7-14.33-34.69-30.43-38-10.11-2.09-20.72.9-29.11,8.21a44.45,44.45,0,0,0-14.65,29.82l-4.89-.53c1.09-13.24,7.13-25.55,16.57-33.78s21.49-11.63,32.95-9.26c18.22,3.78,32.71,21.88,34.44,43Z"/><path class="cls-5" d="M198.72,208.16c-1-12.07-9.25-22.39-19.64-24.55a21.82,21.82,0,0,0-18.79,5.3,28.68,28.68,0,0,0-9.46,19.25l-4.89-.53a34.6,34.6,0,0,1,11.38-23.2A26.28,26.28,0,0,1,180,178.07c12.72,2.64,22.44,14.79,23.65,29.56Z"/><path class="cls-5" d="M164,208.16l-4.88-.53A18.82,18.82,0,0,1,165.3,195a14.28,14.28,0,0,1,12.28-3.44c6.9,1.43,12.18,8,12.83,16l-4.88.53c-.44-5.42-4.15-10.06-8.82-11a9.83,9.83,0,0,0-8.44,2.39A12.89,12.89,0,0,0,164,208.16Z"/><path class="cls-5" d="M295.82,208.16c-1.53-18.7-14.33-34.69-30.43-38-10.11-2.09-20.72.9-29.11,8.21a44.5,44.5,0,0,0-14.65,29.82l-4.88-.53c1.08-13.24,7.12-25.55,16.57-33.78s21.49-11.63,32.94-9.26c18.23,3.78,32.71,21.88,34.44,43Z"/><path class="cls-5" d="M282.67,208.16c-1-12.07-9.25-22.39-19.64-24.55a21.83,21.83,0,0,0-18.79,5.3,28.77,28.77,0,0,0-9.46,19.25l-4.88-.53a34.56,34.56,0,0,1,11.38-23.2,26.25,26.25,0,0,1,22.62-6.36c12.72,2.64,22.45,14.79,23.66,29.56Z"/><path class="cls-5" d="M248,208.16l-4.88-.53a18.78,18.78,0,0,1,6.17-12.6,14.26,14.26,0,0,1,12.27-3.44c6.9,1.43,12.18,8,12.84,16l-4.88.53c-.45-5.42-4.16-10.06-8.83-11a9.84,9.84,0,0,0-8.44,2.39A12.92,12.92,0,0,0,248,208.16Z"/><path class="cls-5" d="M379.78,208.16c-1.54-18.7-14.33-34.69-30.43-38-10.11-2.09-20.72.9-29.11,8.21a44.45,44.45,0,0,0-14.65,29.82l-4.89-.53c1.09-13.24,7.13-25.55,16.57-33.78s21.49-11.63,33-9.26c18.22,3.78,32.71,21.88,34.44,43Z"/><path class="cls-5" d="M366.63,208.16c-1-12.07-9.25-22.39-19.64-24.55a21.82,21.82,0,0,0-18.79,5.3,28.68,28.68,0,0,0-9.46,19.25l-4.89-.53a34.6,34.6,0,0,1,11.38-23.2,26.28,26.28,0,0,1,22.63-6.36c12.72,2.64,22.44,14.79,23.65,29.56Z"/><path class="cls-5" d="M331.92,208.16l-4.88-.53a18.82,18.82,0,0,1,6.17-12.6,14.28,14.28,0,0,1,12.28-3.44c6.9,1.43,12.18,8,12.83,16l-4.88.53c-.44-5.42-4.15-10.06-8.82-11a9.83,9.83,0,0,0-8.44,2.39A12.89,12.89,0,0,0,331.92,208.16Z"/><path class="cls-5" d="M408.29,168.86a42.92,42.92,0,0,0-7.06,5c-9.45,8.23-15.49,20.54-16.57,33.78l4.88.53a44.5,44.5,0,0,1,14.65-29.82,38.37,38.37,0,0,1,4.1-3.1Z"/><path class="cls-5" d="M408.29,185.29a34.73,34.73,0,0,0-10.48,22.34l4.88.53a29.34,29.34,0,0,1,5.6-15Z"/><path class="cls-5" d="M85.93,163.85c-1.53-18.7-14.33-34.69-30.42-38-10.11-2.1-20.72.89-29.11,8.2a44.45,44.45,0,0,0-14.65,29.82l-4.89-.53C8,150.08,14,137.77,23.43,129.55s21.49-11.64,33-9.26c18.22,3.77,32.7,21.87,34.44,43Z"/><path class="cls-5" d="M72.79,163.85c-1-12.07-9.25-22.39-19.65-24.55a21.83,21.83,0,0,0-18.79,5.3,28.77,28.77,0,0,0-9.46,19.25L20,163.32a34.58,34.58,0,0,1,11.38-23.2A26.28,26.28,0,0,1,54,133.76c12.71,2.64,22.44,14.8,23.65,29.56Z"/><path class="cls-5" d="M38.08,163.85l-4.88-.53a18.73,18.73,0,0,1,6.17-12.59,14.25,14.25,0,0,1,12.28-3.44c6.9,1.43,12.17,8,12.83,16l-4.88.53c-.45-5.42-4.16-10.06-8.83-11a9.81,9.81,0,0,0-8.44,2.38A12.94,12.94,0,0,0,38.08,163.85Z"/><path class="cls-5" d="M169.89,163.85c-1.53-18.7-14.33-34.69-30.43-38-10.11-2.1-20.72.89-29.11,8.2A44.54,44.54,0,0,0,95.7,163.85l-4.88-.53c1.08-13.24,7.12-25.55,16.57-33.77s21.48-11.64,32.94-9.26c18.22,3.77,32.71,21.87,34.44,43Z"/><path class="cls-5" d="M156.74,163.85c-1-12.07-9.25-22.39-19.64-24.55a21.83,21.83,0,0,0-18.79,5.3,28.68,28.68,0,0,0-9.46,19.25l-4.89-.53a34.66,34.66,0,0,1,11.38-23.2A26.28,26.28,0,0,1,138,133.76c12.72,2.64,22.45,14.8,23.66,29.56Z"/><path class="cls-5" d="M122,163.85l-4.89-.53a18.82,18.82,0,0,1,6.17-12.59,14.26,14.26,0,0,1,12.28-3.44c6.9,1.43,12.18,8,12.84,16l-4.89.53c-.44-5.42-4.15-10.06-8.82-11a9.8,9.8,0,0,0-8.44,2.38A12.86,12.86,0,0,0,122,163.85Z"/><path class="cls-5" d="M253.84,163.85c-1.53-18.7-14.33-34.69-30.42-38-10.11-2.1-20.72.89-29.11,8.2a44.45,44.45,0,0,0-14.65,29.82l-4.89-.53c1.09-13.24,7.13-25.55,16.57-33.77s21.49-11.64,32.95-9.26c18.22,3.77,32.7,21.87,34.44,43Z"/><path class="cls-5" d="M240.7,163.85c-1-12.07-9.25-22.39-19.65-24.55a21.83,21.83,0,0,0-18.79,5.3,28.77,28.77,0,0,0-9.46,19.25l-4.88-.53a34.58,34.58,0,0,1,11.38-23.2,26.28,26.28,0,0,1,22.63-6.36c12.71,2.64,22.44,14.8,23.65,29.56Z"/><path class="cls-5" d="M206,163.85l-4.88-.53a18.73,18.73,0,0,1,6.17-12.59,14.25,14.25,0,0,1,12.28-3.44c6.9,1.43,12.17,8,12.83,16l-4.88.53c-.45-5.42-4.16-10.06-8.83-11a9.81,9.81,0,0,0-8.44,2.38A12.94,12.94,0,0,0,206,163.85Z"/><path class="cls-5" d="M337.8,163.85c-1.53-18.7-14.33-34.69-30.43-38-10.11-2.1-20.72.89-29.11,8.2a44.54,44.54,0,0,0-14.65,29.82l-4.88-.53c1.08-13.24,7.12-25.55,16.57-33.77s21.48-11.64,32.94-9.26c18.22,3.77,32.71,21.87,34.44,43Z"/><path class="cls-5" d="M324.65,163.85c-1-12.07-9.25-22.39-19.64-24.55a21.83,21.83,0,0,0-18.79,5.3,28.68,28.68,0,0,0-9.46,19.25l-4.89-.53a34.66,34.66,0,0,1,11.38-23.2,26.28,26.28,0,0,1,22.63-6.36c12.72,2.64,22.45,14.8,23.66,29.56Z"/><path class="cls-5" d="M290,163.85l-4.89-.53a18.82,18.82,0,0,1,6.17-12.59,14.26,14.26,0,0,1,12.28-3.44c6.9,1.43,12.18,8,12.84,16l-4.89.53c-.44-5.42-4.15-10.06-8.82-11a9.8,9.8,0,0,0-8.44,2.38A12.86,12.86,0,0,0,290,163.85Z"/><path class="cls-5" d="M408.29,128a38.57,38.57,0,0,0-16.09-7.71c-11.46-2.38-23.47,1-32.95,9.26s-15.48,20.53-16.57,33.77l4.89.53A44.45,44.45,0,0,1,362.22,134c8.39-7.31,19-10.3,29.11-8.2a34.84,34.84,0,0,1,17,9.23Z"/><path class="cls-5" d="M408.29,147.32c-4.28-6.95-10.82-12-18.45-13.56a26.28,26.28,0,0,0-22.63,6.36,34.58,34.58,0,0,0-11.38,23.2l4.88.53a28.77,28.77,0,0,1,9.46-19.25A21.83,21.83,0,0,1,389,139.3c9.68,2,17.5,11.1,19.33,22.08Z"/><path class="cls-5" d="M373.9,163.85l-4.88-.53a18.73,18.73,0,0,1,6.17-12.59,14.25,14.25,0,0,1,12.28-3.44c6.9,1.43,12.17,8,12.83,16l-4.88.53c-.45-5.42-4.16-10.06-8.83-11a9.81,9.81,0,0,0-8.44,2.38A12.94,12.94,0,0,0,373.9,163.85Z"/><path class="cls-5" d="M14.4,80.6a35.58,35.58,0,0,0-8.28-.72v5.63a31.42,31.42,0,0,1,7.41.63c16.1,3.34,28.89,19.33,30.43,38l4.88-.53C47.11,102.48,32.62,84.38,14.4,80.6Z"/><path class="cls-5" d="M12,94.08a24.14,24.14,0,0,0-5.92-.49v5.64a20,20,0,0,1,5.05.39c10.39,2.15,18.65,12.48,19.64,24.55l4.88-.53C34.48,108.87,24.76,96.72,12,94.08Z"/><path class="cls-5" d="M9.67,107.6a13.7,13.7,0,0,0-3.55-.24V113a9,9,0,0,1,2.68.13c4.67,1,8.38,5.6,8.82,11l4.88-.53C21.85,115.63,16.57,109,9.67,107.6Z"/><path class="cls-5" d="M127.91,124.17c-1.53-18.7-14.33-34.69-30.43-38-10.11-2.09-20.72.9-29.11,8.21a44.5,44.5,0,0,0-14.65,29.82l-4.88-.53C49.92,110.4,56,98.09,65.41,89.86S86.9,78.23,98.35,80.6c18.23,3.78,32.71,21.88,34.44,43Z"/><path class="cls-5" d="M114.76,124.17c-1-12.07-9.25-22.4-19.64-24.55a21.83,21.83,0,0,0-18.79,5.3,28.74,28.74,0,0,0-9.46,19.25L62,123.64a34.57,34.57,0,0,1,11.37-23.2A26.25,26.25,0,0,1,96,94.08c12.72,2.64,22.45,14.79,23.66,29.56Z"/><path class="cls-5" d="M80.06,124.17l-4.88-.53A18.78,18.78,0,0,1,81.35,111a14.23,14.23,0,0,1,12.27-3.44c6.9,1.43,12.18,8,12.84,16l-4.89.53c-.44-5.43-4.15-10.06-8.82-11a9.78,9.78,0,0,0-8.44,2.39A12.92,12.92,0,0,0,80.06,124.17Z"/><path class="cls-5" d="M211.87,124.17c-1.54-18.7-14.33-34.69-30.43-38-10.11-2.09-20.72.9-29.11,8.21a44.45,44.45,0,0,0-14.65,29.82l-4.89-.53c1.09-13.24,7.13-25.55,16.57-33.78s21.49-11.63,32.95-9.26c18.22,3.78,32.71,21.88,34.44,43Z"/><path class="cls-5" d="M198.72,124.17c-1-12.07-9.25-22.4-19.64-24.55a21.82,21.82,0,0,0-18.79,5.3,28.66,28.66,0,0,0-9.46,19.25l-4.89-.53a34.58,34.58,0,0,1,11.38-23.2A26.25,26.25,0,0,1,180,94.08c12.72,2.64,22.44,14.79,23.65,29.56Z"/><path class="cls-5" d="M164,124.17l-4.88-.53A18.82,18.82,0,0,1,165.3,111a14.25,14.25,0,0,1,12.28-3.44c6.9,1.43,12.18,8,12.83,16l-4.88.53c-.44-5.43-4.15-10.06-8.82-11a9.77,9.77,0,0,0-8.44,2.39A12.89,12.89,0,0,0,164,124.17Z"/><path class="cls-5" d="M295.82,124.17c-1.53-18.7-14.33-34.69-30.43-38-10.11-2.09-20.72.9-29.11,8.21a44.5,44.5,0,0,0-14.65,29.82l-4.88-.53c1.08-13.24,7.12-25.55,16.57-33.78s21.49-11.63,32.94-9.26c18.23,3.78,32.71,21.88,34.44,43Z"/><path class="cls-5" d="M282.67,124.17c-1-12.07-9.25-22.4-19.64-24.55a21.83,21.83,0,0,0-18.79,5.3,28.74,28.74,0,0,0-9.46,19.25l-4.88-.53a34.54,34.54,0,0,1,11.38-23.2,26.22,26.22,0,0,1,22.62-6.36c12.72,2.64,22.45,14.79,23.66,29.56Z"/><path class="cls-5" d="M248,124.17l-4.88-.53a18.78,18.78,0,0,1,6.17-12.6,14.23,14.23,0,0,1,12.27-3.44c6.9,1.43,12.18,8,12.84,16l-4.88.53c-.45-5.43-4.16-10.06-8.83-11a9.78,9.78,0,0,0-8.44,2.39A12.92,12.92,0,0,0,248,124.17Z"/><path class="cls-5" d="M379.78,124.17c-1.54-18.7-14.33-34.69-30.43-38-10.11-2.09-20.72.9-29.11,8.21a44.45,44.45,0,0,0-14.65,29.82l-4.89-.53c1.09-13.24,7.13-25.55,16.57-33.78s21.49-11.63,33-9.26c18.22,3.78,32.71,21.88,34.44,43Z"/><path class="cls-5" d="M366.63,124.17c-1-12.07-9.25-22.4-19.64-24.55a21.82,21.82,0,0,0-18.79,5.3,28.66,28.66,0,0,0-9.46,19.25l-4.89-.53a34.58,34.58,0,0,1,11.38-23.2,26.25,26.25,0,0,1,22.63-6.36c12.72,2.64,22.44,14.79,23.65,29.56Z"/><path class="cls-5" d="M331.92,124.17l-4.88-.53a18.82,18.82,0,0,1,6.17-12.6,14.25,14.25,0,0,1,12.28-3.44c6.9,1.43,12.18,8,12.83,16l-4.88.53c-.44-5.43-4.15-10.06-8.82-11a9.77,9.77,0,0,0-8.44,2.39A12.89,12.89,0,0,0,331.92,124.17Z"/><path class="cls-5" d="M408.29,84.87a42.92,42.92,0,0,0-7.06,5c-9.45,8.23-15.49,20.54-16.57,33.78l4.88.53a44.5,44.5,0,0,1,14.65-29.82,38.37,38.37,0,0,1,4.1-3.1Z"/><path class="cls-5" d="M408.29,101.3a34.73,34.73,0,0,0-10.48,22.34l4.88.53a29.31,29.31,0,0,1,5.6-15Z"/><path class="cls-5" d="M85.93,79.86c-1.53-18.7-14.33-34.69-30.42-38-10.11-2.1-20.72.89-29.11,8.2A44.45,44.45,0,0,0,11.75,79.86l-4.89-.53C8,66.09,14,53.78,23.43,45.55s21.49-11.63,33-9.25c18.22,3.77,32.7,21.87,34.44,43Z"/><path class="cls-5" d="M72.79,79.86c-1-12.07-9.25-22.39-19.65-24.55a21.83,21.83,0,0,0-18.79,5.3,28.77,28.77,0,0,0-9.46,19.25L20,79.33a34.58,34.58,0,0,1,11.38-23.2A26.28,26.28,0,0,1,54,49.77c12.71,2.64,22.44,14.79,23.65,29.56Z"/><path class="cls-5" d="M38.08,79.86l-4.88-.53a18.73,18.73,0,0,1,6.17-12.59,14.25,14.25,0,0,1,12.28-3.45c6.9,1.43,12.17,8,12.83,16l-4.88.53c-.45-5.42-4.16-10.06-8.83-11a9.84,9.84,0,0,0-8.44,2.39A12.92,12.92,0,0,0,38.08,79.86Z"/><path class="cls-5" d="M169.89,79.86c-1.53-18.7-14.33-34.69-30.43-38-10.11-2.1-20.72.89-29.11,8.2A44.54,44.54,0,0,0,95.7,79.86l-4.88-.53c1.08-13.24,7.12-25.55,16.57-33.78s21.48-11.63,32.94-9.25c18.22,3.77,32.71,21.87,34.44,43Z"/><path class="cls-5" d="M156.74,79.86c-1-12.07-9.25-22.39-19.64-24.55a21.83,21.83,0,0,0-18.79,5.3,28.68,28.68,0,0,0-9.46,19.25L104,79.33a34.66,34.66,0,0,1,11.38-23.2A26.28,26.28,0,0,1,138,49.77c12.72,2.64,22.45,14.79,23.66,29.56Z"/><path class="cls-5" d="M122,79.86l-4.89-.53a18.82,18.82,0,0,1,6.17-12.59,14.26,14.26,0,0,1,12.28-3.45c6.9,1.43,12.18,8,12.84,16l-4.89.53c-.44-5.42-4.15-10.06-8.82-11a9.84,9.84,0,0,0-8.44,2.39A12.83,12.83,0,0,0,122,79.86Z"/><path class="cls-5" d="M253.84,79.86c-1.53-18.7-14.33-34.69-30.42-38-10.11-2.1-20.72.89-29.11,8.2a44.45,44.45,0,0,0-14.65,29.82l-4.89-.53c1.09-13.24,7.13-25.55,16.57-33.78s21.49-11.63,32.95-9.25c18.22,3.77,32.7,21.87,34.44,43Z"/><path class="cls-5" d="M240.7,79.86c-1-12.07-9.25-22.39-19.65-24.55a21.83,21.83,0,0,0-18.79,5.3,28.77,28.77,0,0,0-9.46,19.25l-4.88-.53a34.58,34.58,0,0,1,11.38-23.2,26.28,26.28,0,0,1,22.63-6.36c12.71,2.64,22.44,14.79,23.65,29.56Z"/><path class="cls-5" d="M206,79.86l-4.88-.53a18.73,18.73,0,0,1,6.17-12.59,14.25,14.25,0,0,1,12.28-3.45c6.9,1.43,12.17,8,12.83,16l-4.88.53c-.45-5.42-4.16-10.06-8.83-11a9.84,9.84,0,0,0-8.44,2.39A12.92,12.92,0,0,0,206,79.86Z"/><path class="cls-5" d="M337.8,79.86c-1.53-18.7-14.33-34.69-30.43-38-10.11-2.1-20.72.89-29.11,8.2a44.54,44.54,0,0,0-14.65,29.82l-4.88-.53c1.08-13.24,7.12-25.55,16.57-33.78s21.48-11.63,32.94-9.25c18.22,3.77,32.71,21.87,34.44,43Z"/><path class="cls-5" d="M324.65,79.86c-1-12.07-9.25-22.39-19.64-24.55a21.83,21.83,0,0,0-18.79,5.3,28.68,28.68,0,0,0-9.46,19.25l-4.89-.53a34.66,34.66,0,0,1,11.38-23.2,26.28,26.28,0,0,1,22.63-6.36c12.72,2.64,22.45,14.79,23.66,29.56Z"/><path class="cls-5" d="M290,79.86l-4.89-.53a18.82,18.82,0,0,1,6.17-12.59,14.26,14.26,0,0,1,12.28-3.45c6.9,1.43,12.18,8,12.84,16l-4.89.53c-.44-5.42-4.15-10.06-8.82-11a9.84,9.84,0,0,0-8.44,2.39A12.83,12.83,0,0,0,290,79.86Z"/><path class="cls-5" d="M408.29,44A38.45,38.45,0,0,0,392.2,36.3c-11.46-2.38-23.47,1-32.95,9.25s-15.48,20.54-16.57,33.78l4.89.53A44.45,44.45,0,0,1,362.22,50c8.39-7.31,19-10.3,29.11-8.2a34.9,34.9,0,0,1,17,9.22Z"/><path class="cls-5" d="M408.29,63.33c-4.28-6.95-10.82-12-18.45-13.56a26.28,26.28,0,0,0-22.63,6.36,34.58,34.58,0,0,0-11.38,23.2l4.88.53a28.77,28.77,0,0,1,9.46-19.25A21.83,21.83,0,0,1,389,55.31c9.68,2,17.5,11.09,19.33,22.07Z"/><path class="cls-5" d="M373.9,79.86,369,79.33a18.73,18.73,0,0,1,6.17-12.59,14.25,14.25,0,0,1,12.28-3.45c6.9,1.43,12.17,8,12.83,16l-4.88.53c-.45-5.42-4.16-10.06-8.83-11a9.84,9.84,0,0,0-8.44,2.39A12.92,12.92,0,0,0,373.9,79.86Z"/><path class="cls-5" d="M14.4-3.39a35.58,35.58,0,0,0-8.28-.72V1.52a31.42,31.42,0,0,1,7.41.63c16.1,3.34,28.89,19.33,30.43,38l4.88-.52C47.11,18.49,32.62.39,14.4-3.39Z"/><path class="cls-5" d="M12,10.09A24.14,24.14,0,0,0,6.12,9.6v5.63a20.51,20.51,0,0,1,5.05.4c10.39,2.15,18.65,12.48,19.64,24.54l4.88-.52C34.48,24.88,24.76,12.72,12,10.09Z"/><path class="cls-5" d="M9.67,23.61a13.7,13.7,0,0,0-3.55-.24V29a9.29,9.29,0,0,1,2.68.14c4.67,1,8.38,5.6,8.82,11l4.88-.52C21.85,31.63,16.57,25,9.67,23.61Z"/><path class="cls-5" d="M127.91,40.17c-1.53-18.69-14.33-34.68-30.43-38-10.11-2.1-20.72.9-29.11,8.2A44.54,44.54,0,0,0,53.72,40.17l-4.88-.52C49.92,26.41,56,14.1,65.41,5.87S86.9-5.76,98.35-3.39c18.23,3.78,32.71,21.88,34.44,43Z"/><path class="cls-5" d="M114.76,40.17c-1-12.06-9.25-22.39-19.64-24.54a21.83,21.83,0,0,0-18.79,5.3,28.74,28.74,0,0,0-9.46,19.24L62,39.65A34.61,34.61,0,0,1,73.36,16.44,26.28,26.28,0,0,1,96,10.09c12.72,2.63,22.45,14.79,23.66,29.56Z"/><path class="cls-5" d="M80.06,40.17l-4.88-.52a18.78,18.78,0,0,1,6.17-12.6,14.23,14.23,0,0,1,12.27-3.44c6.9,1.43,12.18,8,12.84,16l-4.89.52c-.44-5.42-4.15-10-8.82-11a9.78,9.78,0,0,0-8.44,2.39A12.92,12.92,0,0,0,80.06,40.17Z"/><path class="cls-5" d="M211.87,40.17c-1.54-18.69-14.33-34.68-30.43-38-10.11-2.1-20.72.9-29.11,8.2a44.5,44.5,0,0,0-14.65,29.82l-4.89-.52c1.09-13.24,7.13-25.55,16.57-33.78s21.49-11.63,32.95-9.26c18.22,3.78,32.71,21.88,34.44,43Z"/><path class="cls-5" d="M198.72,40.17c-1-12.06-9.25-22.39-19.64-24.54a21.82,21.82,0,0,0-18.79,5.3,28.66,28.66,0,0,0-9.46,19.24l-4.89-.52a34.62,34.62,0,0,1,11.38-23.21A26.28,26.28,0,0,1,180,10.09c12.72,2.63,22.44,14.79,23.65,29.56Z"/><path class="cls-5" d="M164,40.17l-4.88-.52a18.82,18.82,0,0,1,6.17-12.6,14.25,14.25,0,0,1,12.28-3.44c6.9,1.43,12.18,8,12.83,16l-4.88.52c-.44-5.42-4.15-10-8.82-11a9.77,9.77,0,0,0-8.44,2.39A12.89,12.89,0,0,0,164,40.17Z"/><path class="cls-5" d="M295.82,40.17c-1.53-18.69-14.33-34.68-30.43-38-10.11-2.1-20.72.9-29.11,8.2a44.54,44.54,0,0,0-14.65,29.82l-4.88-.52c1.08-13.24,7.12-25.55,16.57-33.78s21.49-11.63,32.94-9.26C284.49.39,299,18.49,300.7,39.65Z"/><path class="cls-5" d="M282.67,40.17c-1-12.06-9.25-22.39-19.64-24.54a21.83,21.83,0,0,0-18.79,5.3,28.74,28.74,0,0,0-9.46,19.24l-4.88-.52a34.58,34.58,0,0,1,11.38-23.21,26.25,26.25,0,0,1,22.62-6.35c12.72,2.63,22.45,14.79,23.66,29.56Z"/><path class="cls-5" d="M248,40.17l-4.88-.52a18.78,18.78,0,0,1,6.17-12.6,14.23,14.23,0,0,1,12.27-3.44c6.9,1.43,12.18,8,12.84,16l-4.88.52c-.45-5.42-4.16-10-8.83-11a9.78,9.78,0,0,0-8.44,2.39A12.92,12.92,0,0,0,248,40.17Z"/><path class="cls-5" d="M379.78,40.17c-1.54-18.69-14.33-34.68-30.43-38-10.11-2.1-20.72.9-29.11,8.2a44.5,44.5,0,0,0-14.65,29.82l-4.89-.52c1.09-13.24,7.13-25.55,16.57-33.78s21.49-11.63,33-9.26c18.22,3.78,32.71,21.88,34.44,43Z"/><path class="cls-5" d="M366.63,40.17c-1-12.06-9.25-22.39-19.64-24.54a21.82,21.82,0,0,0-18.79,5.3,28.66,28.66,0,0,0-9.46,19.24l-4.89-.52a34.62,34.62,0,0,1,11.38-23.21,26.28,26.28,0,0,1,22.63-6.35c12.72,2.63,22.44,14.79,23.65,29.56Z"/><path class="cls-5" d="M331.92,40.17,327,39.65a18.82,18.82,0,0,1,6.17-12.6,14.25,14.25,0,0,1,12.28-3.44c6.9,1.43,12.18,8,12.83,16l-4.88.52c-.44-5.42-4.15-10-8.82-11a9.77,9.77,0,0,0-8.44,2.39A12.89,12.89,0,0,0,331.92,40.17Z"/><path class="cls-5" d="M408.29.88a42.92,42.92,0,0,0-7.06,5c-9.45,8.23-15.49,20.54-16.57,33.78l4.88.52a44.54,44.54,0,0,1,14.65-29.82,39.64,39.64,0,0,1,4.1-3.09Z"/><path class="cls-5" d="M408.29,17.31a34.73,34.73,0,0,0-10.48,22.34l4.88.52a29.3,29.3,0,0,1,5.6-15Z"/></g></g><path class="cls-6" d="M201,347.76l.13,0-.07-.09Z"/><path class="cls-7" d="M390.14,34.82V10.41h-20V22.73h-5.33V10.41H349.29V35.05H335.52V29.89h10.21V10.41H332.86V26.83H320V11.24H81.09V26.83H68.22V10.41H55.34V29.89H65.55v5.16H51.79V10.41H36.25V22.73H30.92V10.41h-20V34.82h9.77v6.25H10.94V63.29H29.15V79.94H25.59V65.71H10.94V83h12V95.82h-12V551.56h12v12.82h-12v17.29H25.59V567.44h3.56v16.65H10.94v22.22h9.77v6.25H10.94V637h20V624.65h5.33V637H51.79V612.33H65.55v5.16H55.34V637H68.22V620.55H81.09v15.59h0v1.41H318.79v-.39h0v-15.6h12.88V638h12.87V618.51H334.33v-5.16H348.1V638h15.54V625.67H369V638h20V613.58h-9.76v-6.25h9.76V585.11h-18.2V568.45h3.55v14.24h14.65V565.4H377V552.57h12V95.82H378.15V83h12V65.71H375.49V79.94h-3.56V63.29h18.21V41.07h-9.77V34.82ZM335.52,13.46h7.55V26.83h-7.55ZM22.93,578.62H13.6V567.44h9.33Zm42.62,55.3H58V620.55h7.55ZM378.15,68.76h9.32V79.94h-9.32Zm-5.33-43h4.88v6h-4.88ZM58,26.83V13.46h7.55V26.83Zm-19.09-1h4v6h-4Zm-25.31,6V13.46H28.26v9.27H20.71v9Zm14.66-6v6H23.37v-6ZM23.37,44.12h4.44v8.45H23.37ZM13.6,79.94V68.76h9.33V79.94Zm14.66,554H13.6v-18.3h7.11v9h7.55Zm0-12.32H23.37v-6h4.89Zm313.62,0v13.38h-7.55V621.56ZM361,622.62h-4v-6h4Zm25.31-6v18.3H371.63v-9.27h7.55v-9Zm-14.65,6v-6h4.88v6Zm4.88-18.35h-4.44v-8.44h4.44Zm9.77-35.82v11.18H377V568.45Zm1.19-524.33V60.23h-18.2V83h6.22V98.88h9.9V549.52h-11.1V565.4h-6.21v22.77h18.2v16.1h-7.1V592.78h-9.77v14.55h7.1v6.25H369v9h-5.33v-9h-9.33v12.09H361v9.27H350.76V610.3H331.67v8.21H316.13v15H83.76v-16H68.22v-8.21H49.13v24.64H38.91v-9.27h6.66V612.56H36.25v9H30.92v-9H23.37v-6.25h7.11V591.76H20.71v11.5H13.6V587.15H31.81V564.38H25.59V548.5H14.49V98.88h11.1V83h6.22V60.23H13.6V44.12h7.11v11.5h9.77V41.07H23.37V34.82h7.55v-9h5.33v9h9.32V22.73H38.91V13.46H49.13V38.1H68.22V29.89H83.76V15.31H317.32V29.89h15.54V38.1H352V13.46h10.21v9.27H355.5V34.82h9.33v-9h5.33v9h7.54v6.25h-7.1V55.62h9.77V44.12ZM38.91,621.6v-6h4v6ZM23.37,603.26v-8.45h4.44v8.45ZM362.16,25.78v6h-4v-6ZM377.7,44.12v8.45h-4.44V44.12Zm-4.88-21.39V13.46h14.65v18.3h-7.1v-9Z"/><path class="cls-8" d="M53.07,423.47s.46-3.38.51-3.58A18.84,18.84,0,0,1,57,412.56c5.64-7.19,15.9-7.07,23.45-3.23,5.46,2.78,8.52,7,11.81,11.92,2.47,3.73,6.6,8.83,11.53,8.83.09,0,1-2,1.15-2.16a15.8,15.8,0,0,1,4-4.26,14,14,0,0,1,16.79.25,15.19,15.19,0,0,1,3.41,21.25c-2.68,3.86-6.41,5.49-11,5.83,0,0-9.94,1.13-15.71-6.16,0,0-8.47,6.78-18.82,2.88-.3-.12-3.16,2.05-3.52,2.24a31.65,31.65,0,0,1-9.89,3.41c-8.44,1.37-18.79-1-23.78-8.5C41.3,437.23,42.25,424.72,53.07,423.47Z"/><path class="cls-9" d="M131.6,433a16.81,16.81,0,0,0-6.39-9.89A15.3,15.3,0,0,0,116,420a15,15,0,0,0-8.79,2.87,16.65,16.65,0,0,0-4.27,4.53c0,.06-.19.35-.37.71l-.49,1c-3.23-.3-6.63-3.1-10.12-8.35-3.33-5-6.55-9.39-12.19-12.26a24.85,24.85,0,0,0-11.07-2.72,16.87,16.87,0,0,0-13.65,6.22,19.61,19.61,0,0,0-3.57,7.73,21.44,21.44,0,0,0-.49,2.92,10.92,10.92,0,0,0-8.45,6.32c-2.23,4.84-1.48,11.48,1.89,16.52,3.9,5.84,11.39,9.32,20,9.32a28.64,28.64,0,0,0,4.75-.38,32.42,32.42,0,0,0,10.21-3.51c.13-.07.51-.33,1-.67s1.56-1.1,2.07-1.39A19.49,19.49,0,0,0,89,449.93a22.34,22.34,0,0,0,12.07-3.73c4.72,5.28,11.58,5.87,14.4,5.87a14.66,14.66,0,0,0,1.56-.07c5.26-.39,9.11-2.44,11.77-6.26A16.72,16.72,0,0,0,131.6,433Zm-4.43,11.6c-2.32,3.33-5.57,5.05-10.29,5.4,0,0-.54,0-1.37,0-2.65,0-9.26-.57-13.43-5.83l-.63-.81-.8.64A20.39,20.39,0,0,1,89,447.9a17.5,17.5,0,0,1-6.21-1.14l-.21-.07h-.05a12.35,12.35,0,0,1-8.2-5.62,10,10,0,0,1-.9-8.3,8.78,8.78,0,0,1,9.1-6.37c4.18.2,9,2.24,10,7.34a7.78,7.78,0,0,1-.57,5.15c-1.21,2.28-4.15,3.08-6.31,3.08h0A7.08,7.08,0,0,1,80,438.66a4.89,4.89,0,0,1-.53-4.34,3.22,3.22,0,0,1,3.69-2,4.07,4.07,0,0,1,3.53,3.54,1,1,0,1,0,2-.12,6.11,6.11,0,0,0-5.23-5.43,5.23,5.23,0,0,0-5.91,3.2,7,7,0,0,0,.69,6.19A9.2,9.2,0,0,0,85.7,444h0c2.85,0,6.47-1.09,8.1-4.16a9.72,9.72,0,0,0,.77-6.51c-1-5.15-5.71-8.67-11.93-9a10.83,10.83,0,0,0-11.14,7.8,12.14,12.14,0,0,0,1.09,9.95A14.07,14.07,0,0,0,79.93,448l-.7.49-.77.54a30.76,30.76,0,0,1-9.57,3.3,28.17,28.17,0,0,1-4.43.35c-8,0-14.82-3.15-18.34-8.42-2.94-4.4-3.65-10.38-1.73-14.53A9.15,9.15,0,0,1,52,424.48a16.84,16.84,0,0,1,8.21,1.86,11.79,11.79,0,0,1,5.61,7.18,8.07,8.07,0,0,1-.79,6.47,7.48,7.48,0,0,1-6.45,3.43c-3.09-.1-6.58-2.6-6.63-5.79a4,4,0,0,1,2.44-3.88,4.21,4.21,0,0,1,4.68,1,1,1,0,1,0,1.44-1.43,6.27,6.27,0,0,0-6.91-1.41,6,6,0,0,0-3.68,5.78c.07,4.43,4.59,7.66,8.6,7.8h.29a9.5,9.5,0,0,0,7.94-4.39,10.1,10.1,0,0,0,1-8.08,13.9,13.9,0,0,0-6.62-8.45,17.94,17.94,0,0,0-2-.89A8.72,8.72,0,0,1,63,416.3a9.56,9.56,0,0,1,9.58-.9,5.52,5.52,0,0,1,3,3.35,3.89,3.89,0,0,1-1.1,3.94,3.43,3.43,0,0,1-3.25.42,2.94,2.94,0,0,1-2-2.1,3.1,3.1,0,0,1,1-2.46.69.69,0,0,1,.83-.11,1,1,0,0,0,1.36-.45,1,1,0,0,0-.45-1.37,2.75,2.75,0,0,0-3,.32,5.05,5.05,0,0,0-1.78,4.48A5,5,0,0,0,70.57,425a5.38,5.38,0,0,0,5.22-.78,5.9,5.9,0,0,0,1.76-6,7.54,7.54,0,0,0-4.06-4.64,11.58,11.58,0,0,0-11.63,1.06A10.75,10.75,0,0,0,57.15,423a20.18,20.18,0,0,0-4-.57c.13-.93.31-2.15.35-2.33a17.58,17.58,0,0,1,3.19-6.93,14.85,14.85,0,0,1,12.05-5.45,22.8,22.8,0,0,1,10.14,2.5c5.22,2.66,8.14,6.64,11.42,11.57,3.77,5.67,7.59,8.73,11.39,9.19.11,1.88.7,6.1,3.67,8.8a9.43,9.43,0,0,0,6.6,2.36,16.4,16.4,0,0,0,1.81-.11c4.08-.49,6.92-2.23,8.45-5.16a8.35,8.35,0,0,0-.41-8.44,7.14,7.14,0,0,0-8.19-2.48,6,6,0,0,0-4.3,6.09,5.16,5.16,0,0,0,7.33,4.6,1,1,0,0,0,.53-1.34,1,1,0,0,0-1.34-.52,3.17,3.17,0,0,1-3-.17,3.22,3.22,0,0,1-1.48-2.66,4,4,0,0,1,2.91-4.08,5.21,5.21,0,0,1,5.87,1.71,6.35,6.35,0,0,1,.28,6.36c-1.21,2.33-3.46,3.66-6.89,4.07-2.87.35-5.15-.24-6.79-1.72-2.72-2.48-3-6.81-3-7.93.19-.32.41-.75.73-1.39.13-.26.23-.47.26-.52a14.7,14.7,0,0,1,3.75-4A12.94,12.94,0,0,1,116,422a13.25,13.25,0,0,1,8,2.72,14.18,14.18,0,0,1,3.18,19.86Z"/><path class="cls-10" d="M290.74,581s.37-2.65.41-2.81a14.7,14.7,0,0,1,2.66-5.77c4.44-5.65,12.51-5.56,18.45-2.54,4.3,2.19,6.71,5.49,9.29,9.38,1.95,2.93,5.2,6.94,9.08,6.94.07,0,.82-1.57.9-1.69a12.3,12.3,0,0,1,3.16-3.35,11,11,0,0,1,13.21.19A12,12,0,0,1,350.58,598c-2.11,3-5,4.31-8.66,4.58,0,0-7.83.89-12.36-4.84,0,0-6.67,5.33-14.81,2.26a19.61,19.61,0,0,0-2.77,1.77,24.7,24.7,0,0,1-7.78,2.68c-6.64,1.08-14.78-.82-18.71-6.69S282.23,582,290.74,581Z"/><path class="cls-11" d="M352.53,588.46a13.14,13.14,0,0,0-5-7.78,12,12,0,0,0-7.24-2.46,11.8,11.8,0,0,0-6.92,2.26A13,13,0,0,0,330,584c0,.05-.15.27-.29.56s-.25.51-.38.75c-2.55-.23-5.22-2.43-8-6.57-2.62-3.93-5.15-7.38-9.59-9.64A19.58,19.58,0,0,0,303,567a13.26,13.26,0,0,0-10.73,4.9,15.38,15.38,0,0,0-2.82,6.08,17.94,17.94,0,0,0-.38,2.29,8.6,8.6,0,0,0-6.65,5c-1.76,3.81-1.16,9,1.49,13,3.07,4.59,9,7.33,15.75,7.33a23.24,23.24,0,0,0,3.75-.3,25.48,25.48,0,0,0,8-2.77,8.5,8.5,0,0,0,.77-.52c.39-.27,1.22-.86,1.63-1.09a15.5,15.5,0,0,0,5.17.9,17.62,17.62,0,0,0,9.5-2.94c3.71,4.15,9.11,4.61,11.32,4.61.77,0,1.23-.05,1.23-.05,4.14-.31,7.17-1.92,9.26-4.92A13.14,13.14,0,0,0,352.53,588.46ZM349,597.58c-1.82,2.62-4.38,4-8.09,4.25,0,0-.42,0-1.08,0-2.08,0-7.28-.45-10.56-4.59l-.5-.63-.63.5a16.1,16.1,0,0,1-9.13,3.05,13.76,13.76,0,0,1-4.89-.91l-.16,0h0a9.7,9.7,0,0,1-6.46-4.42,7.88,7.88,0,0,1-.7-6.53,6.9,6.9,0,0,1,7.15-5c3.3.16,7.1,1.76,7.9,5.77a6.15,6.15,0,0,1-.44,4.06c-1,1.79-3.27,2.42-5,2.42h0a5.55,5.55,0,0,1-4.47-2.61,3.82,3.82,0,0,1-.42-3.41,2.54,2.54,0,0,1,2.91-1.54,3.19,3.19,0,0,1,2.77,2.79.8.8,0,1,0,1.6-.1,4.79,4.79,0,0,0-4.11-4.27,4.1,4.1,0,0,0-4.65,2.52,5.46,5.46,0,0,0,.54,4.86,7.25,7.25,0,0,0,5.83,3.36h0c2.25,0,5.09-.86,6.38-3.27a7.69,7.69,0,0,0,.6-5.12c-.81-4-4.49-6.82-9.39-7.06a8.51,8.51,0,0,0-8.76,6.13,9.56,9.56,0,0,0,.86,7.83,11.07,11.07,0,0,0,5.75,4.66l-.55.38c-.29.21-.52.37-.61.42a23.67,23.67,0,0,1-7.53,2.6,22.21,22.21,0,0,1-3.49.28c-6.26,0-11.65-2.48-14.42-6.62-2.31-3.47-2.87-8.17-1.36-11.44a7.16,7.16,0,0,1,6-4.15,13.26,13.26,0,0,1,6.46,1.46,9.26,9.26,0,0,1,4.41,5.65,6.36,6.36,0,0,1-.62,5.09,5.89,5.89,0,0,1-5.07,2.7c-2.43-.08-5.18-2-5.22-4.55a3.15,3.15,0,0,1,1.92-3.06,3.3,3.3,0,0,1,3.68.77.8.8,0,0,0,1.14-1.13,4.94,4.94,0,0,0-5.44-1.11,4.75,4.75,0,0,0-2.9,4.55c.06,3.48,3.61,6,6.77,6.13h.23a7.48,7.48,0,0,0,6.25-3.46,8,8,0,0,0,.81-6.36,10.93,10.93,0,0,0-5.21-6.64,12.29,12.29,0,0,0-1.57-.7,6.88,6.88,0,0,1,3-5.79,7.51,7.51,0,0,1,7.54-.7,4.28,4.28,0,0,1,2.34,2.63,3.06,3.06,0,0,1-.86,3.1,2.71,2.71,0,0,1-2.56.33,2.33,2.33,0,0,1-1.59-1.65,2.43,2.43,0,0,1,.81-1.93.55.55,0,0,1,.66-.09.8.8,0,0,0,.71-1.43,2.14,2.14,0,0,0-2.34.25,3.94,3.94,0,0,0-1.4,3.52,3.86,3.86,0,0,0,2.63,2.84,4.21,4.21,0,0,0,4.1-.61,4.64,4.64,0,0,0,1.38-4.76,5.93,5.93,0,0,0-3.19-3.65,9.14,9.14,0,0,0-9.15.84,8.48,8.48,0,0,0-3.71,6.6,15.94,15.94,0,0,0-3.17-.45c.1-.73.24-1.69.27-1.83a13.89,13.89,0,0,1,2.52-5.46A11.64,11.64,0,0,1,303,568.6a18,18,0,0,1,8,2c4.11,2.09,6.41,5.23,9,9.11,3,4.46,6,6.87,9,7.23.09,1.47.55,4.8,2.88,6.92a7.43,7.43,0,0,0,5.2,1.86,11.65,11.65,0,0,0,1.42-.09c3.21-.38,5.45-1.75,6.65-4.06a6.52,6.52,0,0,0-.33-6.64,5.61,5.61,0,0,0-6.44-1.95,4.72,4.72,0,0,0-3.38,4.79,4.05,4.05,0,0,0,5.77,3.62.8.8,0,0,0-.64-1.46,2.46,2.46,0,0,1-3.53-2.23,3.12,3.12,0,0,1,2.29-3.2,4.1,4.1,0,0,1,4.62,1.34,5,5,0,0,1,.22,5c-1,1.83-2.73,2.88-5.42,3.2a6.42,6.42,0,0,1-5.34-1.35c-2.15-1.95-2.37-5.36-2.39-6.24.15-.25.32-.59.57-1.09.1-.21.19-.37.2-.41a12,12,0,0,1,3-3.14,10.2,10.2,0,0,1,6-1.95,10.41,10.41,0,0,1,6.28,2.14,11.52,11.52,0,0,1,4.42,6.82A11.67,11.67,0,0,1,349,597.58Z"/><circle class="cls-12" cx="200.75" cy="488.89" r="50.3"/><g class="cls-13"><path class="cls-14" d="M161,512a46,46,0,1,1,62.84,16.71A46,46,0,0,1,161,512ZM238.49,467a43.62,43.62,0,1,0-15.86,59.62A43.67,43.67,0,0,0,238.49,467Z"/></g><path class="cls-15" d="M192.18,521.12,190.09,511a43.56,43.56,0,0,0-13.82-23.84l-7.74-6.84,10.11-2.09a43.58,43.58,0,0,0,23.84-13.83l6.84-7.74,2.09,10.12a43.58,43.58,0,0,0,13.83,23.84l7.74,6.84-10.12,2.09A43.58,43.58,0,0,0,199,513.38Z"/><path class="cls-16" d="M180.69,488.53,173,481.69l10.12-2.09a43.58,43.58,0,0,0,23.84-13.83l3.48-3.93-1.07-5.18-6.84,7.74a43.58,43.58,0,0,1-23.84,13.83l-10.11,2.09,7.74,6.84A43.56,43.56,0,0,1,190.09,511l2.09,10.12,3.36-3.81-1-4.94A43.58,43.58,0,0,0,180.69,488.53Z"/><circle class="cls-17" cx="127.71" cy="505.29" r="39.29"/><g class="cls-13"><path class="cls-14" d="M127.71,541.21a35.92,35.92,0,1,1,35.91-35.92A36,36,0,0,1,127.71,541.21Zm0-70a34.08,34.08,0,1,0,34.07,34.07A34.11,34.11,0,0,0,127.71,471.22Z"/></g><path class="cls-18" d="M146.13,523.71l-7.66-2.55a34,34,0,0,0-21.53,0l-7.65,2.55,2.55-7.65a34,34,0,0,0,0-21.53l-2.55-7.66,7.65,2.56a34.17,34.17,0,0,0,21.53,0l7.66-2.56-2.56,7.66a34.17,34.17,0,0,0,0,21.53Z"/><path class="cls-19" d="M119.6,518.7,112,521.25l2.55-7.65a34,34,0,0,0,0-21.53l-1.3-3.89-3.91-1.31,2.55,7.66a34,34,0,0,1,0,21.53l-2.55,7.65,7.65-2.55a34,34,0,0,1,21.53,0l7.66,2.55L144.87,520l-3.74-1.25A34,34,0,0,0,119.6,518.7Z"/><circle class="cls-20" cx="273.81" cy="508.69" r="53.39"/><g class="cls-13"><path class="cls-14" d="M239.3,543.2a48.8,48.8,0,1,1,69,0A48.88,48.88,0,0,1,239.3,543.2ZM306.55,476a46.3,46.3,0,1,0,0,65.48A46.36,46.36,0,0,0,306.55,476Z"/></g><path class="cls-21" d="M273.81,544.08l-4.9-9.8a46.33,46.33,0,0,0-20.69-20.69l-9.8-4.9,9.8-4.9a46.33,46.33,0,0,0,20.69-20.69l4.9-9.8,4.9,9.8a46.33,46.33,0,0,0,20.69,20.69l9.8,4.9-9.8,4.9a46.33,46.33,0,0,0-20.69,20.69Z"/><path class="cls-22" d="M253.14,513.79l-9.81-4.9,9.81-4.91a46.19,46.19,0,0,0,20.68-20.68l2.5-5-2.51-5-4.9,9.8a46.33,46.33,0,0,1-20.69,20.69l-9.8,4.9,9.8,4.9a46.33,46.33,0,0,1,20.69,20.69l4.9,9.8,2.41-4.82-2.4-4.79A46.19,46.19,0,0,0,253.14,513.79Z"/><circle class="cls-23" cx="190.85" cy="527.12" r="38.15"/><g class="cls-13"><path class="cls-14" d="M190.85,562a34.87,34.87,0,1,1,34.87-34.87A34.91,34.91,0,0,1,190.85,562Zm0-68a33.09,33.09,0,1,0,33.08,33.09A33.13,33.13,0,0,0,190.85,494Z"/></g><path class="cls-24" d="M208.73,545l-7.43-2.48a33.06,33.06,0,0,0-20.9,0L173,545l2.48-7.43a33.06,33.06,0,0,0,0-20.9L173,509.23l7.43,2.48a33.06,33.06,0,0,0,20.9,0l7.43-2.48-2.47,7.44a33.06,33.06,0,0,0,0,20.9Z"/><path class="cls-25" d="M183,540.14l-7.43,2.48,2.48-7.44a33.06,33.06,0,0,0,0-20.9l-1.26-3.78-3.8-1.27,2.48,7.44a33.06,33.06,0,0,1,0,20.9L173,545l7.43-2.48a33.06,33.06,0,0,1,20.9,0l7.43,2.48-1.21-3.65-3.63-1.21A33.09,33.09,0,0,0,183,540.14Z"/><circle class="cls-26" cx="143.68" cy="542.67" r="19.82"/><g class="cls-13"><path class="cls-14" d="M127.58,551A18.11,18.11,0,1,1,152,558.78,18.13,18.13,0,0,1,127.58,551ZM159,534.81A17.19,17.19,0,1,0,151.55,558,17.21,17.21,0,0,0,159,534.81Z"/></g><path class="cls-27" d="M139.67,555.19l-.62-4a17.14,17.14,0,0,0-5-9.65l-2.91-2.85,4-.62a17.16,17.16,0,0,0,9.66-5l2.85-2.91.62,4a17.19,17.19,0,0,0,5,9.66l2.91,2.84-4,.63a17.15,17.15,0,0,0-9.66,5Z"/><path class="cls-28" d="M135.8,542.13l-2.91-2.84,4-.62a17.19,17.19,0,0,0,9.66-5l1.44-1.48-.31-2.06-2.85,2.91a17.16,17.16,0,0,1-9.66,5l-4,.62,2.91,2.85a17.14,17.14,0,0,1,5,9.65l.62,4,1.4-1.44-.3-2A17.19,17.19,0,0,0,135.8,542.13Z"/><circle class="cls-29" cx="233.43" cy="552.76" r="24.6"/><g class="cls-13"><path class="cls-14" d="M239.86,574.3a22.49,22.49,0,1,1,15.11-28A22.51,22.51,0,0,1,239.86,574.3Zm-12.54-42a21.33,21.33,0,1,0,26.55,14.33A21.34,21.34,0,0,0,227.32,532.32Z"/></g><path class="cls-30" d="M247.77,560.5l-5-.15a21.29,21.29,0,0,0-12.92,3.85l-4.13,2.9.16-5.05A21.34,21.34,0,0,0,222,549.14l-2.9-4.13,5,.15A21.24,21.24,0,0,0,237,541.31l4.14-2.9-.16,5.05a21.26,21.26,0,0,0,3.85,12.91Z"/><path class="cls-31" d="M231,562.25l-4.14,2.9.16-5a21.26,21.26,0,0,0-3.85-12.91l-1.48-2.1-2.58-.08,2.9,4.13a21.34,21.34,0,0,1,3.86,12.91l-.16,5.05,4.13-2.9a21.29,21.29,0,0,1,12.92-3.85l5,.15-1.42-2-2.47-.07A21.24,21.24,0,0,0,231,562.25Z"/></svg>