<svg id="圖層_1" data-name="圖層 1" xmlns="http://www.w3.org/2000/svg" xmlns:xlink="http://www.w3.org/1999/xlink" viewBox="0 0 400 300"><defs><style>.cls-1{fill:none;}.cls-2{fill:url(#未命名漸層_50);}.cls-3{opacity:0.47;}.cls-4{clip-path:url(#clip-path);}.cls-5{fill:#911010;}.cls-6{fill:url(#Polished_Brass);}.cls-7{fill:url(#Polished_Brass-2);}</style><linearGradient id="未命名漸層_50" x1="199.89" y1="602.73" x2="199.89" y2="-216.52" gradientUnits="userSpaceOnUse"><stop offset="0" stop-color="#500"/><stop offset="1" stop-color="#fc5000"/></linearGradient><clipPath id="clip-path"><rect class="cls-1" x="-0.03" y="0.67" width="399.85" height="649.93"/></clipPath><linearGradient id="Polished_Brass" x1="196.71" y1="159.34" x2="196.84" y2="159.34" gradientUnits="userSpaceOnUse"><stop offset="0.01" stop-color="#ebc17d"/><stop offset="0.19" stop-color="#edd089"/><stop offset="0.41" stop-color="#f4e8d9"/><stop offset="0.73" stop-color="#c08329"/><stop offset="0.95" stop-color="#eabe81"/></linearGradient><linearGradient id="Polished_Brass-2" x1="10.65" y1="324.8" x2="389.84" y2="324.8" xlink:href="#Polished_Brass"/></defs><rect class="cls-2" x="-0.03" y="0.67" width="399.85" height="649.93"/><g class="cls-3"><g class="cls-4"><path class="cls-5" d="M85.64,332.44c-1.53-18.7-14.33-34.69-30.43-38-10.1-2.09-20.71.9-29.1,8.21a44.41,44.41,0,0,0-14.65,29.82l-4.89-.53c1.09-13.24,7.13-25.55,16.57-33.78s21.49-11.63,33-9.26c18.22,3.78,32.7,21.88,34.44,43Z"/><path class="cls-5" d="M169.6,332.44c-1.53-18.7-14.33-34.69-30.43-38-10.11-2.09-20.72.9-29.11,8.21a44.5,44.5,0,0,0-14.65,29.82l-4.88-.53c1.08-13.24,7.12-25.55,16.57-33.78s21.48-11.63,32.94-9.26c18.22,3.78,32.71,21.88,34.44,43Z"/><path class="cls-5" d="M253.55,332.44c-1.53-18.7-14.33-34.69-30.43-38-10.1-2.09-20.71.9-29.1,8.21a44.41,44.41,0,0,0-14.65,29.82l-4.89-.53c1.09-13.24,7.13-25.55,16.57-33.78s21.49-11.63,32.95-9.26c18.22,3.78,32.7,21.88,34.44,43Z"/><path class="cls-5" d="M337.51,332.44c-1.53-18.7-14.33-34.69-30.43-38-10.11-2.09-20.72.9-29.11,8.21a44.5,44.5,0,0,0-14.65,29.82l-4.88-.53c1.08-13.24,7.12-25.55,16.57-33.78s21.48-11.63,32.94-9.26c18.22,3.78,32.71,21.88,34.44,43Z"/><path class="cls-5" d="M408,296.59a38.59,38.59,0,0,0-16.09-7.72c-11.46-2.37-23.47,1-33,9.26s-15.48,20.54-16.57,33.78l4.89.53a44.41,44.41,0,0,1,14.65-29.82c8.39-7.31,19-10.3,29.1-8.21a35,35,0,0,1,17,9.23Z"/><path class="cls-5" d="M14.11,249.19a35.63,35.63,0,0,0-8.28-.72v5.63a31.42,31.42,0,0,1,7.41.63c16.1,3.33,28.89,19.33,30.42,38l4.89-.53C46.81,271.06,32.33,253,14.11,249.19Z"/><path class="cls-5" d="M11.75,262.67a24.64,24.64,0,0,0-5.92-.5v5.64a20.51,20.51,0,0,1,5.05.4c10.39,2.15,18.65,12.47,19.64,24.54l4.88-.53C34.19,277.46,24.46,265.3,11.75,262.67Z"/><path class="cls-5" d="M9.38,276.19A13.28,13.28,0,0,0,5.83,276v5.64a9,9,0,0,1,2.68.14c4.66,1,8.38,5.6,8.82,11l4.88-.53C21.56,284.21,16.28,277.62,9.38,276.19Z"/><path class="cls-5" d="M127.62,292.75c-1.53-18.69-14.33-34.69-30.43-38-10.11-2.1-20.72.89-29.11,8.2a44.54,44.54,0,0,0-14.65,29.82l-4.88-.53c1.08-13.23,7.12-25.55,16.57-33.77s21.49-11.64,32.94-9.26c18.23,3.77,32.71,21.87,34.44,43Z"/><path class="cls-5" d="M114.47,292.75c-1-12.07-9.25-22.39-19.64-24.54A21.8,21.8,0,0,0,76,273.51a28.68,28.68,0,0,0-9.46,19.24l-4.88-.53A34.61,34.61,0,0,1,73.07,269a26.28,26.28,0,0,1,22.63-6.35c12.72,2.63,22.45,14.79,23.66,29.55Z"/><path class="cls-5" d="M79.77,292.75l-4.89-.53a18.79,18.79,0,0,1,6.18-12.59,14.23,14.23,0,0,1,12.27-3.44c6.9,1.43,12.18,8,12.84,16l-4.89.53c-.44-5.42-4.15-10.06-8.82-11A9.8,9.8,0,0,0,84,284.11,12.88,12.88,0,0,0,79.77,292.75Z"/><path class="cls-5" d="M211.57,292.75c-1.53-18.69-14.32-34.69-30.42-38-10.11-2.1-20.72.89-29.11,8.2a44.45,44.45,0,0,0-14.65,29.82l-4.89-.53c1.09-13.23,7.13-25.55,16.57-33.77s21.49-11.64,33-9.26c18.22,3.77,32.7,21.87,34.44,43Z"/><path class="cls-5" d="M198.43,292.75c-1-12.07-9.25-22.39-19.64-24.54a21.81,21.81,0,0,0-18.8,5.3,28.72,28.72,0,0,0-9.46,19.24l-4.88-.53A34.62,34.62,0,0,1,157,269a26.28,26.28,0,0,1,22.63-6.35c12.71,2.63,22.44,14.79,23.65,29.55Z"/><path class="cls-5" d="M163.72,292.75l-4.88-.53A18.73,18.73,0,0,1,165,279.63a14.25,14.25,0,0,1,12.28-3.44c6.9,1.43,12.18,8,12.83,16l-4.88.53c-.44-5.42-4.16-10.06-8.82-11a9.79,9.79,0,0,0-8.44,2.38A12.93,12.93,0,0,0,163.72,292.75Z"/><path class="cls-5" d="M295.53,292.75c-1.53-18.69-14.33-34.69-30.43-38-10.11-2.1-20.72.89-29.11,8.2a44.54,44.54,0,0,0-14.65,29.82l-4.88-.53c1.08-13.23,7.12-25.55,16.57-33.77s21.49-11.64,32.94-9.26c18.23,3.77,32.71,21.87,34.44,43Z"/><path class="cls-5" d="M282.38,292.75c-1-12.07-9.25-22.39-19.64-24.54a21.8,21.8,0,0,0-18.79,5.3,28.68,28.68,0,0,0-9.46,19.24l-4.88-.53A34.61,34.61,0,0,1,241,269a26.28,26.28,0,0,1,22.63-6.35c12.72,2.63,22.45,14.79,23.66,29.55Z"/><path class="cls-5" d="M247.68,292.75l-4.89-.53A18.79,18.79,0,0,1,249,279.63a14.23,14.23,0,0,1,12.27-3.44c6.9,1.43,12.18,8,12.84,16l-4.89.53c-.44-5.42-4.15-10.06-8.82-11a9.81,9.81,0,0,0-8.44,2.38A12.88,12.88,0,0,0,247.68,292.75Z"/><path class="cls-5" d="M379.49,292.75c-1.54-18.69-14.33-34.69-30.43-38-10.11-2.1-20.72.89-29.11,8.2a44.45,44.45,0,0,0-14.65,29.82l-4.89-.53c1.09-13.23,7.13-25.55,16.57-33.77s21.49-11.64,32.95-9.26c18.22,3.77,32.71,21.87,34.44,43Z"/><path class="cls-5" d="M366.34,292.75c-1-12.07-9.25-22.39-19.64-24.54a21.81,21.81,0,0,0-18.8,5.3,28.72,28.72,0,0,0-9.46,19.24l-4.88-.53A34.62,34.62,0,0,1,324.94,269a26.28,26.28,0,0,1,22.63-6.35c12.71,2.63,22.44,14.79,23.65,29.55Z"/><path class="cls-5" d="M331.63,292.75l-4.88-.53a18.73,18.73,0,0,1,6.17-12.59,14.25,14.25,0,0,1,12.28-3.44c6.9,1.43,12.18,8,12.83,16l-4.88.53c-.44-5.42-4.16-10.06-8.82-11a9.79,9.79,0,0,0-8.44,2.38A12.93,12.93,0,0,0,331.63,292.75Z"/><path class="cls-5" d="M408,253.46a42.09,42.09,0,0,0-7.06,5c-9.45,8.22-15.49,20.54-16.57,33.77l4.88.53a44.54,44.54,0,0,1,14.65-29.82,39.75,39.75,0,0,1,4.1-3.1Z"/><path class="cls-5" d="M408,269.89a34.73,34.73,0,0,0-10.48,22.33l4.88.53a29.3,29.3,0,0,1,5.6-15Z"/><path class="cls-5" d="M85.64,248.45c-1.53-18.7-14.33-34.69-30.43-38-10.1-2.09-20.71.9-29.1,8.21a44.41,44.41,0,0,0-14.65,29.82l-4.89-.53c1.09-13.24,7.13-25.55,16.57-33.78s21.49-11.63,33-9.26c18.22,3.78,32.7,21.88,34.44,43Z"/><path class="cls-5" d="M72.5,248.45c-1-12.07-9.25-22.4-19.65-24.55a21.83,21.83,0,0,0-18.79,5.3,28.74,28.74,0,0,0-9.46,19.25l-4.88-.53A34.58,34.58,0,0,1,31.1,224.71a26.25,26.25,0,0,1,22.62-6.35c12.72,2.63,22.45,14.79,23.66,29.56Z"/><path class="cls-5" d="M37.79,248.45l-4.88-.53a18.78,18.78,0,0,1,6.17-12.6,14.25,14.25,0,0,1,12.28-3.44c6.9,1.43,12.17,8,12.83,16l-4.88.53c-.45-5.43-4.16-10.06-8.83-11A9.78,9.78,0,0,0,42,239.81,12.92,12.92,0,0,0,37.79,248.45Z"/><path class="cls-5" d="M169.6,248.45c-1.53-18.7-14.33-34.69-30.43-38-10.11-2.09-20.72.9-29.11,8.21a44.5,44.5,0,0,0-14.65,29.82l-4.88-.53c1.08-13.24,7.12-25.55,16.57-33.78s21.48-11.63,32.94-9.26c18.22,3.78,32.71,21.88,34.44,43Z"/><path class="cls-5" d="M156.45,248.45c-1-12.07-9.25-22.4-19.64-24.55A21.83,21.83,0,0,0,118,229.2a28.66,28.66,0,0,0-9.46,19.25l-4.89-.53a34.67,34.67,0,0,1,11.38-23.21,26.28,26.28,0,0,1,22.63-6.35c12.72,2.63,22.44,14.79,23.65,29.56Z"/><path class="cls-5" d="M121.75,248.45l-4.89-.53a18.86,18.86,0,0,1,6.17-12.6,14.26,14.26,0,0,1,12.28-3.44c6.9,1.43,12.18,8,12.84,16l-4.89.53c-.44-5.43-4.15-10.06-8.82-11a9.77,9.77,0,0,0-8.44,2.39A12.83,12.83,0,0,0,121.75,248.45Z"/><path class="cls-5" d="M253.55,248.45c-1.53-18.7-14.33-34.69-30.43-38-10.1-2.09-20.71.9-29.1,8.21a44.41,44.41,0,0,0-14.65,29.82l-4.89-.53c1.09-13.24,7.13-25.55,16.57-33.78s21.49-11.63,32.95-9.26c18.22,3.78,32.7,21.88,34.44,43Z"/><path class="cls-5" d="M240.41,248.45c-1-12.07-9.25-22.4-19.65-24.55A21.83,21.83,0,0,0,202,229.2a28.74,28.74,0,0,0-9.46,19.25l-4.88-.53A34.58,34.58,0,0,1,199,224.71a26.25,26.25,0,0,1,22.62-6.35c12.72,2.63,22.45,14.79,23.66,29.56Z"/><path class="cls-5" d="M205.7,248.45l-4.88-.53a18.78,18.78,0,0,1,6.17-12.6,14.25,14.25,0,0,1,12.28-3.44c6.9,1.43,12.17,8,12.83,16l-4.88.53c-.45-5.43-4.16-10.06-8.83-11a9.78,9.78,0,0,0-8.44,2.39A12.92,12.92,0,0,0,205.7,248.45Z"/><path class="cls-5" d="M337.51,248.45c-1.53-18.7-14.33-34.69-30.43-38-10.11-2.09-20.72.9-29.11,8.21a44.5,44.5,0,0,0-14.65,29.82l-4.88-.53c1.08-13.24,7.12-25.55,16.57-33.78s21.48-11.63,32.94-9.26c18.22,3.78,32.71,21.88,34.44,43Z"/><path class="cls-5" d="M324.36,248.45c-1-12.07-9.25-22.4-19.64-24.55a21.83,21.83,0,0,0-18.79,5.3,28.66,28.66,0,0,0-9.46,19.25l-4.89-.53A34.67,34.67,0,0,1,283,224.71a26.28,26.28,0,0,1,22.63-6.35c12.72,2.63,22.44,14.79,23.65,29.56Z"/><path class="cls-5" d="M289.66,248.45l-4.89-.53a18.86,18.86,0,0,1,6.17-12.6,14.26,14.26,0,0,1,12.28-3.44c6.9,1.43,12.18,8,12.84,16l-4.89.53c-.44-5.43-4.15-10.06-8.82-11a9.77,9.77,0,0,0-8.44,2.39A12.83,12.83,0,0,0,289.66,248.45Z"/><path class="cls-5" d="M408,212.6a38.59,38.59,0,0,0-16.09-7.72c-11.46-2.37-23.47,1-33,9.26s-15.48,20.54-16.57,33.78l4.89.53a44.41,44.41,0,0,1,14.65-29.82c8.39-7.31,19-10.3,29.1-8.21a35,35,0,0,1,17,9.23Z"/><path class="cls-5" d="M408,231.92c-4.28-6.95-10.82-12-18.45-13.56a26.27,26.27,0,0,0-22.63,6.35,34.58,34.58,0,0,0-11.38,23.21l4.88.53a28.74,28.74,0,0,1,9.46-19.25,21.83,21.83,0,0,1,18.79-5.3c9.68,2,17.5,11.09,19.33,22.07Z"/><path class="cls-5" d="M373.61,248.45l-4.88-.53a18.78,18.78,0,0,1,6.17-12.6,14.25,14.25,0,0,1,12.28-3.44c6.9,1.43,12.17,8,12.83,16l-4.88.53c-.45-5.43-4.16-10.06-8.83-11a9.78,9.78,0,0,0-8.44,2.39A12.92,12.92,0,0,0,373.61,248.45Z"/><path class="cls-5" d="M14.11,165.2a35.63,35.63,0,0,0-8.28-.72v5.62a31.43,31.43,0,0,1,7.41.64c16.1,3.33,28.89,19.32,30.42,38l4.89-.53C46.81,187.07,32.33,169,14.11,165.2Z"/><path class="cls-5" d="M11.75,178.67a25.15,25.15,0,0,0-5.92-.49v5.64a20.5,20.5,0,0,1,5.05.39c10.39,2.16,18.65,12.48,19.64,24.55l4.88-.53C34.19,193.46,24.46,181.31,11.75,178.67Z"/><path class="cls-5" d="M9.38,192.19A13.69,13.69,0,0,0,5.83,192v5.64a9,9,0,0,1,2.68.14c4.66,1,8.38,5.6,8.82,11l4.88-.53C21.56,200.22,16.28,193.63,9.38,192.19Z"/><path class="cls-5" d="M127.62,208.76c-1.53-18.7-14.33-34.69-30.43-38-10.11-2.1-20.72.89-29.11,8.2a44.54,44.54,0,0,0-14.65,29.82l-4.88-.53c1.08-13.24,7.12-25.55,16.57-33.77s21.49-11.64,32.94-9.26c18.23,3.77,32.71,21.87,34.44,43Z"/><path class="cls-5" d="M114.47,208.76c-1-12.07-9.25-22.39-19.64-24.55A21.83,21.83,0,0,0,76,189.51a28.72,28.72,0,0,0-9.46,19.25l-4.88-.53A34.61,34.61,0,0,1,73.07,185a26.28,26.28,0,0,1,22.63-6.36c12.72,2.64,22.45,14.8,23.66,29.56Z"/><path class="cls-5" d="M79.77,208.76l-4.89-.53a18.79,18.79,0,0,1,6.18-12.59,14.2,14.2,0,0,1,12.27-3.44c6.9,1.43,12.18,8,12.84,16l-4.89.53c-.44-5.42-4.15-10.06-8.82-11A9.8,9.8,0,0,0,84,200.12,12.86,12.86,0,0,0,79.77,208.76Z"/><path class="cls-5" d="M211.57,208.76c-1.53-18.7-14.32-34.69-30.42-38-10.11-2.1-20.72.89-29.11,8.2a44.45,44.45,0,0,0-14.65,29.82l-4.89-.53c1.09-13.24,7.13-25.55,16.57-33.77s21.49-11.64,33-9.26c18.22,3.77,32.7,21.87,34.44,43Z"/><path class="cls-5" d="M198.43,208.76c-1-12.07-9.25-22.39-19.64-24.55a21.84,21.84,0,0,0-18.8,5.3,28.77,28.77,0,0,0-9.46,19.25l-4.88-.53A34.62,34.62,0,0,1,157,185a26.28,26.28,0,0,1,22.63-6.36c12.71,2.64,22.44,14.8,23.65,29.56Z"/><path class="cls-5" d="M163.72,208.76l-4.88-.53A18.73,18.73,0,0,1,165,195.64a14.22,14.22,0,0,1,12.28-3.44c6.9,1.43,12.18,8,12.83,16l-4.88.53c-.44-5.42-4.16-10.06-8.82-11a9.79,9.79,0,0,0-8.44,2.38A12.91,12.91,0,0,0,163.72,208.76Z"/><path class="cls-5" d="M295.53,208.76c-1.53-18.7-14.33-34.69-30.43-38-10.11-2.1-20.72.89-29.11,8.2a44.54,44.54,0,0,0-14.65,29.82l-4.88-.53c1.08-13.24,7.12-25.55,16.57-33.77s21.49-11.64,32.94-9.26c18.23,3.77,32.71,21.87,34.44,43Z"/><path class="cls-5" d="M282.38,208.76c-1-12.07-9.25-22.39-19.64-24.55a21.83,21.83,0,0,0-18.79,5.3,28.72,28.72,0,0,0-9.46,19.25l-4.88-.53A34.61,34.61,0,0,1,241,185a26.28,26.28,0,0,1,22.63-6.36c12.72,2.64,22.45,14.8,23.66,29.56Z"/><path class="cls-5" d="M247.68,208.76l-4.89-.53A18.79,18.79,0,0,1,249,195.64a14.2,14.2,0,0,1,12.27-3.44c6.9,1.43,12.18,8,12.84,16l-4.89.53c-.44-5.42-4.15-10.06-8.82-11a9.81,9.81,0,0,0-8.44,2.38A12.86,12.86,0,0,0,247.68,208.76Z"/><path class="cls-5" d="M379.49,208.76c-1.54-18.7-14.33-34.69-30.43-38-10.11-2.1-20.72.89-29.11,8.2a44.45,44.45,0,0,0-14.65,29.82l-4.89-.53c1.09-13.24,7.13-25.55,16.57-33.77s21.49-11.64,32.95-9.26c18.22,3.77,32.71,21.87,34.44,43Z"/><path class="cls-5" d="M366.34,208.76c-1-12.07-9.25-22.39-19.64-24.55a21.84,21.84,0,0,0-18.8,5.3,28.77,28.77,0,0,0-9.46,19.25l-4.88-.53A34.62,34.62,0,0,1,324.94,185a26.28,26.28,0,0,1,22.63-6.36c12.71,2.64,22.44,14.8,23.65,29.56Z"/><path class="cls-5" d="M331.63,208.76l-4.88-.53a18.73,18.73,0,0,1,6.17-12.59,14.22,14.22,0,0,1,12.28-3.44c6.9,1.43,12.18,8,12.83,16l-4.88.53c-.44-5.42-4.16-10.06-8.82-11a9.79,9.79,0,0,0-8.44,2.38A12.91,12.91,0,0,0,331.63,208.76Z"/><path class="cls-5" d="M408,169.47a42.09,42.09,0,0,0-7.06,5c-9.45,8.22-15.49,20.53-16.57,33.77l4.88.53a44.54,44.54,0,0,1,14.65-29.82,39.75,39.75,0,0,1,4.1-3.1Z"/><path class="cls-5" d="M408,185.89a34.73,34.73,0,0,0-10.48,22.34l4.88.53a29.37,29.37,0,0,1,5.6-15Z"/><path class="cls-5" d="M85.64,164.45c-1.53-18.69-14.33-34.68-30.43-38-10.1-2.1-20.71.9-29.1,8.2a44.45,44.45,0,0,0-14.65,29.82l-4.89-.52c1.09-13.24,7.13-25.55,16.57-33.78s21.49-11.63,33-9.26c18.22,3.78,32.7,21.88,34.44,43Z"/><path class="cls-5" d="M72.5,164.45c-1-12.07-9.25-22.39-19.65-24.54a21.83,21.83,0,0,0-18.79,5.3,28.74,28.74,0,0,0-9.46,19.24l-4.88-.52A34.58,34.58,0,0,1,31.1,140.72a26.25,26.25,0,0,1,22.62-6.35c12.72,2.63,22.45,14.79,23.66,29.56Z"/><path class="cls-5" d="M37.79,164.45l-4.88-.52a18.76,18.76,0,0,1,6.17-12.6,14.25,14.25,0,0,1,12.28-3.44c6.9,1.43,12.17,8,12.83,16l-4.88.52c-.45-5.42-4.16-10-8.83-11A9.78,9.78,0,0,0,42,155.82,12.92,12.92,0,0,0,37.79,164.45Z"/><path class="cls-5" d="M169.6,164.45c-1.53-18.69-14.33-34.68-30.43-38-10.11-2.1-20.72.9-29.11,8.2a44.54,44.54,0,0,0-14.65,29.82l-4.88-.52c1.08-13.24,7.12-25.55,16.57-33.78s21.48-11.63,32.94-9.26c18.22,3.78,32.71,21.88,34.44,43Z"/><path class="cls-5" d="M156.45,164.45c-1-12.07-9.25-22.39-19.64-24.54a21.83,21.83,0,0,0-18.79,5.3,28.66,28.66,0,0,0-9.46,19.24l-4.89-.52a34.67,34.67,0,0,1,11.38-23.21,26.28,26.28,0,0,1,22.63-6.35c12.72,2.63,22.44,14.79,23.65,29.56Z"/><path class="cls-5" d="M121.75,164.45l-4.89-.52a18.84,18.84,0,0,1,6.17-12.6,14.26,14.26,0,0,1,12.28-3.44c6.9,1.43,12.18,8,12.84,16l-4.89.52c-.44-5.42-4.15-10-8.82-11a9.77,9.77,0,0,0-8.44,2.39A12.83,12.83,0,0,0,121.75,164.45Z"/><path class="cls-5" d="M253.55,164.45c-1.53-18.69-14.33-34.68-30.43-38-10.1-2.1-20.71.9-29.1,8.2a44.45,44.45,0,0,0-14.65,29.82l-4.89-.52c1.09-13.24,7.13-25.55,16.57-33.78s21.49-11.63,32.95-9.26c18.22,3.78,32.7,21.88,34.44,43Z"/><path class="cls-5" d="M240.41,164.45c-1-12.07-9.25-22.39-19.65-24.54a21.83,21.83,0,0,0-18.79,5.3,28.74,28.74,0,0,0-9.46,19.24l-4.88-.52A34.58,34.58,0,0,1,199,140.72a26.25,26.25,0,0,1,22.62-6.35c12.72,2.63,22.45,14.79,23.66,29.56Z"/><path class="cls-5" d="M205.7,164.45l-4.88-.52a18.76,18.76,0,0,1,6.17-12.6,14.25,14.25,0,0,1,12.28-3.44c6.9,1.43,12.17,8,12.83,16l-4.88.52c-.45-5.42-4.16-10-8.83-11a9.78,9.78,0,0,0-8.44,2.39A12.92,12.92,0,0,0,205.7,164.45Z"/><path class="cls-5" d="M337.51,164.45c-1.53-18.69-14.33-34.68-30.43-38-10.11-2.1-20.72.9-29.11,8.2a44.54,44.54,0,0,0-14.65,29.82l-4.88-.52c1.08-13.24,7.12-25.55,16.57-33.78s21.48-11.63,32.94-9.26c18.22,3.78,32.71,21.88,34.44,43Z"/><path class="cls-5" d="M324.36,164.45c-1-12.07-9.25-22.39-19.64-24.54a21.83,21.83,0,0,0-18.79,5.3,28.66,28.66,0,0,0-9.46,19.24l-4.89-.52A34.67,34.67,0,0,1,283,140.72a26.28,26.28,0,0,1,22.63-6.35c12.72,2.63,22.44,14.79,23.65,29.56Z"/><path class="cls-5" d="M289.66,164.45l-4.89-.52a18.84,18.84,0,0,1,6.17-12.6,14.26,14.26,0,0,1,12.28-3.44c6.9,1.43,12.18,8,12.84,16l-4.89.52c-.44-5.42-4.15-10-8.82-11a9.77,9.77,0,0,0-8.44,2.39A12.83,12.83,0,0,0,289.66,164.45Z"/><path class="cls-5" d="M408,128.6a38.57,38.57,0,0,0-16.09-7.71c-11.46-2.37-23.47,1-33,9.26s-15.48,20.54-16.57,33.78l4.89.52a44.45,44.45,0,0,1,14.65-29.82c8.39-7.3,19-10.3,29.1-8.2a35,35,0,0,1,17,9.23Z"/><path class="cls-5" d="M408,147.92c-4.28-6.94-10.82-12-18.45-13.55a26.27,26.27,0,0,0-22.63,6.35,34.58,34.58,0,0,0-11.38,23.21l4.88.52a28.74,28.74,0,0,1,9.46-19.24,21.83,21.83,0,0,1,18.79-5.3c9.68,2,17.5,11.09,19.33,22.07Z"/><path class="cls-5" d="M373.61,164.45l-4.88-.52a18.76,18.76,0,0,1,6.17-12.6,14.25,14.25,0,0,1,12.28-3.44c6.9,1.43,12.17,8,12.83,16l-4.88.52c-.45-5.42-4.16-10-8.83-11a9.78,9.78,0,0,0-8.44,2.39A12.92,12.92,0,0,0,373.61,164.45Z"/><path class="cls-5" d="M14.11,81.21a35.63,35.63,0,0,0-8.28-.72v5.62a31.43,31.43,0,0,1,7.41.64c16.1,3.33,28.89,19.32,30.42,38l4.89-.53C46.81,103.08,32.33,85,14.11,81.21Z"/><path class="cls-5" d="M11.75,94.68a25.15,25.15,0,0,0-5.92-.49v5.64a20.5,20.5,0,0,1,5.05.39c10.39,2.16,18.65,12.48,19.64,24.55l4.88-.53C34.19,109.47,24.46,97.32,11.75,94.68Z"/><path class="cls-5" d="M9.38,108.2A13.27,13.27,0,0,0,5.83,108v5.64a9.29,9.29,0,0,1,2.68.13c4.66,1,8.38,5.61,8.82,11l4.88-.53C21.56,116.23,16.28,109.63,9.38,108.2Z"/><path class="cls-5" d="M127.62,124.77c-1.53-18.7-14.33-34.69-30.43-38-10.11-2.1-20.72.89-29.11,8.2a44.52,44.52,0,0,0-14.65,29.82l-4.88-.53C49.63,111,55.67,98.69,65.12,90.46s21.49-11.63,32.94-9.25c18.23,3.77,32.71,21.87,34.44,43Z"/><path class="cls-5" d="M114.47,124.77c-1-12.07-9.25-22.39-19.64-24.55A21.83,21.83,0,0,0,76,105.52a28.72,28.72,0,0,0-9.46,19.25l-4.88-.53A34.59,34.59,0,0,1,73.07,101,26.28,26.28,0,0,1,95.7,94.68c12.72,2.64,22.45,14.79,23.66,29.56Z"/><path class="cls-5" d="M79.77,124.77l-4.89-.53a18.79,18.79,0,0,1,6.18-12.59,14.23,14.23,0,0,1,12.27-3.45c6.9,1.43,12.18,8,12.84,16l-4.89.53c-.44-5.42-4.15-10.06-8.82-11A9.84,9.84,0,0,0,84,116.13,12.83,12.83,0,0,0,79.77,124.77Z"/><path class="cls-5" d="M211.57,124.77c-1.53-18.7-14.32-34.69-30.42-38C171,84.65,160.43,87.64,152,95a44.43,44.43,0,0,0-14.65,29.82l-4.89-.53c1.09-13.24,7.13-25.55,16.57-33.78s21.49-11.63,33-9.25c18.22,3.77,32.7,21.87,34.44,43Z"/><path class="cls-5" d="M198.43,124.77c-1-12.07-9.25-22.39-19.64-24.55a21.84,21.84,0,0,0-18.8,5.3,28.77,28.77,0,0,0-9.46,19.25l-4.88-.53A34.6,34.6,0,0,1,157,101a26.28,26.28,0,0,1,22.63-6.36c12.71,2.64,22.44,14.79,23.65,29.56Z"/><path class="cls-5" d="M163.72,124.77l-4.88-.53A18.73,18.73,0,0,1,165,111.65a14.25,14.25,0,0,1,12.28-3.45c6.9,1.43,12.18,8,12.83,16l-4.88.53c-.44-5.42-4.16-10.06-8.82-11a9.83,9.83,0,0,0-8.44,2.39A12.89,12.89,0,0,0,163.72,124.77Z"/><path class="cls-5" d="M295.53,124.77c-1.53-18.7-14.33-34.69-30.43-38C255,84.65,244.38,87.64,236,95a44.52,44.52,0,0,0-14.65,29.82l-4.88-.53C217.54,111,223.58,98.69,233,90.46S254.52,78.83,266,81.21c18.23,3.77,32.71,21.87,34.44,43Z"/><path class="cls-5" d="M282.38,124.77c-1-12.07-9.25-22.39-19.64-24.55a21.83,21.83,0,0,0-18.79,5.3,28.72,28.72,0,0,0-9.46,19.25l-4.88-.53A34.59,34.59,0,0,1,241,101a26.28,26.28,0,0,1,22.63-6.36c12.72,2.64,22.45,14.79,23.66,29.56Z"/><path class="cls-5" d="M247.68,124.77l-4.89-.53A18.79,18.79,0,0,1,249,111.65a14.23,14.23,0,0,1,12.27-3.45c6.9,1.43,12.18,8,12.84,16l-4.89.53c-.44-5.42-4.15-10.06-8.82-11a9.84,9.84,0,0,0-8.44,2.39A12.83,12.83,0,0,0,247.68,124.77Z"/><path class="cls-5" d="M379.49,124.77c-1.54-18.7-14.33-34.69-30.43-38C339,84.65,328.34,87.64,320,95a44.43,44.43,0,0,0-14.65,29.82l-4.89-.53C301.5,111,307.54,98.69,317,90.46s21.49-11.63,32.95-9.25c18.22,3.77,32.71,21.87,34.44,43Z"/><path class="cls-5" d="M366.34,124.77c-1-12.07-9.25-22.39-19.64-24.55a21.84,21.84,0,0,0-18.8,5.3,28.77,28.77,0,0,0-9.46,19.25l-4.88-.53A34.6,34.6,0,0,1,324.94,101a26.28,26.28,0,0,1,22.63-6.36c12.71,2.64,22.44,14.79,23.65,29.56Z"/><path class="cls-5" d="M331.63,124.77l-4.88-.53a18.73,18.73,0,0,1,6.17-12.59,14.25,14.25,0,0,1,12.28-3.45c6.9,1.43,12.18,8,12.83,16l-4.88.53c-.44-5.42-4.16-10.06-8.82-11a9.83,9.83,0,0,0-8.44,2.39A12.89,12.89,0,0,0,331.63,124.77Z"/><path class="cls-5" d="M408,85.48a42,42,0,0,0-7.06,5c-9.45,8.23-15.49,20.54-16.57,33.78l4.88.53A44.52,44.52,0,0,1,403.9,95a38.37,38.37,0,0,1,4.1-3.1Z"/><path class="cls-5" d="M408,101.9a34.73,34.73,0,0,0-10.48,22.34l4.88.53a29.34,29.34,0,0,1,5.6-15Z"/><path class="cls-5" d="M85.64,80.46c-1.53-18.69-14.33-34.68-30.43-38-10.1-2.1-20.71.89-29.1,8.2A44.45,44.45,0,0,0,11.46,80.46l-4.89-.52C7.66,66.7,13.7,54.39,23.14,46.16s21.49-11.64,33-9.26c18.22,3.78,32.7,21.87,34.44,43Z"/><path class="cls-5" d="M72.5,80.46c-1-12.07-9.25-22.39-19.65-24.54a21.8,21.8,0,0,0-18.79,5.3A28.74,28.74,0,0,0,24.6,80.46l-4.88-.52A34.58,34.58,0,0,1,31.1,56.73a26.25,26.25,0,0,1,22.62-6.35C66.44,53,76.17,65.17,77.38,79.94Z"/><path class="cls-5" d="M37.79,80.46l-4.88-.52a18.73,18.73,0,0,1,6.17-12.6A14.25,14.25,0,0,1,51.36,63.9c6.9,1.43,12.17,8,12.83,16l-4.88.52c-.45-5.42-4.16-10.06-8.83-11A9.81,9.81,0,0,0,42,71.82,13,13,0,0,0,37.79,80.46Z"/><path class="cls-5" d="M169.6,80.46c-1.53-18.69-14.33-34.68-30.43-38-10.11-2.1-20.72.89-29.11,8.2A44.54,44.54,0,0,0,95.41,80.46l-4.88-.52c1.08-13.24,7.12-25.55,16.57-33.78S128.58,34.52,140,36.9c18.22,3.78,32.71,21.87,34.44,43Z"/><path class="cls-5" d="M156.45,80.46c-1-12.07-9.25-22.39-19.64-24.54A21.8,21.8,0,0,0,118,61.22a28.66,28.66,0,0,0-9.46,19.24l-4.89-.52a34.67,34.67,0,0,1,11.38-23.21,26.28,26.28,0,0,1,22.63-6.35C150.4,53,160.12,65.17,161.33,79.94Z"/><path class="cls-5" d="M121.75,80.46l-4.89-.52A18.82,18.82,0,0,1,123,67.34a14.26,14.26,0,0,1,12.28-3.44c6.9,1.43,12.18,8,12.84,16l-4.89.52c-.44-5.42-4.15-10.06-8.82-11A9.8,9.8,0,0,0,126,71.82,12.88,12.88,0,0,0,121.75,80.46Z"/><path class="cls-5" d="M253.55,80.46c-1.53-18.69-14.33-34.68-30.43-38-10.1-2.1-20.71.89-29.1,8.2a44.45,44.45,0,0,0-14.65,29.82l-4.89-.52c1.09-13.24,7.13-25.55,16.57-33.78S212.54,34.52,224,36.9c18.22,3.78,32.7,21.87,34.44,43Z"/><path class="cls-5" d="M240.41,80.46c-1-12.07-9.25-22.39-19.65-24.54A21.8,21.8,0,0,0,202,61.22a28.74,28.74,0,0,0-9.46,19.24l-4.88-.52A34.58,34.58,0,0,1,199,56.73a26.25,26.25,0,0,1,22.62-6.35c12.72,2.63,22.45,14.79,23.66,29.56Z"/><path class="cls-5" d="M205.7,80.46l-4.88-.52A18.73,18.73,0,0,1,207,67.34a14.25,14.25,0,0,1,12.28-3.44c6.9,1.43,12.17,8,12.83,16l-4.88.52c-.45-5.42-4.16-10.06-8.83-11A9.81,9.81,0,0,0,210,71.82,13,13,0,0,0,205.7,80.46Z"/><path class="cls-5" d="M337.51,80.46c-1.53-18.69-14.33-34.68-30.43-38-10.11-2.1-20.72.89-29.11,8.2a44.54,44.54,0,0,0-14.65,29.82l-4.88-.52c1.08-13.24,7.12-25.55,16.57-33.78S296.49,34.52,308,36.9c18.22,3.78,32.71,21.87,34.44,43Z"/><path class="cls-5" d="M324.36,80.46c-1-12.07-9.25-22.39-19.64-24.54a21.8,21.8,0,0,0-18.79,5.3,28.66,28.66,0,0,0-9.46,19.24l-4.89-.52A34.67,34.67,0,0,1,283,56.73a26.28,26.28,0,0,1,22.63-6.35C318.31,53,328,65.17,329.24,79.94Z"/><path class="cls-5" d="M289.66,80.46l-4.89-.52a18.82,18.82,0,0,1,6.17-12.6,14.26,14.26,0,0,1,12.28-3.44c6.9,1.43,12.18,8,12.84,16l-4.89.52c-.44-5.42-4.15-10.06-8.82-11a9.8,9.8,0,0,0-8.44,2.38A12.88,12.88,0,0,0,289.66,80.46Z"/><path class="cls-5" d="M408,44.61a38.57,38.57,0,0,0-16.09-7.71c-11.46-2.38-23.47,1-33,9.26S343.48,66.7,342.39,79.94l4.89.52a44.45,44.45,0,0,1,14.65-29.82c8.39-7.31,19-10.3,29.1-8.2a34.87,34.87,0,0,1,17,9.23Z"/><path class="cls-5" d="M408,63.93c-4.28-6.94-10.82-12-18.45-13.55a26.27,26.27,0,0,0-22.63,6.35,34.58,34.58,0,0,0-11.38,23.21l4.88.52a28.74,28.74,0,0,1,9.46-19.24,21.8,21.8,0,0,1,18.79-5.3C398.35,57.92,406.17,67,408,78Z"/><path class="cls-5" d="M373.61,80.46l-4.88-.52a18.73,18.73,0,0,1,6.17-12.6,14.25,14.25,0,0,1,12.28-3.44c6.9,1.43,12.17,8,12.83,16l-4.88.52c-.45-5.42-4.16-10.06-8.83-11a9.81,9.81,0,0,0-8.44,2.38A13,13,0,0,0,373.61,80.46Z"/><path class="cls-5" d="M14.11-2.79a36.75,36.75,0,0,0-8.28-.72V2.12a32,32,0,0,1,7.41.63c16.1,3.34,28.89,19.33,30.42,38l4.89-.53C46.81,19.09,32.33,1,14.11-2.79Z"/><path class="cls-5" d="M11.75,10.69a24.14,24.14,0,0,0-5.92-.49v5.64a20,20,0,0,1,5.05.39c10.39,2.16,18.65,12.48,19.64,24.55l4.88-.53C34.19,25.48,24.46,13.33,11.75,10.69Z"/><path class="cls-5" d="M9.38,24.21A13.27,13.27,0,0,0,5.83,24v5.64a9.29,9.29,0,0,1,2.68.13c4.66,1,8.38,5.61,8.82,11l4.88-.53C21.56,32.24,16.28,25.64,9.38,24.21Z"/><path class="cls-5" d="M127.62,40.78c-1.53-18.7-14.33-34.69-30.43-38C87.08.66,76.47,3.65,68.08,11A44.5,44.5,0,0,0,53.43,40.78l-4.88-.53C49.63,27,55.67,14.7,65.12,6.47S86.61-5.16,98.06-2.79c18.23,3.78,32.71,21.88,34.44,43Z"/><path class="cls-5" d="M114.47,40.78c-1-12.07-9.25-22.39-19.64-24.55A21.83,21.83,0,0,0,76,21.53a28.72,28.72,0,0,0-9.46,19.25l-4.88-.53a34.59,34.59,0,0,1,11.37-23.2A26.28,26.28,0,0,1,95.7,10.69c12.72,2.64,22.45,14.79,23.66,29.56Z"/><path class="cls-5" d="M79.77,40.78l-4.89-.53a18.83,18.83,0,0,1,6.18-12.6,14.26,14.26,0,0,1,12.27-3.44c6.9,1.43,12.18,8,12.84,16l-4.89.53c-.44-5.42-4.15-10.06-8.82-11A9.84,9.84,0,0,0,84,32.14,12.83,12.83,0,0,0,79.77,40.78Z"/><path class="cls-5" d="M211.57,40.78c-1.53-18.7-14.32-34.69-30.42-38C171,.66,160.43,3.65,152,11a44.41,44.41,0,0,0-14.65,29.82l-4.89-.53C133.59,27,139.63,14.7,149.07,6.47s21.49-11.63,33-9.26c18.22,3.78,32.7,21.88,34.44,43Z"/><path class="cls-5" d="M198.43,40.78c-1-12.07-9.25-22.39-19.64-24.55a21.84,21.84,0,0,0-18.8,5.3,28.77,28.77,0,0,0-9.46,19.25l-4.88-.53A34.6,34.6,0,0,1,157,17.05a26.28,26.28,0,0,1,22.63-6.36c12.71,2.64,22.44,14.79,23.65,29.56Z"/><path class="cls-5" d="M163.72,40.78l-4.88-.53A18.78,18.78,0,0,1,165,27.65a14.28,14.28,0,0,1,12.28-3.44c6.9,1.43,12.18,8,12.83,16l-4.88.53c-.44-5.42-4.16-10.06-8.82-11A9.83,9.83,0,0,0,168,32.14,12.89,12.89,0,0,0,163.72,40.78Z"/><path class="cls-5" d="M295.53,40.78C294,22.08,281.2,6.09,265.1,2.75,255,.66,244.38,3.65,236,11a44.5,44.5,0,0,0-14.65,29.82l-4.88-.53C217.54,27,223.58,14.7,233,6.47S254.52-5.16,266-2.79c18.23,3.78,32.71,21.88,34.44,43Z"/><path class="cls-5" d="M282.38,40.78c-1-12.07-9.25-22.39-19.64-24.55A21.83,21.83,0,0,0,244,21.53a28.72,28.72,0,0,0-9.46,19.25l-4.88-.53A34.59,34.59,0,0,1,241,17.05a26.28,26.28,0,0,1,22.63-6.36c12.72,2.64,22.45,14.79,23.66,29.56Z"/><path class="cls-5" d="M247.68,40.78l-4.89-.53A18.83,18.83,0,0,1,249,27.65a14.26,14.26,0,0,1,12.27-3.44c6.9,1.43,12.18,8,12.84,16l-4.89.53c-.44-5.42-4.15-10.06-8.82-11a9.84,9.84,0,0,0-8.44,2.39A12.83,12.83,0,0,0,247.68,40.78Z"/><path class="cls-5" d="M379.49,40.78c-1.54-18.7-14.33-34.69-30.43-38C339,.66,328.34,3.65,320,11A44.41,44.41,0,0,0,305.3,40.78l-4.89-.53C301.5,27,307.54,14.7,317,6.47s21.49-11.63,32.95-9.26c18.22,3.78,32.71,21.88,34.44,43Z"/><path class="cls-5" d="M366.34,40.78c-1-12.07-9.25-22.39-19.64-24.55a21.84,21.84,0,0,0-18.8,5.3,28.77,28.77,0,0,0-9.46,19.25l-4.88-.53a34.6,34.6,0,0,1,11.38-23.2,26.28,26.28,0,0,1,22.63-6.36c12.71,2.64,22.44,14.79,23.65,29.56Z"/><path class="cls-5" d="M331.63,40.78l-4.88-.53a18.78,18.78,0,0,1,6.17-12.6,14.28,14.28,0,0,1,12.28-3.44c6.9,1.43,12.18,8,12.83,16l-4.88.53c-.44-5.42-4.16-10.06-8.82-11a9.83,9.83,0,0,0-8.44,2.39A12.89,12.89,0,0,0,331.63,40.78Z"/><path class="cls-5" d="M408,1.48a42.09,42.09,0,0,0-7.06,5C391.49,14.7,385.45,27,384.37,40.25l4.88.53A44.5,44.5,0,0,1,403.9,11a38.37,38.37,0,0,1,4.1-3.1Z"/><path class="cls-5" d="M408,17.91a34.73,34.73,0,0,0-10.48,22.34l4.88.53a29.34,29.34,0,0,1,5.6-15Z"/></g></g><path class="cls-6" d="M196.71,159.36l.13,0-.08-.09Z"/><path class="cls-7" d="M389.84,35.42V11h-20V23.33h-5.33V11H349V35.65H335.23V30.49h10.21V11H332.57V27.44H319.69V11.84H80.8v15.6H67.92V11H55.05V30.49H65.26v5.16H51.5V11H36V23.33H30.63V11h-20V35.42h9.77v6.25H10.65V63.89h18.2V80.55H25.3V66.31H10.65V83.6h12V96.43H14.2v0H10.65V552.16h12V565h-12v17.29H25.3V568h3.55v16.65H10.65v22.22h9.77v6.26H10.65v24.41h20V625.26H36v12.32H51.5V612.94H65.26v5.15H55.05v19.49H67.92V621.15H80.8v15.59h0v1.42H318.5v-.4h0V622.17h12.88v16.42h12.87V619.11H334V614h13.77v24.64h15.54V626.27h5.33v12.32h20V614.18h-9.77v-6.25h9.77V585.71h-18.2V569.06H374v14.23h14.65V566h-12V553.18h12V96.43H377.86V83.6h12V66.31H375.19V80.55h-3.55V63.89h18.2V41.67h-9.76V35.42ZM335.23,14.07h7.55V27.44h-7.55ZM22.64,579.22H13.31V568h9.33Zm42.62,55.3H57.71V621.15h7.55ZM377.86,69.37h9.32V80.55h-9.32Zm-5.33-43h4.88v6h-4.88ZM57.71,27.44V14.07h7.55V27.44ZM38.62,26.39h4v6h-4Zm-25.31,6V14.07H28v9.26H20.42v9Zm14.66-6v6H23.08v-6ZM23.08,44.73h4.44v8.44H23.08ZM13.31,80.55V69.37h9.33V80.55ZM28,634.52H13.31v-18.3h7.11v9H28Zm0-12.32H23.08v-6H28Zm313.62,0v13.37H334V622.17Zm19.09,1.05h-4v-6h4Zm25.31-6v18.3H371.34v-9.27h7.54v-9Zm-14.65,6v-6h4.88v6Zm4.88-18.34h-4.44v-8.45h4.44ZM386,569.06v11.18h-9.32V569.06Zm1.19-524.33V60.84H369V83.6h6.21V99.48h9.91V550.12H374V566h-6.21v22.77H386v16.11h-7.11v-11.5h-9.76v14.55h7.1v6.25h-7.54v9h-5.33v-9H354v12.09h6.66v9.27H350.47V610.9H331.38v8.21H315.84v15H83.46v-16H67.92v-8.21H48.83v24.64H38.62v-9.26h6.66V613.17H36v9H30.63v-9H23.08v-6.26h7.1V592.36H20.42v11.5H13.31V587.75H31.52V565H25.3V549.1H14.2V99.48H25.3V83.6h6.22V60.84H13.31V44.73h7.11v11.5h9.76V41.67h-7.1V35.42h7.55v-9H36v9h9.32V23.33H38.62V14.07H48.83V38.7H67.92V30.49H83.46V15.92H317V30.49h15.54V38.7h19.09V14.07h10.21v9.26h-6.66V35.42h9.33v-9h5.33v9h7.54v6.25h-7.1V56.23h9.77V44.73ZM38.62,622.2v-6h4v6ZM23.08,603.86v-8.44h4.44v8.44ZM361.87,26.39v6h-4v-6Zm15.54,18.34v8.44H373V44.73Zm-4.88-21.4V14.07h14.65V32.36h-7.1v-9Z"/></svg>