<svg id="圖層_1" data-name="圖層 1" xmlns="http://www.w3.org/2000/svg" xmlns:xlink="http://www.w3.org/1999/xlink" viewBox="0 0 250 400"><defs><style>.cls-1{fill:none;}.cls-2{fill:url(#未命名漸層_2);}.cls-3{opacity:0.47;}.cls-4{clip-path:url(#clip-path);}.cls-5{fill:#911010;}.cls-6{fill:url(#未命名漸層_6);}.cls-7{fill:url(#未命名漸層_6-2);}.cls-8{fill:url(#未命名漸層_6-3);}.cls-9{fill:url(#未命名漸層_7);}.cls-10{fill:url(#未命名漸層_6-4);}.cls-11{fill:url(#未命名漸層_7-2);}.cls-12{fill:url(#未命名漸層_23);}.cls-13{opacity:0.38;}.cls-14{fill:#6b4c2d;}.cls-15,.cls-18,.cls-21,.cls-24,.cls-27,.cls-30{opacity:0.39;}.cls-15,.cls-16,.cls-18,.cls-19,.cls-21,.cls-22,.cls-24,.cls-25,.cls-27,.cls-28,.cls-30,.cls-31{isolation:isolate;}.cls-15{fill:url(#未命名漸層_25);}.cls-16,.cls-19,.cls-22,.cls-25,.cls-28,.cls-31{opacity:0.54;}.cls-16{fill:url(#未命名漸層_25-2);}.cls-17{fill:url(#未命名漸層_23-2);}.cls-18,.cls-19{fill:url(#未命名漸層_25-3);}.cls-20{fill:url(#未命名漸層_23-3);}.cls-21{fill:url(#未命名漸層_25-5);}.cls-22{fill:url(#未命名漸層_25-6);}.cls-23{fill:url(#未命名漸層_23-4);}.cls-24{fill:url(#未命名漸層_25-7);}.cls-25{fill:url(#未命名漸層_25-8);}.cls-26{fill:url(#未命名漸層_23-5);}.cls-27{fill:url(#未命名漸層_25-9);}.cls-28{fill:url(#未命名漸層_25-10);}.cls-29{fill:url(#未命名漸層_23-6);}.cls-30{fill:url(#未命名漸層_25-11);}.cls-31{fill:url(#未命名漸層_25-12);}</style><linearGradient id="未命名漸層_2" x1="125.06" y1="31.47" x2="125.06" y2="535.68" gradientTransform="matrix(1, 0, 0, -1, 0, 402)" gradientUnits="userSpaceOnUse"><stop offset="0" stop-color="#500"/><stop offset="1" stop-color="#fc5000"/></linearGradient><clipPath id="clip-path"><rect class="cls-1" x="0.12" width="249.88" height="400"/></clipPath><linearGradient id="未命名漸層_6" x1="125.57" y1="188.04" x2="125.65" y2="188.04" gradientTransform="matrix(1, 0, 0, -1, 0, 402)" gradientUnits="userSpaceOnUse"><stop offset="0.01" stop-color="#ebc17d"/><stop offset="0.19" stop-color="#edd089"/><stop offset="0.41" stop-color="#f4e8d9"/><stop offset="0.73" stop-color="#c08329"/><stop offset="0.95" stop-color="#eabe81"/></linearGradient><linearGradient id="未命名漸層_6-2" x1="6.78" y1="202.51" x2="243.78" y2="202.51" xlink:href="#未命名漸層_6"/><linearGradient id="未命名漸層_6-3" x1="27.09" y1="137.26" x2="82.47" y2="137.26" xlink:href="#未命名漸層_6"/><radialGradient id="未命名漸層_7" cx="53.16" cy="265.01" r="22.37" gradientTransform="translate(0 -0.58) scale(1.02 1)" gradientUnits="userSpaceOnUse"><stop offset="0" stop-color="#faaa17"/><stop offset="0.4" stop-color="#e18717"/><stop offset="0.78" stop-color="#cf6d18"/><stop offset="1" stop-color="#c86318"/></radialGradient><linearGradient id="未命名漸層_6-4" x1="176.93" y1="41.21" x2="220.44" y2="41.21" xlink:href="#未命名漸層_6"/><radialGradient id="未命名漸層_7-2" cx="194.83" cy="360.85" r="17.62" xlink:href="#未命名漸層_7"/><linearGradient id="未命名漸層_23" x1="38.37" y1="-175.13" x2="100.53" y2="-175.13" gradientTransform="matrix(0.5, 0.87, 0.87, -0.5, 242.07, 152.91)" gradientUnits="userSpaceOnUse"><stop offset="0.01" stop-color="#fbc926"/><stop offset="0.34" stop-color="#f3e6ad"/><stop offset="0.43" stop-color="#e3ca82"/><stop offset="0.6" stop-color="#c3922e"/><stop offset="0.87" stop-color="#eed688"/><stop offset="1" stop-color="#fffbcc"/></linearGradient><linearGradient id="未命名漸層_25" x1="54.79" y1="-175.12" x2="84.12" y2="-175.12" gradientTransform="matrix(0.5, 0.87, 0.87, -0.5, 242.07, 152.91)" gradientUnits="userSpaceOnUse"><stop offset="0.01" stop-color="#401617"/><stop offset="0.24" stop-color="#6b4c2d"/><stop offset="0.62" stop-color="#a58a55"/><stop offset="0.8" stop-color="#967857"/><stop offset="0.96" stop-color="#814f2f"/></linearGradient><linearGradient id="未命名漸層_25-2" x1="54.8" y1="-175.19" x2="83.92" y2="-175.19" xlink:href="#未命名漸層_25"/><linearGradient id="未命名漸層_23-2" x1="55.21" y1="91.06" x2="104.32" y2="91.06" gradientTransform="matrix(1, 0, 0, -1, 0, 402)" xlink:href="#未命名漸層_23"/><linearGradient id="未命名漸層_25-3" x1="68.26" y1="91.06" x2="91.28" y2="91.06" gradientTransform="matrix(1, 0, 0, -1, 0, 402)" xlink:href="#未命名漸層_25"/><linearGradient id="未命名漸層_23-3" x1="40.34" y1="-289.89" x2="106.57" y2="-289.89" gradientTransform="matrix(0.71, 0.71, 0.71, -0.71, 324.11, 56.1)" xlink:href="#未命名漸層_23"/><linearGradient id="未命名漸層_25-5" x1="57.82" y1="-289.89" x2="89.1" y2="-289.89" gradientTransform="matrix(0.71, 0.71, 0.71, -0.71, 324.11, 56.1)" xlink:href="#未命名漸層_25"/><linearGradient id="未命名漸層_25-6" x1="57.82" y1="-290.01" x2="88.86" y2="-290.01" gradientTransform="matrix(0.71, 0.71, 0.71, -0.71, 324.11, 56.1)" xlink:href="#未命名漸層_25"/><linearGradient id="未命名漸層_23-4" x1="95.38" y1="77.63" x2="143.07" y2="77.63" gradientTransform="matrix(1, 0, 0, -1, 0, 402)" xlink:href="#未命名漸層_23"/><linearGradient id="未命名漸層_25-7" x1="108.07" y1="77.63" x2="130.42" y2="77.63" gradientTransform="matrix(1, 0, 0, -1, 0, 402)" xlink:href="#未命名漸層_25"/><linearGradient id="未命名漸層_25-8" x1="108.06" y1="77.63" x2="130.42" y2="77.63" gradientTransform="matrix(1, 0, 0, -1, 0, 402)" xlink:href="#未命名漸層_25"/><linearGradient id="未命名漸層_23-5" x1="33.7" y1="-321.44" x2="58.18" y2="-321.44" gradientTransform="matrix(0.46, 0.89, 0.89, -0.46, 354.54, 146.01)" xlink:href="#未命名漸層_23"/><linearGradient id="未命名漸層_25-9" x1="40.2" y1="-321.45" x2="51.71" y2="-321.45" gradientTransform="matrix(0.46, 0.89, 0.89, -0.46, 354.54, 146.01)" xlink:href="#未命名漸層_25"/><linearGradient id="未命名漸層_25-10" x1="40.2" y1="-321.47" x2="51.65" y2="-321.47" gradientTransform="matrix(0.46, 0.89, 0.89, -0.46, 354.54, 146.01)" xlink:href="#未命名漸層_25"/><linearGradient id="未命名漸層_23-6" x1="257.83" y1="202.7" x2="288.55" y2="202.7" gradientTransform="matrix(0.96, -0.29, -0.29, -0.96, -57.96, 612.52)" xlink:href="#未命名漸層_23"/><linearGradient id="未命名漸層_25-11" x1="265.94" y1="202.7" x2="280.4" y2="202.7" gradientTransform="matrix(0.96, -0.29, -0.29, -0.96, -57.96, 612.52)" xlink:href="#未命名漸層_25"/><linearGradient id="未命名漸層_25-12" x1="265.94" y1="202.67" x2="280.4" y2="202.67" gradientTransform="matrix(0.96, -0.29, -0.29, -0.96, -57.96, 612.52)" xlink:href="#未命名漸層_25"/></defs><rect class="cls-2" x="0.12" width="249.88" height="400"/><g class="cls-3"><g class="cls-4"><path class="cls-5" d="M53.66,411c-1-11.51-9-21.35-19-23.39a21.39,21.39,0,0,0-18.2,5A27.23,27.23,0,0,0,7.3,411l-3.06-.33A30.89,30.89,0,0,1,14.6,389.85a24.21,24.21,0,0,1,20.62-5.7c11.39,2.32,20.44,13.46,21.52,26.46Z"/><path class="cls-5" d="M45.44,411c-.62-7.43-5.78-13.78-12.28-15.11a13.76,13.76,0,0,0-11.74,3.26A17.6,17.6,0,0,0,15.51,411l-3.06-.33a21.16,21.16,0,0,1,7.12-14.28,16.58,16.58,0,0,1,14.13-3.91c7.95,1.62,14,9.1,14.78,18.19Z"/><path class="cls-5" d="M106.13,411c-1-11.51-9-21.35-19-23.39a21.36,21.36,0,0,0-18.19,5A27.3,27.3,0,0,0,59.76,411l-3-.33a30.77,30.77,0,0,1,10.36-20.78,24.17,24.17,0,0,1,20.58-5.7c11.39,2.32,20.44,13.46,21.53,26.46Z"/><path class="cls-5" d="M97.91,411c-.63-7.43-5.78-13.78-12.28-15.11a13.76,13.76,0,0,0-11.74,3.26A17.56,17.56,0,0,0,68,411l-3.06-.33A21.25,21.25,0,0,1,72,396.35a16.58,16.58,0,0,1,14.16-3.91c8,1.62,14,9.1,14.78,18.19Z"/><path class="cls-5" d="M158.59,411c-1-11.51-9-21.35-19-23.39a21.36,21.36,0,0,0-18.19,5A27.22,27.22,0,0,0,112.23,411l-3-.33a30.82,30.82,0,0,1,10.35-20.78,24.19,24.19,0,0,1,20.59-5.7c11.39,2.32,20.44,13.46,21.53,26.46Z"/><path class="cls-5" d="M150.38,411c-.63-7.43-5.78-13.78-12.28-15.11a13.74,13.74,0,0,0-11.74,3.26A17.61,17.61,0,0,0,120.44,411l-3-.33a21.16,21.16,0,0,1,7.12-14.28,16.6,16.6,0,0,1,14.14-3.91c7.94,1.62,14,9.1,14.78,18.19Z"/><path class="cls-5" d="M211.06,411c-1-11.51-9-21.35-19-23.39a21.36,21.36,0,0,0-18.19,5A27.27,27.27,0,0,0,164.7,411l-3-.33A30.78,30.78,0,0,1,172,389.86a24.19,24.19,0,0,1,20.59-5.7c11.38,2.32,20.44,13.46,21.52,26.46Z"/><path class="cls-5" d="M202.84,411c-.62-7.43-5.78-13.78-12.27-15.11a13.74,13.74,0,0,0-11.74,3.26A17.53,17.53,0,0,0,172.91,411l-3-.33A21.2,21.2,0,0,1,177,396.35a16.61,16.61,0,0,1,14.14-3.91c7.95,1.62,14,9.1,14.79,18.19Z"/><path class="cls-5" d="M255.11,388.92a23.52,23.52,0,0,0-30.65.95,30.69,30.69,0,0,0-10.35,20.76l3.06.33a27.23,27.23,0,0,1,9.15-18.35,21.36,21.36,0,0,1,18.19-5,21.91,21.91,0,0,1,10.63,5.67Z"/><path class="cls-5" d="M255.11,400.78a18,18,0,0,0-11.53-8.34,16.61,16.61,0,0,0-14.14,3.91,21.15,21.15,0,0,0-7.11,14.28l3,.33a17.56,17.56,0,0,1,5.91-11.85A13.74,13.74,0,0,1,243,395.85c6.05,1.23,10.94,6.82,12.08,13.58Z"/><path class="cls-5" d="M9,359.72a21.86,21.86,0,0,0-5.17-.44v3.46a20,20,0,0,1,4.63.39c10.06,2.05,18.06,11.9,19,23.39l3.05-.32C29.4,373.18,20.34,362.05,9,359.72Z"/><path class="cls-5" d="M7.45,368a15.74,15.74,0,0,0-3.69-.31v3.47a12.85,12.85,0,0,1,3.15.25c6.49,1.32,11.66,7.68,12.27,15.1l3.05-.32C21.5,377.12,15.43,369.63,7.45,368Z"/><path class="cls-5" d="M6,376.34a8.28,8.28,0,0,0-2.22-.15v3.5a5.5,5.5,0,0,1,1.67.08A7.47,7.47,0,0,1,11,386.54l3-.32C13.61,381.27,10.31,377.23,6,376.34Z"/><path class="cls-5" d="M79.89,386.53c-1-11.51-9-21.35-19-23.39a21.35,21.35,0,0,0-18.19,5.05,27.23,27.23,0,0,0-9.15,18.35l-3.05-.32a30.85,30.85,0,0,1,10.35-20.8,24.26,24.26,0,0,1,20.59-5.7c11.39,2.33,20.44,13.46,21.52,26.46Z"/><path class="cls-5" d="M71.67,386.53c-.62-7.42-5.78-13.78-12.27-15.11a13.78,13.78,0,0,0-11.74,3.27,17.53,17.53,0,0,0-5.91,11.84l-3-.32a21.18,21.18,0,0,1,7.11-14.29A16.57,16.57,0,0,1,60,368c8,1.62,14,9.1,14.79,18.19Z"/><path class="cls-5" d="M50,386.53l-3.05-.32a11.5,11.5,0,0,1,3.85-7.75,9,9,0,0,1,7.67-2.12c4.31.88,7.61,4.93,8,9.85l-3.06.32a7.39,7.39,0,0,0-5.51-6.77,6.19,6.19,0,0,0-5.28,1.47A7.9,7.9,0,0,0,50,386.53Z"/><path class="cls-5" d="M132.36,386.53c-1-11.51-9-21.35-19-23.39a21.35,21.35,0,0,0-18.19,5.05A27.23,27.23,0,0,0,86,386.54l-3.06-.32A30.88,30.88,0,0,1,93.3,365.43a24.19,24.19,0,0,1,20.59-5.7c11.38,2.33,20.44,13.47,21.52,26.47Z"/><path class="cls-5" d="M124.14,386.53c-.62-7.42-5.78-13.78-12.27-15.11a13.78,13.78,0,0,0-11.74,3.27,17.49,17.49,0,0,0-5.91,11.84l-3.06-.32a21.22,21.22,0,0,1,7.11-14.29A16.61,16.61,0,0,1,112.44,368c8,1.62,14,9.1,14.78,18.19Z"/><path class="cls-5" d="M102.45,386.53l-3-.32a11.47,11.47,0,0,1,3.86-7.75,9,9,0,0,1,7.67-2.12c4.31.88,7.61,4.93,8,9.85l-3,.32a7.39,7.39,0,0,0-5.51-6.77,6.19,6.19,0,0,0-5.28,1.47A7.87,7.87,0,0,0,102.45,386.53Z"/><path class="cls-5" d="M184.83,386.53c-1-11.51-9-21.35-19-23.39a21.34,21.34,0,0,0-18.19,5.05,27.2,27.2,0,0,0-9.16,18.35l-3.05-.32a30.83,30.83,0,0,1,10.36-20.79,24.17,24.17,0,0,1,20.58-5.7c11.39,2.33,20.44,13.47,21.52,26.47Z"/><path class="cls-5" d="M176.61,386.53c-.63-7.42-5.78-13.78-12.28-15.11a13.8,13.8,0,0,0-11.74,3.27,17.53,17.53,0,0,0-5.91,11.84l-3.05-.32a21.18,21.18,0,0,1,7.11-14.29A16.57,16.57,0,0,1,164.88,368c8,1.62,14,9.1,14.78,18.19Z"/><path class="cls-5" d="M154.94,386.53l-3.05-.32a11.49,11.49,0,0,1,3.86-7.76,9,9,0,0,1,7.66-2.11c4.32.88,7.62,4.92,8,9.84l-3.05.32a7.43,7.43,0,0,0-5.52-6.77,6.2,6.2,0,0,0-5.27,1.47A7.93,7.93,0,0,0,154.94,386.53Z"/><path class="cls-5" d="M237.29,386.53c-1-11.51-8.95-21.35-19-23.39a21.34,21.34,0,0,0-18.19,5.05,27.2,27.2,0,0,0-9.16,18.35l-3.06-.32a30.92,30.92,0,0,1,10.36-20.79,24.22,24.22,0,0,1,20.62-5.7c11.39,2.33,20.44,13.47,21.53,26.47Z"/><path class="cls-5" d="M229.08,386.53c-.63-7.42-5.78-13.78-12.28-15.11a13.8,13.8,0,0,0-11.74,3.27,17.53,17.53,0,0,0-5.91,11.84l-3.06-.32a21.22,21.22,0,0,1,7.11-14.29A16.6,16.6,0,0,1,217.35,368c8,1.62,14,9.1,14.78,18.19Z"/><path class="cls-5" d="M207.39,386.53l-3-.32a11.52,11.52,0,0,1,3.85-7.76,9,9,0,0,1,7.68-2.11c4.31.88,7.61,4.92,8,9.84l-3,.32a7.41,7.41,0,0,0-5.51-6.77,6.17,6.17,0,0,0-5.27,1.47A7.85,7.85,0,0,0,207.39,386.53Z"/><path class="cls-5" d="M255.11,362.35a26.35,26.35,0,0,0-4.41,3.07,30.86,30.86,0,0,0-10.36,20.79l3,.32a27.3,27.3,0,0,1,9.16-18.35,24.93,24.93,0,0,1,2.56-1.9Z"/><path class="cls-5" d="M255.11,372.46a21.23,21.23,0,0,0-6.55,13.75l3.05.32a17.92,17.92,0,0,1,3.5-9.23Z"/><path class="cls-5" d="M53.66,359.26c-1-11.51-9-21.35-19-23.38a21.33,21.33,0,0,0-18.2,5A27.19,27.19,0,0,0,7.3,359.28L4.24,359a30.92,30.92,0,0,1,10.36-20.8,24.21,24.21,0,0,1,20.62-5.7c11.39,2.32,20.44,13.46,21.52,26.46Z"/><path class="cls-5" d="M45.44,359.26c-.62-7.43-5.78-13.78-12.28-15.11a13.8,13.8,0,0,0-11.74,3.27,17.6,17.6,0,0,0-5.91,11.84l-3.06-.32a21.14,21.14,0,0,1,7.12-14.28,16.62,16.62,0,0,1,14.13-3.92c7.95,1.63,14,9.11,14.78,18.2Z"/><path class="cls-5" d="M23.75,359.26l-3.05-.32a11.45,11.45,0,0,1,3.86-7.75,9,9,0,0,1,7.67-2.12c4.32.88,7.61,4.92,8,9.84l-3,.33a7.41,7.41,0,0,0-5.52-6.77,6.21,6.21,0,0,0-5.27,1.47A7.93,7.93,0,0,0,23.75,359.26Z"/><path class="cls-5" d="M106.13,359.26c-1-11.51-9-21.35-19-23.38a21.3,21.3,0,0,0-18.19,5,27.28,27.28,0,0,0-9.16,18.34l-3-.32a30.81,30.81,0,0,1,10.36-20.79,24.17,24.17,0,0,1,20.58-5.7c11.39,2.32,20.44,13.46,21.53,26.46Z"/><path class="cls-5" d="M97.91,359.26c-.63-7.43-5.78-13.78-12.28-15.11a13.8,13.8,0,0,0-11.74,3.27A17.53,17.53,0,0,0,68,359.26l-3.06-.32A21.21,21.21,0,0,1,72,344.66a16.61,16.61,0,0,1,14.16-3.92c8,1.63,14,9.11,14.78,18.2Z"/><path class="cls-5" d="M76.2,359.26l-3.06-.32A11.55,11.55,0,0,1,77,351.19a9,9,0,0,1,7.67-2.12c4.31.88,7.61,4.92,8,9.84l-3.06.33a7.39,7.39,0,0,0-5.51-6.77,6.22,6.22,0,0,0-5.28,1.47A7.88,7.88,0,0,0,76.2,359.26Z"/><path class="cls-5" d="M158.59,359.26c-1-11.51-9-21.35-19-23.38a21.3,21.3,0,0,0-18.19,5,27.2,27.2,0,0,0-9.16,18.36l-3-.33a30.84,30.84,0,0,1,10.35-20.79,24.19,24.19,0,0,1,20.59-5.7c11.39,2.33,20.44,13.47,21.53,26.46Z"/><path class="cls-5" d="M150.38,359.26c-.63-7.43-5.78-13.78-12.28-15.11a13.78,13.78,0,0,0-11.74,3.27,17.61,17.61,0,0,0-5.92,11.84l-3-.32a21.14,21.14,0,0,1,7.12-14.28,16.57,16.57,0,0,1,14.14-3.92c7.94,1.63,14,9.11,14.78,18.2Z"/><path class="cls-5" d="M128.69,359.26l-3-.32a11.45,11.45,0,0,1,3.86-7.75,9,9,0,0,1,7.67-2.12c4.32.88,7.61,4.92,8,9.84l-3.05.33a7.41,7.41,0,0,0-5.52-6.77,6.21,6.21,0,0,0-5.27,1.47A7.93,7.93,0,0,0,128.69,359.26Z"/><path class="cls-5" d="M211.06,359.26c-1-11.51-9-21.35-19-23.38a21.3,21.3,0,0,0-18.19,5,27.25,27.25,0,0,0-9.15,18.36l-3-.33A30.8,30.8,0,0,1,172,338.16a24.19,24.19,0,0,1,20.59-5.7c11.38,2.33,20.44,13.47,21.52,26.46Z"/><path class="cls-5" d="M202.84,359.26c-.62-7.43-5.78-13.78-12.27-15.11a13.78,13.78,0,0,0-11.74,3.27,17.5,17.5,0,0,0-5.92,11.84l-3-.32A21.2,21.2,0,0,1,177,344.66a16.58,16.58,0,0,1,14.14-3.92c7.95,1.63,14,9.11,14.79,18.2Z"/><path class="cls-5" d="M181.19,359.26l-3.06-.32a11.55,11.55,0,0,1,3.86-7.75,9,9,0,0,1,7.67-2.12c4.31.88,7.61,4.92,8,9.84l-3.06.33a7.39,7.39,0,0,0-5.51-6.77,6.22,6.22,0,0,0-5.28,1.47A7.88,7.88,0,0,0,181.19,359.26Z"/><path class="cls-5" d="M255.11,337.22a23.48,23.48,0,0,0-30.65.95,30.71,30.71,0,0,0-10.35,20.77l3.06.32a27.12,27.12,0,0,1,9.15-18.34,21.34,21.34,0,0,1,18.19-5.05,22,22,0,0,1,10.63,5.67Z"/><path class="cls-5" d="M255.11,349.09a18,18,0,0,0-11.53-8.35,16.58,16.58,0,0,0-14.14,3.92,21.09,21.09,0,0,0-7.11,14.28l3,.32a17.55,17.55,0,0,1,5.91-11.84A13.78,13.78,0,0,1,243,344.15c6.05,1.23,10.94,6.83,12.08,13.59Z"/><path class="cls-5" d="M233.62,359.26l-3.05-.32a11.45,11.45,0,0,1,3.86-7.75,9,9,0,0,1,7.67-2.12c4.31.88,7.61,4.92,8,9.84l-3.05.33a7.41,7.41,0,0,0-5.52-6.77,6.2,6.2,0,0,0-5.27,1.47A7.93,7.93,0,0,0,233.62,359.26Z"/><path class="cls-5" d="M9,308a22.41,22.41,0,0,0-5.17-.45v3.47a20,20,0,0,1,4.63.39c10.06,2.05,18.06,11.89,19,23.38l3.05-.32C29.4,321.49,20.34,310.35,9,308Z"/><path class="cls-5" d="M7.45,316.3A15.74,15.74,0,0,0,3.76,316v3.47a13.36,13.36,0,0,1,3.15.25c6.49,1.32,11.66,7.67,12.27,15.1l3.05-.32C21.5,325.43,15.43,317.94,7.45,316.3Z"/><path class="cls-5" d="M6,324.64a8.7,8.7,0,0,0-2.22-.14V328a5.85,5.85,0,0,1,1.67.09A7.45,7.45,0,0,1,11,334.85l3-.32C13.61,329.58,10.31,325.53,6,324.64Z"/><path class="cls-5" d="M79.89,334.84c-1-11.51-9-21.35-19-23.39a21.35,21.35,0,0,0-18.19,5.05,27.23,27.23,0,0,0-9.15,18.35l-3.05-.32a30.8,30.8,0,0,1,10.35-20.79A24.19,24.19,0,0,1,61.42,308c11.39,2.33,20.44,13.46,21.52,26.46Z"/><path class="cls-5" d="M71.67,334.84c-.62-7.43-5.78-13.78-12.27-15.11A13.8,13.8,0,0,0,47.66,323a17.58,17.58,0,0,0-5.91,11.85l-3-.32a21.18,21.18,0,0,1,7.11-14.29A16.58,16.58,0,0,1,60,316.3c8,1.62,14,9.1,14.79,18.19Z"/><path class="cls-5" d="M50,334.84l-3.05-.32a11.48,11.48,0,0,1,3.85-7.76,9,9,0,0,1,7.67-2.12c4.31.88,7.61,4.93,8,9.85l-3.06.32A7.44,7.44,0,0,0,57.92,328a6.19,6.19,0,0,0-5.28,1.47A7.88,7.88,0,0,0,50,334.84Z"/><path class="cls-5" d="M132.36,334.84c-1-11.51-9-21.35-19-23.39a21.35,21.35,0,0,0-18.19,5.05A27.23,27.23,0,0,0,86,334.85l-3.06-.32A30.86,30.86,0,0,1,93.3,313.74a24.19,24.19,0,0,1,20.59-5.7c11.38,2.33,20.44,13.46,21.52,26.46Z"/><path class="cls-5" d="M124.14,334.84c-.62-7.43-5.78-13.78-12.27-15.11A13.8,13.8,0,0,0,100.13,323a17.51,17.51,0,0,0-5.91,11.85l-3.06-.32a21.22,21.22,0,0,1,7.11-14.29,16.58,16.58,0,0,1,14.17-3.93c8,1.62,14,9.1,14.78,18.19Z"/><path class="cls-5" d="M102.45,334.84l-3-.32a11.49,11.49,0,0,1,3.86-7.76,9,9,0,0,1,7.67-2.12c4.31.88,7.61,4.93,8,9.85l-3,.32a7.44,7.44,0,0,0-5.51-6.77,6.19,6.19,0,0,0-5.28,1.47A7.89,7.89,0,0,0,102.45,334.84Z"/><path class="cls-5" d="M184.83,334.84c-1-11.51-9-21.35-19-23.39a21.34,21.34,0,0,0-18.19,5.05,27.2,27.2,0,0,0-9.16,18.35l-3.05-.32a30.81,30.81,0,0,1,10.36-20.79,24.17,24.17,0,0,1,20.58-5.7c11.39,2.33,20.44,13.46,21.52,26.46Z"/><path class="cls-5" d="M176.61,334.84c-.63-7.43-5.78-13.78-12.28-15.11A13.82,13.82,0,0,0,152.59,323a17.58,17.58,0,0,0-5.91,11.85l-3.05-.32a21.18,21.18,0,0,1,7.11-14.29,16.58,16.58,0,0,1,14.14-3.93c8,1.62,14,9.1,14.78,18.19Z"/><path class="cls-5" d="M154.94,334.84l-3.05-.32a11.49,11.49,0,0,1,3.86-7.76,9,9,0,0,1,7.66-2.12c4.32.88,7.62,4.93,8,9.85l-3.05.32a7.46,7.46,0,0,0-5.52-6.77,6.17,6.17,0,0,0-5.27,1.47A7.93,7.93,0,0,0,154.94,334.84Z"/><path class="cls-5" d="M237.29,334.84c-1-11.51-8.95-21.35-19-23.39a21.34,21.34,0,0,0-18.19,5.05,27.2,27.2,0,0,0-9.16,18.35l-3.06-.32a30.9,30.9,0,0,1,10.36-20.79,24.22,24.22,0,0,1,20.62-5.7c11.39,2.33,20.44,13.46,21.53,26.46Z"/><path class="cls-5" d="M229.08,334.84c-.63-7.43-5.78-13.78-12.28-15.11A13.82,13.82,0,0,0,205.06,323a17.56,17.56,0,0,0-5.91,11.85l-3.06-.32a21.22,21.22,0,0,1,7.11-14.29,16.61,16.61,0,0,1,14.15-3.93c8,1.62,14,9.1,14.78,18.19Z"/><path class="cls-5" d="M207.39,334.84l-3.08-.32a11.49,11.49,0,0,1,3.86-7.76,9,9,0,0,1,7.67-2.12c4.31.88,7.61,4.93,8,9.85l-3.05.32A7.45,7.45,0,0,0,215.3,328a6.19,6.19,0,0,0-5.28,1.47A7.88,7.88,0,0,0,207.39,334.84Z"/><path class="cls-5" d="M255.11,310.65a27,27,0,0,0-4.41,3.08,30.83,30.83,0,0,0-10.36,20.79l3,.32a27.3,27.3,0,0,1,9.16-18.35,25,25,0,0,1,2.56-1.91Z"/><path class="cls-5" d="M255.11,320.77a21.23,21.23,0,0,0-6.55,13.75l3.05.32a18,18,0,0,1,3.5-9.24Z"/><path class="cls-5" d="M53.66,307.57c-1-11.51-9-21.35-19-23.39a21.4,21.4,0,0,0-18.2,5.06A27.18,27.18,0,0,0,7.3,307.59l-3.06-.33a31,31,0,0,1,10.36-20.8,24.21,24.21,0,0,1,20.62-5.7c11.39,2.32,20.44,13.46,21.52,26.46Z"/><path class="cls-5" d="M45.44,307.57c-.62-7.43-5.78-13.78-12.28-15.11a13.82,13.82,0,0,0-11.74,3.26,17.58,17.58,0,0,0-5.91,11.85l-3.06-.32A21.14,21.14,0,0,1,19.57,293a16.56,16.56,0,0,1,14.13-3.92c7.95,1.63,14,9.11,14.78,18.2Z"/><path class="cls-5" d="M23.75,307.57l-3.05-.32a11.49,11.49,0,0,1,3.86-7.76,9,9,0,0,1,7.67-2.12c4.32.88,7.61,4.93,8,9.85l-3,.33a7.41,7.41,0,0,0-5.52-6.77,6.21,6.21,0,0,0-5.27,1.47A7.93,7.93,0,0,0,23.75,307.57Z"/><path class="cls-5" d="M106.13,307.57c-1-11.51-9-21.35-19-23.39a21.38,21.38,0,0,0-18.19,5.06,27.26,27.26,0,0,0-9.16,18.33l-3-.32a30.81,30.81,0,0,1,10.36-20.79,24.17,24.17,0,0,1,20.58-5.7c11.39,2.32,20.44,13.46,21.53,26.46Z"/><path class="cls-5" d="M97.91,307.57c-.63-7.43-5.78-13.78-12.28-15.11a13.82,13.82,0,0,0-11.74,3.26A17.58,17.58,0,0,0,68,307.57l-3.06-.32A21.19,21.19,0,0,1,72,293a16.61,16.61,0,0,1,14.16-3.92c8,1.63,14,9.11,14.78,18.2Z"/><path class="cls-5" d="M76.2,307.57l-3.06-.32A11.57,11.57,0,0,1,77,299.49a9,9,0,0,1,7.67-2.12c4.31.88,7.61,4.93,8,9.85l-3.06.33a7.39,7.39,0,0,0-5.51-6.77,6.22,6.22,0,0,0-5.28,1.47A7.86,7.86,0,0,0,76.2,307.57Z"/><path class="cls-5" d="M158.59,307.57c-1-11.51-9-21.35-19-23.39a21.38,21.38,0,0,0-18.19,5.06,27.2,27.2,0,0,0-9.16,18.35l-3-.33a30.89,30.89,0,0,1,10.35-20.79,24.25,24.25,0,0,1,20.59-5.7c11.39,2.33,20.44,13.47,21.53,26.47Z"/><path class="cls-5" d="M150.38,307.57c-.63-7.43-5.78-13.78-12.28-15.11a13.8,13.8,0,0,0-11.74,3.26,17.63,17.63,0,0,0-5.92,11.85l-3-.32A21.14,21.14,0,0,1,124.51,293a16.57,16.57,0,0,1,14.14-3.92c7.94,1.63,14,9.11,14.78,18.2Z"/><path class="cls-5" d="M128.69,307.57l-3-.32a11.49,11.49,0,0,1,3.86-7.76,9,9,0,0,1,7.67-2.12c4.32.88,7.61,4.93,8,9.85l-3.05.33a7.41,7.41,0,0,0-5.52-6.77,6.21,6.21,0,0,0-5.27,1.47A7.93,7.93,0,0,0,128.69,307.57Z"/><path class="cls-5" d="M211.06,307.57c-1-11.51-9-21.35-19-23.39a21.38,21.38,0,0,0-18.19,5.06,27.23,27.23,0,0,0-9.15,18.35l-3-.33A30.85,30.85,0,0,1,172,286.47a24.25,24.25,0,0,1,20.59-5.7C204,283.1,213,294.24,214.11,307.24Z"/><path class="cls-5" d="M202.84,307.57c-.62-7.43-5.78-13.78-12.27-15.11a13.8,13.8,0,0,0-11.74,3.26,17.55,17.55,0,0,0-5.92,11.85l-3-.32A21.17,21.17,0,0,1,177,293a16.58,16.58,0,0,1,14.14-3.92c7.95,1.63,14,9.11,14.79,18.2Z"/><path class="cls-5" d="M181.19,307.57l-3.06-.32a11.57,11.57,0,0,1,3.86-7.76,9,9,0,0,1,7.67-2.12c4.31.88,7.61,4.93,8,9.85l-3.06.33a7.39,7.39,0,0,0-5.51-6.77,6.22,6.22,0,0,0-5.28,1.47A7.86,7.86,0,0,0,181.19,307.57Z"/><path class="cls-5" d="M255.11,285.53a23.46,23.46,0,0,0-30.65.94,30.85,30.85,0,0,0-10.35,20.79l3.06.33a27.17,27.17,0,0,1,9.15-18.37,21.34,21.34,0,0,1,18.19-5.05,21.93,21.93,0,0,1,10.63,5.68Z"/><path class="cls-5" d="M255.11,297.4a17.86,17.86,0,0,0-11.53-8.35A16.58,16.58,0,0,0,229.44,293a21.09,21.09,0,0,0-7.11,14.28l3,.32a17.58,17.58,0,0,1,5.91-11.85A13.8,13.8,0,0,1,243,292.46c6.05,1.23,10.94,6.83,12.08,13.59Z"/><path class="cls-5" d="M233.62,307.57l-3.05-.32a11.49,11.49,0,0,1,3.86-7.76,9,9,0,0,1,7.67-2.12c4.31.88,7.61,4.93,8,9.85l-3.05.33a7.41,7.41,0,0,0-5.52-6.77,6.2,6.2,0,0,0-5.27,1.47A7.93,7.93,0,0,0,233.62,307.57Z"/><path class="cls-5" d="M9,256.34a22.41,22.41,0,0,0-5.17-.45v3.47a20.54,20.54,0,0,1,4.63.38c10.06,2.05,18.06,11.9,19,23.39l3.05-.32C29.4,269.8,20.34,258.66,9,256.34Z"/><path class="cls-5" d="M7.45,264.63a15.74,15.74,0,0,0-3.69-.31v3.47a13.36,13.36,0,0,1,3.15.25c6.49,1.32,11.66,7.68,12.27,15.1l3.05-.32C21.5,273.73,15.43,266.25,7.45,264.63Z"/><path class="cls-5" d="M6,273a9.19,9.19,0,0,0-2.22-.15v3.49a5.85,5.85,0,0,1,1.67.09A7.47,7.47,0,0,1,11,283.15l3-.33C13.61,277.89,10.31,273.83,6,273Z"/><path class="cls-5" d="M79.89,283.14c-1-11.5-9-21.35-19-23.38a21.32,21.32,0,0,0-18.19,5,27.27,27.27,0,0,0-9.15,18.36l-3.05-.33a30.8,30.8,0,0,1,10.35-20.78,24.19,24.19,0,0,1,20.59-5.7c11.39,2.32,20.44,13.46,21.52,26.46Z"/><path class="cls-5" d="M71.67,283.14c-.62-7.42-5.78-13.78-12.27-15.1a13.77,13.77,0,0,0-11.74,3.26,17.55,17.55,0,0,0-5.91,11.84l-3-.32a21.2,21.2,0,0,1,7.11-14.28A16.57,16.57,0,0,1,60,264.63c8,1.62,14,9.1,14.79,18.19Z"/><path class="cls-5" d="M50,283.14l-3.05-.32a11.48,11.48,0,0,1,3.85-7.76A9,9,0,0,1,58.46,273c4.31.88,7.61,4.92,8,9.84l-3.06.33a7.39,7.39,0,0,0-5.51-6.77,6.22,6.22,0,0,0-5.28,1.46A7.92,7.92,0,0,0,50,283.14Z"/><path class="cls-5" d="M132.36,283.14c-1-11.5-9-21.35-19-23.38a21.32,21.32,0,0,0-18.19,5A27.25,27.25,0,0,0,86,283.16l-3.06-.33A30.85,30.85,0,0,1,93.3,262.05a24.19,24.19,0,0,1,20.59-5.7c11.38,2.32,20.44,13.46,21.52,26.46Z"/><path class="cls-5" d="M124.14,283.14c-.62-7.42-5.78-13.78-12.27-15.1a13.74,13.74,0,0,0-11.74,3.26,17.47,17.47,0,0,0-5.91,11.84l-3.06-.32a21.2,21.2,0,0,1,7.11-14.28,16.57,16.57,0,0,1,14.17-3.91c8,1.62,14,9.1,14.78,18.19Z"/><path class="cls-5" d="M102.45,283.14l-3-.32a11.49,11.49,0,0,1,3.86-7.76,9,9,0,0,1,7.67-2.11c4.31.88,7.61,4.92,8,9.84l-3,.33a7.39,7.39,0,0,0-5.51-6.77,6.18,6.18,0,0,0-5.28,1.46A7.89,7.89,0,0,0,102.45,283.14Z"/><path class="cls-5" d="M184.83,283.14c-1-11.5-9-21.35-19-23.38a21.3,21.3,0,0,0-18.19,5,27.24,27.24,0,0,0-9.16,18.36l-3.05-.33a30.81,30.81,0,0,1,10.36-20.78,24.17,24.17,0,0,1,20.58-5.7c11.39,2.32,20.44,13.46,21.52,26.46Z"/><path class="cls-5" d="M176.61,283.14c-.63-7.42-5.78-13.78-12.28-15.1a13.78,13.78,0,0,0-11.74,3.26,17.55,17.55,0,0,0-5.91,11.84l-3.05-.32a21.2,21.2,0,0,1,7.11-14.28,16.57,16.57,0,0,1,14.14-3.91c8,1.62,14,9.1,14.78,18.19Z"/><path class="cls-5" d="M154.94,283.14l-3.05-.32a11.47,11.47,0,0,1,3.84-7.76A9,9,0,0,1,163.4,273c4.31.88,7.61,4.92,8,9.84l-3,.33a7.41,7.41,0,0,0-5.52-6.77,6.19,6.19,0,0,0-5.27,1.46A7.91,7.91,0,0,0,154.94,283.14Z"/><path class="cls-5" d="M237.29,283.14c-1-11.5-8.95-21.35-19-23.38a21.3,21.3,0,0,0-18.19,5,27.22,27.22,0,0,0-9.16,18.36l-3.06-.33a30.9,30.9,0,0,1,10.36-20.78,24.22,24.22,0,0,1,20.62-5.7c11.39,2.32,20.44,13.46,21.53,26.46Z"/><path class="cls-5" d="M229.08,283.14c-.63-7.42-5.78-13.78-12.28-15.1a13.75,13.75,0,0,0-11.74,3.26,17.55,17.55,0,0,0-5.91,11.84l-3.06-.32a21.2,21.2,0,0,1,7.11-14.28,16.59,16.59,0,0,1,14.15-3.91c8,1.62,14,9.1,14.78,18.19Z"/><path class="cls-5" d="M207.39,283.14l-3.08-.32a11.55,11.55,0,0,1,3.88-7.76,9,9,0,0,1,7.68-2.11c4.31.88,7.61,4.92,8,9.84l-3,.33a7.39,7.39,0,0,0-5.51-6.77,6.16,6.16,0,0,0-5.27,1.46A7.89,7.89,0,0,0,207.39,283.14Z"/><path class="cls-5" d="M255.11,259A27,27,0,0,0,250.7,262a30.81,30.81,0,0,0-10.36,20.78l3,.33a27.28,27.28,0,0,1,9.16-18.35,25,25,0,0,1,2.56-1.91Z"/><path class="cls-5" d="M255.11,269.08a21.19,21.19,0,0,0-6.55,13.74l3.05.32a18,18,0,0,1,3.5-9.23Z"/><path class="cls-5" d="M53.66,255.88c-1-11.51-9-21.35-19-23.39a21.43,21.43,0,0,0-18.2,5A27.23,27.23,0,0,0,7.3,255.9l-3.06-.33A31,31,0,0,1,14.6,234.76a24.28,24.28,0,0,1,20.62-5.7c11.39,2.33,20.44,13.47,21.52,26.47Z"/><path class="cls-5" d="M45.44,255.88c-.62-7.43-5.78-13.79-12.28-15.11A13.82,13.82,0,0,0,21.42,244a17.58,17.58,0,0,0-5.91,11.85l-3.06-.33a21.19,21.19,0,0,1,7.12-14.28,16.58,16.58,0,0,1,14.13-3.91c7.95,1.62,14,9.1,14.78,18.19Z"/><path class="cls-5" d="M23.75,255.88l-3.05-.33a11.49,11.49,0,0,1,3.86-7.75,9,9,0,0,1,7.67-2.12c4.32.88,7.61,4.93,8,9.85l-3,.33c-.28-3.35-2.6-6.2-5.52-6.77a6.14,6.14,0,0,0-5.27,1.47A7.91,7.91,0,0,0,23.75,255.88Z"/><path class="cls-5" d="M106.13,255.88c-1-11.51-9-21.35-19-23.39a21.4,21.4,0,0,0-18.19,5,27.26,27.26,0,0,0-9.16,18.34l-3-.33a30.86,30.86,0,0,1,10.36-20.79,24.23,24.23,0,0,1,20.58-5.7c11.39,2.33,20.44,13.47,21.53,26.47Z"/><path class="cls-5" d="M97.91,255.88c-.63-7.43-5.78-13.79-12.28-15.11A13.82,13.82,0,0,0,73.89,244,17.58,17.58,0,0,0,68,255.88l-3-.33a21.22,21.22,0,0,1,7.11-14.28,16.61,16.61,0,0,1,14.14-3.91c8,1.62,14,9.1,14.78,18.19Z"/><path class="cls-5" d="M76.2,255.88l-3.06-.33A11.57,11.57,0,0,1,77,247.8a9,9,0,0,1,7.67-2.12c4.31.88,7.61,4.93,8,9.85l-3.06.33c-.27-3.35-2.59-6.2-5.51-6.77a6.16,6.16,0,0,0-5.28,1.47A7.84,7.84,0,0,0,76.2,255.88Z"/><path class="cls-5" d="M158.59,255.88c-1-11.51-9-21.35-19-23.39a21.4,21.4,0,0,0-18.19,5,27.2,27.2,0,0,0-9.16,18.36l-3-.33a30.87,30.87,0,0,1,10.35-20.79,24.22,24.22,0,0,1,20.59-5.7c11.39,2.33,20.44,13.47,21.53,26.47Z"/><path class="cls-5" d="M150.38,255.88c-.63-7.43-5.78-13.79-12.28-15.11A13.8,13.8,0,0,0,126.36,244a17.63,17.63,0,0,0-5.92,11.85l-3-.33a21.19,21.19,0,0,1,7.12-14.28,16.6,16.6,0,0,1,14.14-3.91c7.94,1.62,14,9.1,14.78,18.19Z"/><path class="cls-5" d="M128.69,255.88l-3-.33a11.49,11.49,0,0,1,3.86-7.75,9,9,0,0,1,7.67-2.12c4.32.88,7.61,4.93,8,9.85l-3.05.33c-.28-3.35-2.6-6.2-5.52-6.77a6.14,6.14,0,0,0-5.27,1.47A7.91,7.91,0,0,0,128.69,255.88Z"/><path class="cls-5" d="M211.06,255.88c-1-11.51-9-21.35-19-23.39a21.4,21.4,0,0,0-18.19,5,27.25,27.25,0,0,0-9.15,18.36l-3-.33A30.82,30.82,0,0,1,172,234.78a24.22,24.22,0,0,1,20.59-5.7c11.38,2.33,20.44,13.47,21.52,26.47Z"/><path class="cls-5" d="M202.84,255.88c-.62-7.43-5.78-13.79-12.27-15.11A13.8,13.8,0,0,0,178.83,244a17.55,17.55,0,0,0-5.92,11.85l-3-.33A21.22,21.22,0,0,1,177,241.27a16.61,16.61,0,0,1,14.14-3.91c7.95,1.62,14,9.1,14.79,18.19Z"/><path class="cls-5" d="M181.19,255.88l-3.06-.33A11.57,11.57,0,0,1,182,247.8a9,9,0,0,1,7.67-2.12c4.31.88,7.61,4.93,8,9.85l-3.06.33c-.27-3.35-2.59-6.2-5.51-6.77a6.16,6.16,0,0,0-5.28,1.47A7.84,7.84,0,0,0,181.19,255.88Z"/><path class="cls-5" d="M255.11,233.83a23.48,23.48,0,0,0-30.65.95,30.8,30.8,0,0,0-10.35,20.79l3.06.32a27.19,27.19,0,0,1,9.15-18.37,21.4,21.4,0,0,1,18.19-5.05,21.93,21.93,0,0,1,10.63,5.68Z"/><path class="cls-5" d="M255.11,245.71a18,18,0,0,0-11.53-8.35,16.61,16.61,0,0,0-14.14,3.91,21.13,21.13,0,0,0-7.11,14.28l3,.33A17.58,17.58,0,0,1,231.29,244,13.8,13.8,0,0,1,243,240.77c6.05,1.23,10.94,6.83,12.08,13.58Z"/><path class="cls-5" d="M233.62,255.88l-3.06-.33a11.52,11.52,0,0,1,3.85-7.75,9,9,0,0,1,7.68-2.12c4.31.88,7.6,4.93,8,9.85l-3.05.33c-.28-3.35-2.6-6.2-5.52-6.77a6.16,6.16,0,0,0-5.28,1.47A7.91,7.91,0,0,0,233.62,255.88Z"/><path class="cls-5" d="M9,204.64a23,23,0,0,0-5.17-.44v3.46a20,20,0,0,1,4.63.39c10.06,2,18.06,11.89,19,23.39l3.05-.33C29.4,218.1,20.34,207,9,204.64Z"/><path class="cls-5" d="M7.45,212.93a16.28,16.28,0,0,0-3.69-.3v3.47a13.35,13.35,0,0,1,3.15.24c6.49,1.33,11.66,7.68,12.27,15.11l3.05-.32C21.5,222,15.43,214.56,7.45,212.93Z"/><path class="cls-5" d="M6,221.25a8.7,8.7,0,0,0-2.22-.14v3.49a5.5,5.5,0,0,1,1.67.08A7.46,7.46,0,0,1,11,231.45l3-.33C13.61,226.2,10.31,222.13,6,221.25Z"/><path class="cls-5" d="M79.89,231.45c-1-11.51-9-21.35-19-23.38a21.32,21.32,0,0,0-18.19,5,27.25,27.25,0,0,0-9.15,18.35l-3.05-.32a30.8,30.8,0,0,1,10.35-20.79,24.22,24.22,0,0,1,20.59-5.69c11.39,2.32,20.44,13.46,21.52,26.46Z"/><path class="cls-5" d="M71.67,231.45c-.62-7.43-5.78-13.78-12.27-15.11a13.78,13.78,0,0,0-11.74,3.27,17.55,17.55,0,0,0-5.91,11.84l-3-.32a21.2,21.2,0,0,1,7.11-14.28A16.57,16.57,0,0,1,60,212.93c8,1.63,14,9.11,14.79,18.2Z"/><path class="cls-5" d="M50,231.45l-3.05-.32a11.46,11.46,0,0,1,3.85-7.76,9,9,0,0,1,7.67-2.13c4.31.89,7.61,4.93,8,9.85l-3.06.33c-.27-3.34-2.59-6.2-5.51-6.77a6.18,6.18,0,0,0-5.28,1.46A7.92,7.92,0,0,0,50,231.45Z"/><path class="cls-5" d="M132.36,231.45c-1-11.51-9-21.35-19-23.38a21.32,21.32,0,0,0-18.19,5A27.25,27.25,0,0,0,86,231.46l-3.06-.32A30.86,30.86,0,0,1,93.3,210.35a24.21,24.21,0,0,1,20.59-5.69c11.38,2.32,20.44,13.46,21.52,26.46Z"/><path class="cls-5" d="M124.14,231.45c-.62-7.43-5.78-13.78-12.27-15.11a13.78,13.78,0,0,0-11.74,3.27,17.49,17.49,0,0,0-5.91,11.84l-3.06-.32a21.2,21.2,0,0,1,7.11-14.28,16.58,16.58,0,0,1,14.17-3.92c8,1.63,14,9.11,14.78,18.2Z"/><path class="cls-5" d="M102.45,231.45l-3-.32a11.41,11.41,0,0,1,3.86-7.76,9,9,0,0,1,7.67-2.13c4.31.89,7.61,4.93,8,9.85l-3,.33c-.27-3.34-2.59-6.2-5.51-6.77a6.18,6.18,0,0,0-5.28,1.46A7.91,7.91,0,0,0,102.45,231.45Z"/><path class="cls-5" d="M184.83,231.45c-1-11.51-9-21.35-19-23.38a21.3,21.3,0,0,0-18.19,5,27.22,27.22,0,0,0-9.16,18.35l-3.05-.32a30.81,30.81,0,0,1,10.36-20.79,24.2,24.2,0,0,1,20.58-5.69c11.39,2.32,20.44,13.46,21.52,26.46Z"/><path class="cls-5" d="M176.61,231.45c-.63-7.43-5.78-13.78-12.28-15.11a13.8,13.8,0,0,0-11.74,3.27,17.6,17.6,0,0,0-5.91,11.84l-3.05-.32a21.17,21.17,0,0,1,7.11-14.28,16.57,16.57,0,0,1,14.14-3.92c8,1.63,14,9.11,14.78,18.2Z"/><path class="cls-5" d="M154.94,231.45l-3.05-.32a11.47,11.47,0,0,1,3.84-7.76,9,9,0,0,1,7.67-2.13c4.31.89,7.61,4.93,8,9.85l-3,.33c-.28-3.34-2.6-6.2-5.52-6.77a6.16,6.16,0,0,0-5.27,1.46A7.91,7.91,0,0,0,154.94,231.45Z"/><path class="cls-5" d="M237.29,231.45c-1-11.51-8.95-21.35-19-23.38a21.3,21.3,0,0,0-18.19,5,27.22,27.22,0,0,0-9.16,18.35l-3.06-.32a30.9,30.9,0,0,1,10.36-20.79,24.25,24.25,0,0,1,20.62-5.69c11.39,2.32,20.44,13.46,21.53,26.46Z"/><path class="cls-5" d="M229.08,231.45c-.63-7.43-5.78-13.78-12.28-15.11a13.8,13.8,0,0,0-11.74,3.27,17.53,17.53,0,0,0-5.91,11.84l-3.06-.32a21.2,21.2,0,0,1,7.11-14.28,16.6,16.6,0,0,1,14.15-3.92c8,1.63,14,9.11,14.78,18.2Z"/><path class="cls-5" d="M207.39,231.45l-3-.32a11.46,11.46,0,0,1,3.85-7.76,9,9,0,0,1,7.68-2.13c4.31.89,7.61,4.93,8,9.85l-3,.33c-.27-3.34-2.59-6.2-5.51-6.77a6.16,6.16,0,0,0-5.27,1.46A7.87,7.87,0,0,0,207.39,231.45Z"/><path class="cls-5" d="M255.11,207.27a27,27,0,0,0-4.41,3.08,30.79,30.79,0,0,0-10.36,20.78l3,.33a27.28,27.28,0,0,1,9.16-18.35,25,25,0,0,1,2.56-1.91Z"/><path class="cls-5" d="M255.11,217.38a21.23,21.23,0,0,0-6.55,13.75l3.05.32a18,18,0,0,1,3.5-9.23Z"/><path class="cls-5" d="M53.66,204.18c-1-11.5-9-21.34-19-23.39a21.4,21.4,0,0,0-18.2,5.05A27.23,27.23,0,0,0,7.3,204.19l-3.06-.32a31,31,0,0,1,10.36-20.8,24.25,24.25,0,0,1,20.62-5.7c11.39,2.33,20.44,13.47,21.52,26.47Z"/><path class="cls-5" d="M45.44,204.18c-.62-7.43-5.78-13.78-12.28-15.1a13.79,13.79,0,0,0-11.74,3.26,17.6,17.6,0,0,0-5.91,11.84l-3.06-.32a21.14,21.14,0,0,1,7.12-14.28,16.59,16.59,0,0,1,14.13-3.91c7.95,1.62,14,9.1,14.78,18.19Z"/><path class="cls-5" d="M23.75,204.18l-3.05-.32a11.45,11.45,0,0,1,3.86-7.75A9,9,0,0,1,32.23,194c4.32.88,7.61,4.92,8,9.85l-3,.32a7.41,7.41,0,0,0-5.52-6.77,6.17,6.17,0,0,0-5.27,1.47A7.93,7.93,0,0,0,23.75,204.18Z"/><path class="cls-5" d="M106.13,204.18c-1-11.5-9-21.34-19-23.39a21.37,21.37,0,0,0-18.19,5.05,27.26,27.26,0,0,0-9.16,18.34l-3-.32a30.83,30.83,0,0,1,10.36-20.79,24.2,24.2,0,0,1,20.58-5.7c11.39,2.33,20.44,13.47,21.53,26.47Z"/><path class="cls-5" d="M97.91,204.18c-.63-7.43-5.78-13.78-12.28-15.1a13.79,13.79,0,0,0-11.74,3.26A17.55,17.55,0,0,0,68,204.18l-3.06-.32A21.23,21.23,0,0,1,72,189.58a16.58,16.58,0,0,1,14.16-3.91c8,1.62,14,9.1,14.78,18.19Z"/><path class="cls-5" d="M76.2,204.18l-3.06-.32A11.55,11.55,0,0,1,77,196.11,9,9,0,0,1,84.67,194c4.31.88,7.61,4.92,8,9.85l-3.06.32a7.39,7.39,0,0,0-5.51-6.77,6.16,6.16,0,0,0-5.28,1.47A7.86,7.86,0,0,0,76.2,204.18Z"/><path class="cls-5" d="M158.59,204.18c-1-11.5-9-21.34-19-23.39a21.37,21.37,0,0,0-18.19,5.05,27.2,27.2,0,0,0-9.16,18.35l-3-.32a30.89,30.89,0,0,1,10.35-20.79,24.21,24.21,0,0,1,20.59-5.69c11.39,2.32,20.44,13.46,21.53,26.46Z"/><path class="cls-5" d="M150.38,204.18c-.63-7.43-5.78-13.78-12.28-15.1a13.77,13.77,0,0,0-11.74,3.26,17.61,17.61,0,0,0-5.92,11.84l-3-.32a21.14,21.14,0,0,1,7.12-14.28,16.6,16.6,0,0,1,14.14-3.91c7.94,1.62,14,9.1,14.78,18.19Z"/><path class="cls-5" d="M128.69,204.18l-3-.32a11.45,11.45,0,0,1,3.86-7.75,9,9,0,0,1,7.67-2.12c4.32.88,7.61,4.92,8,9.85l-3.05.32a7.41,7.41,0,0,0-5.52-6.77,6.17,6.17,0,0,0-5.27,1.47A7.93,7.93,0,0,0,128.69,204.18Z"/><path class="cls-5" d="M211.06,204.18c-1-11.5-9-21.34-19-23.39a21.37,21.37,0,0,0-18.19,5.05,27.25,27.25,0,0,0-9.15,18.35l-3-.32A30.85,30.85,0,0,1,172,183.08a24.21,24.21,0,0,1,20.59-5.69c11.38,2.32,20.44,13.46,21.52,26.46Z"/><path class="cls-5" d="M202.84,204.18c-.62-7.43-5.78-13.78-12.27-15.1a13.77,13.77,0,0,0-11.74,3.26,17.52,17.52,0,0,0-5.92,11.84l-3-.32A21.22,21.22,0,0,1,177,189.58a16.61,16.61,0,0,1,14.14-3.91c7.95,1.62,14,9.1,14.79,18.19Z"/><path class="cls-5" d="M181.19,204.18l-3.06-.32a11.55,11.55,0,0,1,3.86-7.75,9,9,0,0,1,7.67-2.12c4.31.88,7.61,4.92,8,9.85l-3.06.32a7.39,7.39,0,0,0-5.51-6.77,6.16,6.16,0,0,0-5.28,1.47A7.86,7.86,0,0,0,181.19,204.18Z"/><path class="cls-5" d="M255.11,182.13a23.52,23.52,0,0,0-30.65,1,30.85,30.85,0,0,0-10.35,20.79l3.06.32a27.19,27.19,0,0,1,9.15-18.37,21.33,21.33,0,0,1,18.19-5,21.77,21.77,0,0,1,10.63,5.68Z"/><path class="cls-5" d="M255.11,194a18,18,0,0,0-11.53-8.34,16.61,16.61,0,0,0-14.14,3.91,21.09,21.09,0,0,0-7.11,14.28l3,.32a17.55,17.55,0,0,1,5.91-11.84A13.77,13.77,0,0,1,243,189.08c6.05,1.23,10.94,6.82,12.08,13.58Z"/><path class="cls-5" d="M233.62,204.18l-3.05-.32a11.45,11.45,0,0,1,3.86-7.75A9,9,0,0,1,242.1,194c4.31.88,7.61,4.92,8,9.85l-3.05.32a7.41,7.41,0,0,0-5.52-6.77,6.17,6.17,0,0,0-5.27,1.47A7.93,7.93,0,0,0,233.62,204.18Z"/><path class="cls-5" d="M9,153a23,23,0,0,0-5.17-.44V156a20,20,0,0,1,4.63.39c10.06,2,18.06,11.89,19,23.39l3.05-.33C29.4,166.41,20.34,155.27,9,153Z"/><path class="cls-5" d="M7.45,161.24a16.28,16.28,0,0,0-3.69-.3v3.47a12.84,12.84,0,0,1,3.15.24c6.49,1.33,11.66,7.68,12.27,15.11l3.05-.33C21.5,170.34,15.43,162.87,7.45,161.24Z"/><path class="cls-5" d="M6,169.56a8.7,8.7,0,0,0-2.22-.14v3.48a5.84,5.84,0,0,1,1.67.08A7.46,7.46,0,0,1,11,179.75l3-.33C13.61,174.5,10.31,170.44,6,169.56Z"/><path class="cls-5" d="M79.89,179.76c-1-11.51-9-21.35-19-23.39a21.35,21.35,0,0,0-18.19,5,27.25,27.25,0,0,0-9.15,18.35l-3.05-.32a30.8,30.8,0,0,1,10.35-20.79A24.19,24.19,0,0,1,61.42,153c11.39,2.32,20.44,13.46,21.52,26.47Z"/><path class="cls-5" d="M71.67,179.76c-.62-7.43-5.78-13.78-12.27-15.11a13.8,13.8,0,0,0-11.74,3.26,17.58,17.58,0,0,0-5.91,11.85l-3-.33a21.13,21.13,0,0,1,7.11-14.27A16.57,16.57,0,0,1,60,161.24c8,1.63,14,9.1,14.79,18.19Z"/><path class="cls-5" d="M50,179.76l-3.05-.33a11.44,11.44,0,0,1,3.85-7.76,9,9,0,0,1,7.67-2.13c4.31.88,7.61,4.93,8,9.85l-3.06.33A7.39,7.39,0,0,0,57.92,173a6.22,6.22,0,0,0-5.28,1.47A7.9,7.9,0,0,0,50,179.76Z"/><path class="cls-5" d="M132.36,179.76c-1-11.51-9-21.35-19-23.39a21.35,21.35,0,0,0-18.19,5A27.23,27.23,0,0,0,86,179.77l-3.06-.32A30.86,30.86,0,0,1,93.3,158.66a24.19,24.19,0,0,1,20.59-5.7c11.38,2.32,20.44,13.46,21.52,26.47Z"/><path class="cls-5" d="M124.14,179.76c-.62-7.43-5.78-13.78-12.27-15.11a13.8,13.8,0,0,0-11.74,3.26,17.53,17.53,0,0,0-5.91,11.85l-3.06-.33a21.17,21.17,0,0,1,7.11-14.27,16.58,16.58,0,0,1,14.17-3.92c8,1.63,14,9.1,14.78,18.19Z"/><path class="cls-5" d="M102.45,179.76l-3-.33a11.45,11.45,0,0,1,3.86-7.76,9,9,0,0,1,7.67-2.13c4.31.88,7.61,4.93,8,9.85l-3,.33a7.39,7.39,0,0,0-5.51-6.77,6.22,6.22,0,0,0-5.28,1.47A7.87,7.87,0,0,0,102.45,179.76Z"/><path class="cls-5" d="M184.83,179.76c-1-11.51-9-21.35-19-23.39a21.34,21.34,0,0,0-18.19,5,27.22,27.22,0,0,0-9.16,18.35l-3.05-.32a30.81,30.81,0,0,1,10.36-20.79,24.17,24.17,0,0,1,20.58-5.7c11.39,2.32,20.44,13.46,21.52,26.47Z"/><path class="cls-5" d="M176.61,179.76c-.63-7.43-5.78-13.78-12.28-15.11a13.82,13.82,0,0,0-11.74,3.26,17.62,17.62,0,0,0-5.91,11.85l-3.05-.33a21.13,21.13,0,0,1,7.11-14.27,16.57,16.57,0,0,1,14.14-3.92c8,1.63,14,9.1,14.78,18.19Z"/><path class="cls-5" d="M154.94,179.76l-3.05-.33a11.42,11.42,0,0,1,3.84-7.76,9,9,0,0,1,7.67-2.13c4.31.88,7.61,4.93,8,9.85l-3,.33a7.41,7.41,0,0,0-5.52-6.77,6.2,6.2,0,0,0-5.27,1.47A7.91,7.91,0,0,0,154.94,179.76Z"/><path class="cls-5" d="M237.29,179.76c-1-11.51-8.95-21.35-19-23.39a21.34,21.34,0,0,0-18.19,5,27.2,27.2,0,0,0-9.16,18.35l-3.06-.32a30.9,30.9,0,0,1,10.36-20.79,24.22,24.22,0,0,1,20.62-5.7c11.39,2.32,20.44,13.46,21.53,26.47Z"/><path class="cls-5" d="M229.08,179.76c-.63-7.43-5.78-13.78-12.28-15.11a13.82,13.82,0,0,0-11.74,3.26,17.58,17.58,0,0,0-5.91,11.85l-3.06-.33a21.17,21.17,0,0,1,7.11-14.27,16.6,16.6,0,0,1,14.15-3.92c8,1.63,14,9.1,14.78,18.19Z"/><path class="cls-5" d="M207.39,179.76l-3-.33a11.44,11.44,0,0,1,3.85-7.76,9,9,0,0,1,7.68-2.13c4.31.88,7.61,4.93,8,9.85l-3,.33a7.39,7.39,0,0,0-5.51-6.77,6.2,6.2,0,0,0-5.27,1.47A7.87,7.87,0,0,0,207.39,179.76Z"/><path class="cls-5" d="M255.11,155.58a27,27,0,0,0-4.41,3.08,30.81,30.81,0,0,0-10.36,20.79l3,.32a27.3,27.3,0,0,1,9.16-18.35,25,25,0,0,1,2.56-1.91Z"/><path class="cls-5" d="M255.11,165.69a21.21,21.21,0,0,0-6.55,13.74l3.05.33a18,18,0,0,1,3.5-9.23Z"/><path class="cls-5" d="M53.66,152.49c-1-11.5-9-21.34-19-23.39a21.37,21.37,0,0,0-18.2,5.05A27.23,27.23,0,0,0,7.3,152.5l-3.06-.32a31,31,0,0,1,10.36-20.8,24.25,24.25,0,0,1,20.62-5.7c11.39,2.33,20.44,13.46,21.52,26.47Z"/><path class="cls-5" d="M45.44,152.49c-.62-7.43-5.78-13.78-12.28-15.1a13.76,13.76,0,0,0-11.74,3.26,17.6,17.6,0,0,0-5.91,11.84l-3.06-.32a21.14,21.14,0,0,1,7.12-14.28A16.58,16.58,0,0,1,33.7,134c7.95,1.62,14,9.1,14.78,18.19Z"/><path class="cls-5" d="M23.75,152.49l-3.05-.32a11.45,11.45,0,0,1,3.86-7.75,9,9,0,0,1,7.67-2.12c4.32.88,7.61,4.92,8,9.85l-3,.32c-.28-3.34-2.6-6.2-5.52-6.77a6.17,6.17,0,0,0-5.27,1.46A8,8,0,0,0,23.75,152.49Z"/><path class="cls-5" d="M106.13,152.49c-1-11.5-9-21.34-19-23.39a21.34,21.34,0,0,0-18.19,5.05,27.26,27.26,0,0,0-9.16,18.34l-3-.32a30.81,30.81,0,0,1,10.36-20.79,24.2,24.2,0,0,1,20.58-5.7C99,128,108.09,139.14,109.18,152.15Z"/><path class="cls-5" d="M97.91,152.49c-.63-7.43-5.78-13.78-12.28-15.1a13.76,13.76,0,0,0-11.74,3.26A17.53,17.53,0,0,0,68,152.49l-3.06-.32A21.21,21.21,0,0,1,72,137.89,16.58,16.58,0,0,1,86.2,134c8,1.62,14,9.1,14.78,18.19Z"/><path class="cls-5" d="M76.2,152.49l-3.06-.32A11.49,11.49,0,0,1,77,144.42a9,9,0,0,1,7.67-2.12c4.31.88,7.61,4.92,8,9.85l-3.06.32c-.27-3.34-2.59-6.2-5.51-6.77a6.18,6.18,0,0,0-5.28,1.46A7.88,7.88,0,0,0,76.2,152.49Z"/><path class="cls-5" d="M158.59,152.49c-1-11.5-9-21.34-19-23.39a21.34,21.34,0,0,0-18.19,5.05,27.2,27.2,0,0,0-9.16,18.35l-3-.32a30.84,30.84,0,0,1,10.35-20.79,24.22,24.22,0,0,1,20.59-5.7c11.39,2.33,20.44,13.46,21.53,26.47Z"/><path class="cls-5" d="M150.38,152.49c-.63-7.43-5.78-13.78-12.28-15.1a13.74,13.74,0,0,0-11.74,3.26,17.61,17.61,0,0,0-5.92,11.84l-3-.32a21.14,21.14,0,0,1,7.12-14.28A16.57,16.57,0,0,1,138.65,134c7.94,1.62,14,9.1,14.78,18.19Z"/><path class="cls-5" d="M128.69,152.49l-3-.32a11.45,11.45,0,0,1,3.86-7.75,9,9,0,0,1,7.67-2.12c4.32.88,7.61,4.92,8,9.85l-3.05.32c-.28-3.34-2.6-6.2-5.52-6.77a6.17,6.17,0,0,0-5.27,1.46A8,8,0,0,0,128.69,152.49Z"/><path class="cls-5" d="M211.06,152.49c-1-11.5-9-21.34-19-23.39a21.34,21.34,0,0,0-18.19,5.05,27.25,27.25,0,0,0-9.15,18.35l-3-.32A30.8,30.8,0,0,1,172,131.39a24.22,24.22,0,0,1,20.59-5.7C204,128,213,139.15,214.11,152.16Z"/><path class="cls-5" d="M202.84,152.49c-.62-7.43-5.78-13.78-12.27-15.1a13.74,13.74,0,0,0-11.74,3.26,17.5,17.5,0,0,0-5.92,11.84l-3-.32A21.2,21.2,0,0,1,177,137.89,16.58,16.58,0,0,1,191.11,134c7.95,1.62,14,9.1,14.79,18.19Z"/><path class="cls-5" d="M181.19,152.49l-3.06-.32a11.49,11.49,0,0,1,3.86-7.75,9,9,0,0,1,7.67-2.12c4.31.88,7.61,4.92,8,9.85l-3.06.32c-.27-3.34-2.59-6.2-5.51-6.77a6.18,6.18,0,0,0-5.28,1.46A7.88,7.88,0,0,0,181.19,152.49Z"/><path class="cls-5" d="M255.11,130.43a23.5,23.5,0,0,0-30.65,1,30.8,30.8,0,0,0-10.35,20.79l3.06.32a27.17,27.17,0,0,1,9.15-18.37,21.34,21.34,0,0,1,18.19-5,21.93,21.93,0,0,1,10.63,5.68Z"/><path class="cls-5" d="M255.11,142.32A18,18,0,0,0,243.58,134a16.58,16.58,0,0,0-14.14,3.91,21.09,21.09,0,0,0-7.11,14.28l3,.32a17.55,17.55,0,0,1,5.91-11.84,13.74,13.74,0,0,1,11.77-3.26c6.05,1.23,10.93,6.82,12.08,13.58Z"/><path class="cls-5" d="M233.62,152.49l-3.05-.32a11.45,11.45,0,0,1,3.86-7.75,9,9,0,0,1,7.67-2.12c4.31.88,7.61,4.92,8,9.85l-3.05.32c-.28-3.34-2.6-6.2-5.52-6.77a6.16,6.16,0,0,0-5.27,1.46A8,8,0,0,0,233.62,152.49Z"/><path class="cls-5" d="M9,101.25a23.56,23.56,0,0,0-5.17-.44v3.47a20.54,20.54,0,0,1,4.63.38c10.06,2.06,18.06,11.9,19,23.39l3.05-.33C29.4,114.72,20.34,103.58,9,101.25Z"/><path class="cls-5" d="M7.45,109.55a15.21,15.21,0,0,0-3.69-.3v3.47a12.84,12.84,0,0,1,3.15.24c6.49,1.33,11.66,7.68,12.27,15.11l3.05-.33C21.5,118.65,15.43,111.18,7.45,109.55Z"/><path class="cls-5" d="M6,117.87a8.7,8.7,0,0,0-2.22-.14v3.47a5.84,5.84,0,0,1,1.67.08A7.47,7.47,0,0,1,11,128.05l3-.33C13.61,122.81,10.31,118.74,6,117.87Z"/><path class="cls-5" d="M79.89,128.07c-1-11.51-9-21.35-19-23.39a21.42,21.42,0,0,0-18.19,5,27.27,27.27,0,0,0-9.15,18.36l-3.05-.33A30.82,30.82,0,0,1,40.83,107a24.23,24.23,0,0,1,20.59-5.7c11.39,2.33,20.44,13.47,21.52,26.47Z"/><path class="cls-5" d="M71.67,128.07c-.62-7.43-5.78-13.78-12.27-15.11a13.8,13.8,0,0,0-11.74,3.26,17.58,17.58,0,0,0-5.91,11.85l-3-.33a21.17,21.17,0,0,1,7.11-14.28A16.6,16.6,0,0,1,60,109.55c8,1.63,14,9.1,14.79,18.19Z"/><path class="cls-5" d="M50,128.07l-3.05-.33A11.5,11.5,0,0,1,50.79,120a9,9,0,0,1,7.67-2.12c4.31.88,7.61,4.93,8,9.85l-3.06.33c-.27-3.34-2.59-6.2-5.51-6.77a6.19,6.19,0,0,0-5.28,1.47A7.9,7.9,0,0,0,50,128.07Z"/><path class="cls-5" d="M132.36,128.07c-1-11.51-9-21.35-19-23.39a21.42,21.42,0,0,0-18.19,5A27.25,27.25,0,0,0,86,128.09l-3.06-.33A30.88,30.88,0,0,1,93.3,107a24.22,24.22,0,0,1,20.59-5.7c11.38,2.33,20.44,13.47,21.52,26.47Z"/><path class="cls-5" d="M124.14,128.07c-.62-7.43-5.78-13.78-12.27-15.11a13.77,13.77,0,0,0-11.74,3.26,17.53,17.53,0,0,0-5.91,11.85l-3.06-.33a21.22,21.22,0,0,1,7.11-14.28,16.6,16.6,0,0,1,14.17-3.91c8,1.63,14,9.1,14.78,18.19Z"/><path class="cls-5" d="M102.45,128.07l-3-.33a11.51,11.51,0,0,1,3.86-7.77,9,9,0,0,1,7.67-2.12c4.31.88,7.61,4.93,8,9.85l-3,.33c-.27-3.34-2.59-6.2-5.51-6.77a6.19,6.19,0,0,0-5.28,1.47A7.85,7.85,0,0,0,102.45,128.07Z"/><path class="cls-5" d="M184.83,128.07c-1-11.51-9-21.35-19-23.39a21.4,21.4,0,0,0-18.19,5,27.24,27.24,0,0,0-9.16,18.36l-3.05-.33A30.83,30.83,0,0,1,145.77,107a24.21,24.21,0,0,1,20.58-5.7c11.39,2.33,20.44,13.47,21.52,26.47Z"/><path class="cls-5" d="M176.61,128.07c-.63-7.43-5.78-13.78-12.28-15.11a13.82,13.82,0,0,0-11.74,3.26,17.62,17.62,0,0,0-5.91,11.85l-3.05-.33a21.17,21.17,0,0,1,7.11-14.28,16.6,16.6,0,0,1,14.14-3.91c8,1.63,14,9.1,14.78,18.19Z"/><path class="cls-5" d="M154.94,128.07l-3.05-.33a11.47,11.47,0,0,1,3.86-7.75,9,9,0,0,1,7.66-2.12c4.32.88,7.62,4.92,8,9.85l-3.05.32c-.28-3.33-2.6-6.19-5.52-6.77a6.21,6.21,0,0,0-5.27,1.48A7.91,7.91,0,0,0,154.94,128.07Z"/><path class="cls-5" d="M237.29,128.07c-1-11.51-8.95-21.35-19-23.39a21.4,21.4,0,0,0-18.19,5,27.22,27.22,0,0,0-9.16,18.36l-3.06-.33A30.92,30.92,0,0,1,198.23,107a24.25,24.25,0,0,1,20.62-5.7c11.39,2.33,20.44,13.47,21.53,26.47Z"/><path class="cls-5" d="M229.08,128.07c-.63-7.43-5.78-13.78-12.28-15.11a13.79,13.79,0,0,0-11.74,3.26,17.58,17.58,0,0,0-5.91,11.85l-3.06-.33a21.22,21.22,0,0,1,7.11-14.28,16.63,16.63,0,0,1,14.15-3.91c8,1.63,14,9.1,14.78,18.19Z"/><path class="cls-5" d="M207.39,128.07l-3-.33a11.52,11.52,0,0,1,3.85-7.75,9,9,0,0,1,7.68-2.12c4.31.88,7.61,4.92,8,9.85l-3,.32a7.4,7.4,0,0,0-5.51-6.77,6.21,6.21,0,0,0-5.27,1.48A7.81,7.81,0,0,0,207.39,128.07Z"/><path class="cls-5" d="M255.11,103.88A27,27,0,0,0,250.7,107a30.81,30.81,0,0,0-10.36,20.79l3,.33a27.3,27.3,0,0,1,9.16-18.36,25,25,0,0,1,2.56-1.91Z"/><path class="cls-5" d="M255.11,114a21.23,21.23,0,0,0-6.55,13.75l3.05.33a18,18,0,0,1,3.5-9.23Z"/><path class="cls-5" d="M53.66,100.8c-1-11.51-9-21.35-19-23.39a21.37,21.37,0,0,0-18.2,5A27.23,27.23,0,0,0,7.3,100.81l-3.06-.33A31,31,0,0,1,14.6,79.69,24.21,24.21,0,0,1,35.22,74c11.39,2.32,20.44,13.46,21.52,26.46Z"/><path class="cls-5" d="M45.44,100.8C44.82,93.37,39.66,87,33.16,85.69A13.79,13.79,0,0,0,21.42,89a17.62,17.62,0,0,0-5.91,11.85l-3.06-.33a21.19,21.19,0,0,1,7.12-14.28A16.58,16.58,0,0,1,33.7,82.28c7.95,1.62,14,9.11,14.78,18.19Z"/><path class="cls-5" d="M23.75,100.8l-3.05-.33a11.49,11.49,0,0,1,3.86-7.75,9,9,0,0,1,7.67-2.11c4.32.88,7.61,4.92,8,9.84l-3,.33A7.41,7.41,0,0,0,31.68,94a6.2,6.2,0,0,0-5.27,1.46A8,8,0,0,0,23.75,100.8Z"/><path class="cls-5" d="M106.13,100.8c-1-11.51-9-21.35-19-23.39a21.34,21.34,0,0,0-18.19,5,27.26,27.26,0,0,0-9.16,18.34l-3-.33A30.79,30.79,0,0,1,67.07,79.69,24.17,24.17,0,0,1,87.65,74c11.39,2.32,20.44,13.46,21.53,26.46Z"/><path class="cls-5" d="M97.91,100.8C97.28,93.37,92.13,87,85.63,85.69A13.79,13.79,0,0,0,73.89,89,17.58,17.58,0,0,0,68,100.8l-3.06-.33A21.27,21.27,0,0,1,72,86.19,16.58,16.58,0,0,1,86.2,82.28c8,1.62,14,9.11,14.78,18.19Z"/><path class="cls-5" d="M76.2,100.8l-3.06-.33A11.57,11.57,0,0,1,77,92.72a9,9,0,0,1,7.67-2.11c4.31.88,7.61,4.92,8,9.84l-3.06.33A7.39,7.39,0,0,0,84.13,94a6.22,6.22,0,0,0-5.28,1.46A7.88,7.88,0,0,0,76.2,100.8Z"/><path class="cls-5" d="M158.59,100.8c-1-11.51-9-21.35-19-23.39a21.34,21.34,0,0,0-18.19,5,27.2,27.2,0,0,0-9.16,18.35l-3-.33A30.84,30.84,0,0,1,119.53,79.7,24.22,24.22,0,0,1,140.12,74c11.39,2.32,20.44,13.46,21.53,26.47Z"/><path class="cls-5" d="M150.38,100.8c-.63-7.43-5.78-13.78-12.28-15.11A13.77,13.77,0,0,0,126.36,89a17.63,17.63,0,0,0-5.92,11.85l-3-.33a21.19,21.19,0,0,1,7.12-14.28,16.6,16.6,0,0,1,14.14-3.91c7.94,1.62,14,9.11,14.78,18.19Z"/><path class="cls-5" d="M128.69,100.8l-3-.33a11.49,11.49,0,0,1,3.86-7.75,9,9,0,0,1,7.67-2.11c4.32.88,7.61,4.92,8,9.84l-3.05.33A7.41,7.41,0,0,0,136.62,94a6.2,6.2,0,0,0-5.27,1.46A8,8,0,0,0,128.69,100.8Z"/><path class="cls-5" d="M211.06,100.8c-1-11.51-9-21.35-19-23.39a21.34,21.34,0,0,0-18.19,5,27.23,27.23,0,0,0-9.15,18.35l-3-.33A30.8,30.8,0,0,1,172,79.7,24.22,24.22,0,0,1,192.59,74C204,76.32,213,87.46,214.11,100.47Z"/><path class="cls-5" d="M202.84,100.8c-.62-7.43-5.78-13.78-12.27-15.11A13.77,13.77,0,0,0,178.83,89a17.55,17.55,0,0,0-5.92,11.85l-3-.33A21.22,21.22,0,0,1,177,86.19a16.61,16.61,0,0,1,14.14-3.91c7.95,1.62,14,9.11,14.79,18.19Z"/><path class="cls-5" d="M181.19,100.8l-3.06-.33A11.57,11.57,0,0,1,182,92.72a9,9,0,0,1,7.67-2.11c4.31.88,7.61,4.92,8,9.84l-3.06.33A7.39,7.39,0,0,0,189.12,94a6.22,6.22,0,0,0-5.28,1.46A7.88,7.88,0,0,0,181.19,100.8Z"/><path class="cls-5" d="M255.11,78.73a23.5,23.5,0,0,0-30.65,1,30.78,30.78,0,0,0-10.35,20.78l3.06.33a27.17,27.17,0,0,1,9.15-18.37,21.34,21.34,0,0,1,18.19-5.05,21.93,21.93,0,0,1,10.63,5.68Z"/><path class="cls-5" d="M255.11,90.63a18,18,0,0,0-11.53-8.35,16.61,16.61,0,0,0-14.14,3.91,21.17,21.17,0,0,0-7.11,14.28l3,.33A17.58,17.58,0,0,1,231.29,89a13.8,13.8,0,0,1,11.77-3.26c6.05,1.23,10.93,6.83,12.08,13.59Z"/><path class="cls-5" d="M233.62,100.8l-3.05-.33a11.49,11.49,0,0,1,3.86-7.75,9,9,0,0,1,7.67-2.11c4.31.88,7.61,4.92,8,9.84l-3.05.33A7.41,7.41,0,0,0,241.55,94a6.19,6.19,0,0,0-5.27,1.46A8,8,0,0,0,233.62,100.8Z"/><path class="cls-5" d="M9,49.56a23,23,0,0,0-5.17-.44v3.46A20,20,0,0,1,8.41,53c10.06,2.06,18.06,11.9,19,23.39L30.48,76C29.4,63,20.34,51.89,9,49.56Z"/><path class="cls-5" d="M7.45,57.86a15.21,15.21,0,0,0-3.69-.3V61a12.84,12.84,0,0,1,3.15.24C13.4,62.59,18.57,69,19.18,76.38l3.05-.33C21.5,67,15.43,59.48,7.45,57.86Z"/><path class="cls-5" d="M6,66.18A9.19,9.19,0,0,0,3.78,66V69.5a5.84,5.84,0,0,1,1.67.08A7.47,7.47,0,0,1,11,76.35L14,76C13.61,71.12,10.31,67,6,66.18Z"/><path class="cls-5" d="M79.89,76.38c-1-11.51-9-21.35-19-23.39a21.35,21.35,0,0,0-18.19,5A27.25,27.25,0,0,0,33.53,76.4l-3.05-.33A30.91,30.91,0,0,1,40.83,55.26a24.2,24.2,0,0,1,20.59-5.7C72.81,51.89,81.86,63,82.94,76Z"/><path class="cls-5" d="M71.67,76.38C71.05,69,65.89,62.59,59.4,61.27a13.77,13.77,0,0,0-11.74,3.26,17.56,17.56,0,0,0-5.91,11.85l-3-.33a21.17,21.17,0,0,1,7.11-14.28A16.6,16.6,0,0,1,60,57.86c8,1.62,14,9.1,14.79,18.19Z"/><path class="cls-5" d="M50,76.38l-3.05-.33a11.48,11.48,0,0,1,3.85-7.78,9,9,0,0,1,7.67-2.12c4.31.88,7.61,4.93,8,9.85l-3.06.33a7.39,7.39,0,0,0-5.51-6.77A6.19,6.19,0,0,0,52.64,71,7.93,7.93,0,0,0,50,76.38Z"/><path class="cls-5" d="M132.36,76.38c-1-11.51-9-21.35-19-23.39a21.35,21.35,0,0,0-18.19,5A27.25,27.25,0,0,0,86,76.4l-3.06-.33A30.86,30.86,0,0,1,93.3,55.28a24.19,24.19,0,0,1,20.59-5.7c11.38,2.33,20.44,13.47,21.52,26.47Z"/><path class="cls-5" d="M124.14,76.38c-.62-7.43-5.78-13.79-12.27-15.11a13.74,13.74,0,0,0-11.74,3.26,17.47,17.47,0,0,0-5.91,11.85l-3.06-.33a21.22,21.22,0,0,1,7.11-14.28,16.6,16.6,0,0,1,14.17-3.91c8,1.62,14,9.1,14.78,18.19Z"/><path class="cls-5" d="M102.45,76.38l-3-.33a11.49,11.49,0,0,1,3.86-7.78,9,9,0,0,1,7.67-2.12c4.31.88,7.61,4.93,8,9.85l-3,.33a7.39,7.39,0,0,0-5.51-6.77A6.19,6.19,0,0,0,105.11,71,7.87,7.87,0,0,0,102.45,76.38Z"/><path class="cls-5" d="M184.83,76.38c-1-11.51-9-21.35-19-23.39a21.34,21.34,0,0,0-18.19,5,27.22,27.22,0,0,0-9.16,18.36l-3.05-.33a30.81,30.81,0,0,1,10.36-20.79,24.17,24.17,0,0,1,20.58-5.7c11.39,2.33,20.44,13.47,21.52,26.47Z"/><path class="cls-5" d="M176.61,76.38C176,69,170.83,62.59,164.33,61.27a13.79,13.79,0,0,0-11.74,3.26,17.56,17.56,0,0,0-5.91,11.85l-3.05-.33a21.11,21.11,0,0,1,7.11-14.28,16.57,16.57,0,0,1,14.14-3.91c8,1.62,14,9.1,14.78,18.19Z"/><path class="cls-5" d="M154.94,76.38l-3.05-.33a11.45,11.45,0,0,1,3.86-7.75,9,9,0,0,1,7.66-2.12c4.32.88,7.62,4.92,8,9.85l-3.05.32a7.41,7.41,0,0,0-5.52-6.77,6.2,6.2,0,0,0-5.27,1.47A7.93,7.93,0,0,0,154.94,76.38Z"/><path class="cls-5" d="M237.29,76.38c-1-11.51-8.95-21.35-19-23.39a21.34,21.34,0,0,0-18.19,5,27.22,27.22,0,0,0-9.16,18.36l-3.06-.33a30.9,30.9,0,0,1,10.36-20.79,24.22,24.22,0,0,1,20.62-5.7c11.39,2.33,20.44,13.47,21.53,26.47Z"/><path class="cls-5" d="M229.08,76.38c-.63-7.43-5.78-13.79-12.28-15.11a13.76,13.76,0,0,0-11.74,3.26,17.56,17.56,0,0,0-5.91,11.85l-3.06-.33a21.22,21.22,0,0,1,7.11-14.28,16.63,16.63,0,0,1,14.15-3.91c8,1.62,14,9.1,14.78,18.19Z"/><path class="cls-5" d="M207.39,76.38l-3-.33a11.5,11.5,0,0,1,3.85-7.75,9,9,0,0,1,7.68-2.12c4.31.88,7.61,4.92,8,9.85l-3,.32a7.39,7.39,0,0,0-5.51-6.77,6.17,6.17,0,0,0-5.27,1.47A7.85,7.85,0,0,0,207.39,76.38Z"/><path class="cls-5" d="M255.11,52.19a27,27,0,0,0-4.41,3.08,30.81,30.81,0,0,0-10.36,20.79l3,.32A27.28,27.28,0,0,1,252.55,58a25,25,0,0,1,2.56-1.91Z"/><path class="cls-5" d="M255.11,62.3a21.23,21.23,0,0,0-6.55,13.75l3.05.33a17.92,17.92,0,0,1,3.5-9.23Z"/><path class="cls-5" d="M53.66,49.11c-1-11.51-9-21.35-19-23.39a21.37,21.37,0,0,0-18.2,5.05A27.2,27.2,0,0,0,7.3,49.11l-3.06-.33A31,31,0,0,1,14.6,28,24.21,24.21,0,0,1,35.22,22.3c11.39,2.32,20.44,13.46,21.52,26.46Z"/><path class="cls-5" d="M45.44,49.11C44.82,41.68,39.66,35.33,33.16,34a13.76,13.76,0,0,0-11.74,3.26,17.6,17.6,0,0,0-5.91,11.85l-3.06-.33A21.16,21.16,0,0,1,19.57,34.5,16.58,16.58,0,0,1,33.7,30.59c7.95,1.62,14,9.1,14.78,18.19Z"/><path class="cls-5" d="M23.75,49.11l-3.05-.33A11.47,11.47,0,0,1,24.56,41a9,9,0,0,1,7.67-2.12c4.32.88,7.61,4.92,8,9.85l-3,.32c-.28-3.33-2.6-6.19-5.52-6.77a6.24,6.24,0,0,0-5.27,1.47A7.93,7.93,0,0,0,23.75,49.11Z"/><path class="cls-5" d="M106.13,49.11c-1-11.51-9-21.35-19-23.39a21.34,21.34,0,0,0-18.19,5.05,27.26,27.26,0,0,0-9.16,18.34l-3-.33A30.83,30.83,0,0,1,67.07,28,24.16,24.16,0,0,1,87.65,22.3C99,24.62,108.09,35.76,109.18,48.76Z"/><path class="cls-5" d="M97.91,49.11C97.28,41.68,92.13,35.33,85.63,34a13.76,13.76,0,0,0-11.74,3.26A17.56,17.56,0,0,0,68,49.11l-3-.33A21.22,21.22,0,0,1,72.06,34.5,16.61,16.61,0,0,1,86.2,30.59c8,1.62,14,9.1,14.78,18.19Z"/><path class="cls-5" d="M76.2,49.11l-3.06-.33A11.57,11.57,0,0,1,77,41a9,9,0,0,1,7.67-2.12c4.31.88,7.61,4.92,8,9.85l-3.06.32a7.4,7.4,0,0,0-5.51-6.77,6.25,6.25,0,0,0-5.28,1.47A7.88,7.88,0,0,0,76.2,49.11Z"/><path class="cls-5" d="M158.59,49.11c-1-11.51-9-21.35-19-23.39a21.34,21.34,0,0,0-18.19,5.05,27.2,27.2,0,0,0-9.16,18.35l-3-.33A30.87,30.87,0,0,1,119.53,28a24.21,24.21,0,0,1,20.59-5.69c11.39,2.32,20.44,13.46,21.53,26.46Z"/><path class="cls-5" d="M150.38,49.11c-.63-7.43-5.78-13.78-12.28-15.11a13.74,13.74,0,0,0-11.74,3.26,17.61,17.61,0,0,0-5.92,11.85l-3-.33a21.16,21.16,0,0,1,7.12-14.28,16.6,16.6,0,0,1,14.14-3.91c7.94,1.62,14,9.1,14.78,18.19Z"/><path class="cls-5" d="M128.69,49.11l-3-.33A11.47,11.47,0,0,1,129.5,41a9,9,0,0,1,7.67-2.12c4.32.88,7.61,4.92,8,9.85l-3.05.32c-.28-3.33-2.6-6.19-5.52-6.77a6.24,6.24,0,0,0-5.27,1.47A7.93,7.93,0,0,0,128.69,49.11Z"/><path class="cls-5" d="M211.06,49.11c-1-11.51-9-21.35-19-23.39a21.34,21.34,0,0,0-18.19,5.05,27.23,27.23,0,0,0-9.15,18.35l-3-.33A30.82,30.82,0,0,1,172,28a24.21,24.21,0,0,1,20.59-5.69C204,24.63,213,35.77,214.11,48.77Z"/><path class="cls-5" d="M202.84,49.11c-.62-7.43-5.78-13.78-12.27-15.11a13.74,13.74,0,0,0-11.74,3.26,17.53,17.53,0,0,0-5.92,11.85l-3-.33A21.22,21.22,0,0,1,177,34.5a16.61,16.61,0,0,1,14.14-3.91c7.95,1.62,14,9.1,14.79,18.19Z"/><path class="cls-5" d="M181.19,49.11l-3.06-.33A11.57,11.57,0,0,1,182,41a9,9,0,0,1,7.67-2.12c4.31.88,7.61,4.92,8,9.85l-3.06.32a7.4,7.4,0,0,0-5.51-6.77,6.25,6.25,0,0,0-5.28,1.47A7.88,7.88,0,0,0,181.19,49.11Z"/><path class="cls-5" d="M255.11,27a23.52,23.52,0,0,0-30.65.95,30.8,30.8,0,0,0-10.35,20.79l3.06.33a27.21,27.21,0,0,1,9.15-18.38,21.34,21.34,0,0,1,18.19-5.05,21.93,21.93,0,0,1,10.63,5.68Z"/><path class="cls-5" d="M255.11,38.93a18,18,0,0,0-11.53-8.34,16.61,16.61,0,0,0-14.14,3.91,21.15,21.15,0,0,0-7.11,14.28l3,.33a17.56,17.56,0,0,1,5.91-11.85A13.8,13.8,0,0,1,243.06,34c6.05,1.23,10.93,6.82,12.08,13.58Z"/><path class="cls-5" d="M233.62,49.11l-3.06-.33A11.5,11.5,0,0,1,234.41,41a9,9,0,0,1,7.68-2.12c4.31.88,7.6,4.92,8,9.85l-3.05.32c-.28-3.33-2.6-6.19-5.52-6.77a6.25,6.25,0,0,0-5.28,1.47A7.93,7.93,0,0,0,233.62,49.11Z"/><path class="cls-5" d="M9-2.13a22.4,22.4,0,0,0-5.17-.44V.89a20,20,0,0,1,4.63.39c10.06,2.06,18.06,11.9,19,23.39l3.05-.32C29.4,11.34,20.34.2,9-2.13Z"/><path class="cls-5" d="M7.45,6.17a15,15,0,0,0-3.67-.3V9.33a12.89,12.89,0,0,1,3.16.25c6.49,1.32,11.65,7.68,12.27,15.1l3.05-.32C21.5,15.27,15.43,7.79,7.45,6.17Z"/><path class="cls-5" d="M6,14.49a8.28,8.28,0,0,0-2.22-.15V17.8a5.85,5.85,0,0,1,1.67.09A7.47,7.47,0,0,1,11,24.66l3-.32C13.61,19.42,10.31,15.34,6,14.49Z"/><path class="cls-5" d="M79.89,24.68c-1-11.5-9-21.34-19-23.39A21.39,21.39,0,0,0,42.68,6.34a27.2,27.2,0,0,0-9.15,18.34l-3.05-.32A30.89,30.89,0,0,1,40.83,3.57a24.17,24.17,0,0,1,20.59-5.7C72.81.2,81.86,11.34,82.94,24.33Z"/><path class="cls-5" d="M71.67,24.68c-.62-7.42-5.78-13.78-12.27-15.1a13.74,13.74,0,0,0-11.74,3.26,17.55,17.55,0,0,0-5.91,11.84l-3-.32a21.23,21.23,0,0,1,7.1-14.29A16.59,16.59,0,0,1,60,6.17c8,1.62,14,9.1,14.79,18.19Z"/><path class="cls-5" d="M50,24.68l-3.05-.32a11.52,11.52,0,0,1,3.85-7.76,9,9,0,0,1,7.67-2.11c4.31.88,7.61,4.92,8,9.84l-3.06.32a7.42,7.42,0,0,0-5.51-6.76,6.16,6.16,0,0,0-5.28,1.47A7.86,7.86,0,0,0,50,24.68Z"/><path class="cls-5" d="M132.36,24.68c-1-11.5-9-21.34-19-23.39A21.39,21.39,0,0,0,95.15,6.34,27.23,27.23,0,0,0,86,24.69l-3.06-.32A30.88,30.88,0,0,1,93.3,3.58a24.22,24.22,0,0,1,20.59-5.7c11.38,2.33,20.44,13.47,21.52,26.47Z"/><path class="cls-5" d="M124.14,24.68c-.62-7.42-5.78-13.78-12.27-15.1a13.74,13.74,0,0,0-11.74,3.26,17.49,17.49,0,0,0-5.91,11.84l-3.06-.32a21.22,21.22,0,0,1,7.11-14.29,16.58,16.58,0,0,1,14.17-3.9c8,1.62,14,9.1,14.78,18.19Z"/><path class="cls-5" d="M102.45,24.68l-3-.32a11.52,11.52,0,0,1,3.85-7.76,9,9,0,0,1,7.68-2.11c4.31.88,7.61,4.92,8,9.84l-3,.32a7.42,7.42,0,0,0-5.51-6.76,6.14,6.14,0,0,0-5.27,1.47A7.81,7.81,0,0,0,102.45,24.68Z"/><path class="cls-5" d="M184.83,24.68c-1-11.5-9-21.34-19-23.39a21.37,21.37,0,0,0-18.19,5.05,27.2,27.2,0,0,0-9.16,18.35l-3.05-.32A30.83,30.83,0,0,1,145.77,3.58a24.21,24.21,0,0,1,20.58-5.7C177.74.2,186.81,11.34,187.87,24.36Z"/><path class="cls-5" d="M176.61,24.68c-.63-7.42-5.78-13.78-12.28-15.1a13.76,13.76,0,0,0-11.74,3.26,17.55,17.55,0,0,0-5.91,11.84l-3.05-.32a21.18,21.18,0,0,1,7.11-14.29,16.56,16.56,0,0,1,14.14-3.9c8,1.62,14,9.1,14.78,18.19Z"/><path class="cls-5" d="M154.94,24.68l-3.05-.32a11.49,11.49,0,0,1,3.86-7.76,9,9,0,0,1,7.66-2.11c4.32.88,7.62,4.92,8,9.84l-3.05.32a7.44,7.44,0,0,0-5.52-6.76,6.14,6.14,0,0,0-5.27,1.47A7.91,7.91,0,0,0,154.94,24.68Z"/><path class="cls-5" d="M237.29,24.68c-1-11.5-8.95-21.34-19-23.39a21.37,21.37,0,0,0-18.19,5.05,27.2,27.2,0,0,0-9.16,18.35l-3.06-.32A30.92,30.92,0,0,1,198.23,3.58a24.25,24.25,0,0,1,20.62-5.7c11.39,2.33,20.44,13.47,21.53,26.47Z"/><path class="cls-5" d="M229.08,24.68c-.63-7.42-5.78-13.78-12.28-15.1a13.76,13.76,0,0,0-11.74,3.26,17.53,17.53,0,0,0-5.91,11.84l-3.06-.32a21.22,21.22,0,0,1,7.11-14.29,16.62,16.62,0,0,1,14.15-3.9c8,1.62,14,9.1,14.78,18.19Z"/><path class="cls-5" d="M207.39,24.68l-3.08-.32a11.49,11.49,0,0,1,3.86-7.76,9,9,0,0,1,7.67-2.11c4.31.88,7.61,4.92,8,9.84l-3.05.32a7.43,7.43,0,0,0-5.51-6.76A6.16,6.16,0,0,0,210,19.36,7.86,7.86,0,0,0,207.39,24.68Z"/><path class="cls-5" d="M255.11.5a27,27,0,0,0-4.41,3.08,30.81,30.81,0,0,0-10.36,20.79l3,.32a27.3,27.3,0,0,1,9.16-18.36,26.5,26.5,0,0,1,2.56-1.9Z"/><path class="cls-5" d="M255.11,10.61a21.23,21.23,0,0,0-6.55,13.75l3.05.32a18,18,0,0,1,3.5-9.23Z"/></g></g><path class="cls-6" d="M125.57,214h.08l0-.06Z"/><path class="cls-7" d="M243.77,21.39v-15h-12.5V14h-3.33V6.36h-9.7V21.53h-8.6V18.35H216v-12H208V16.47h-8V6.87H50.63v9.6h-8V6.36H34.54v12h6.38v3.18h-8.6V6.36H22.61V14H19.28V6.36H6.78v15h6.11v3.84H6.79V38.91H18.17V49.16H16V40.4H6.79V51h7.5v7.89H6.79V339.42h7.5v7.89H6.79V358H16v-8.76h2.22v10.25H6.79v13.67H12.9V377H6.79v15h12.5v-7.6h3.33V392h9.7V376.82h8.6V380H34.54v12h8.05V381.87h8v9.6h0v.87H199.18v-.24h0v-9.6h8v10.11h8v-12h-6.38v-3.18h8.61v15.17h9.71V385h3.35v7.58h12.5v-15H237v-3.85h6.1V360.06H231.68V349.81h2.22v8.76h9.16V347.93h-7.5V340h7.5V58.93h-6.78V51h7.5V40.4h-9.17v8.76h-2.22V38.91h11.38V25.23h-6.11V21.39ZM209.64,8.24h4.71v8.23h-4.71ZM14.29,356.07H8.45v-6.88h5.84Zm26.63,34H36.2v-8.23h4.72ZM236.28,42.28h5.82v6.88h-5.82ZM233,15.81H236V19.5H233ZM36.2,16.47V8.24h4.72v8.23Zm-11.93-.62h2.5v3.7h-2.5ZM8.45,19.55V8.24h9.17V14H12.9v5.54Zm9.17-3.7v3.7H14.56v-3.7ZM14.56,27.11h2.77v5.2H14.56Zm-6.11,22V42.28h5.84v6.88Zm9.17,341H8.45V378.85H12.9v5.54h4.72Zm0-7.59H14.56v-3.69h3.06Zm196,0v8.24h-4.72V382.5Zm11.95.62h-2.5v-3.69h2.5Zm15.82-3.69v11.26H232.2V385h4.72v-5.54Zm-9.16,3.69v-3.69h3.05v3.69Zm3.05-11.29H232.5v-5.2h2.77Zm6.11-22.05v6.88h-5.82v-6.88Zm.74-322.7V37H230.75V51h3.88v9.77h6.19V338.16h-6.94v9.77H230v14h11.38v9.91h-4.44v-7.08h-6.11v9h4.44v3.85h-4.71v5.53h-3.33v-5.53H221.4V385h4.16v5.7h-6.4V375.57H207.23v5.05h-9.71v9.23H52.3V380H42.59V375H30.66v15.17H24.27v-5.71h4.16V377H22.61v5.54H19.28V377H14.56v-3.85H19v-8.95H12.9v7.07H8.45v-9.91H19.83v-14H16v-9.78H9V60.81H16V51h3.88V37H8.45V27.11H12.9v7.08H19v-9H14.56V21.39h4.72V15.85h3.33v5.54h5.82V14H24.27V8.24h6.39V23.41H42.59V18.35H52.3v-9h146v9H208v5.06h12V8.24h6.38V14h-4.19v7.44H228V15.85h3.33v5.54H236v3.84h-4.44v9h6.1V27.11ZM24.27,382.52v-3.69h2.5v3.69Zm-9.71-11.29V366h2.77v5.2ZM226.28,15.82v3.7h-2.5v-3.7ZM236,27.11v5.2h-2.78v-5.2ZM233,14V8.24h9.15V19.5h-4.44V14Z"/><path class="cls-8" d="M33.12,260.58s.29-2.08.32-2.2a11.39,11.39,0,0,1,2.14-4.51c3.52-4.43,9.93-4.35,14.65-2,3.41,1.71,5.33,4.31,7.38,7.34,1.55,2.29,4.13,5.43,7.21,5.43.05,0,.62-1.23.72-1.33A9.59,9.59,0,0,1,68,260.7a8.85,8.85,0,0,1,10.49.15,9.26,9.26,0,0,1,2.15,13l0,0a8.56,8.56,0,0,1-6.87,3.59s-6.22.69-9.82-3.79c0,0-5.3,4.17-11.76,1.77a15.51,15.51,0,0,0-2.2,1.38,20.18,20.18,0,0,1-6.18,2.1c-5.28.84-11.75-.62-14.86-5.23S26.36,261.35,33.12,260.58Z"/><path class="cls-9" d="M82.2,266.45a10.3,10.3,0,0,0-4-6.09,9.57,9.57,0,0,0-5.75-1.91A9.42,9.42,0,0,0,67,260.21,10.27,10.27,0,0,0,64.29,263s-.12.22-.23.44l-.31.61c-2-.18-4.14-1.9-6.33-5.14-2.08-3.07-4.09-5.78-7.61-7.54a15.83,15.83,0,0,0-6.92-1.68,10.63,10.63,0,0,0-8.53,3.83,13.3,13.3,0,0,0-2.54,6.56A6.79,6.79,0,0,0,26.54,264a10.73,10.73,0,0,0,1.18,10.16c2.44,3.6,7.12,5.74,12.5,5.74a18.48,18.48,0,0,0,3-.23,20.84,20.84,0,0,0,6.38-2.16l.62-.42c.31-.21,1-.67,1.3-.85a12.3,12.3,0,0,0,4.09.66,14.13,14.13,0,0,0,7.54-2.3c2.95,3.25,7.23,3.61,9,3.61a7.87,7.87,0,0,0,1,0,9.24,9.24,0,0,0,7.36-3.85A10.19,10.19,0,0,0,82.2,266.45Zm-2.77,7.14A8,8,0,0,1,73,276.91h-.86c-1.65,0-5.78-.35-8.39-3.59l-.39-.5-.5.4a12.93,12.93,0,0,1-7.28,2.4,11.2,11.2,0,0,1-3.89-.7l-.13-.05h0a7.7,7.7,0,0,1-5.12-3.46,6.07,6.07,0,0,1-.57-5.1,5.47,5.47,0,0,1,5.69-3.92c2.61.12,5.63,1.37,6.25,4.51a4.69,4.69,0,0,1-.36,3.17c-.75,1.41-2.59,1.9-3.94,1.9h0a4.44,4.44,0,0,1-3.53-2,3,3,0,0,1-.33-2.67A2,2,0,0,1,51.93,266a2.52,2.52,0,0,1,2.2,2.18.63.63,0,0,0,1.25-.08,3.79,3.79,0,0,0-3.27-3.34,3.28,3.28,0,0,0-3.69,2,4.25,4.25,0,0,0,.43,3.81,5.77,5.77,0,0,0,4.66,2.65h0c1.78,0,4.05-.67,5.06-2.56a5.93,5.93,0,0,0,.49-4c-.63-3.17-3.57-5.34-7.46-5.54a6.76,6.76,0,0,0-7,4.8,7.38,7.38,0,0,0,.68,6.13,8.82,8.82,0,0,0,4.59,3.64l-.44.3-.48.33a19.24,19.24,0,0,1-6,2,17.15,17.15,0,0,1-2.77.22c-5,0-9.26-1.94-11.46-5.18a9.58,9.58,0,0,1-1.08-8.95,5.71,5.71,0,0,1,4.75-3.23,10.72,10.72,0,0,1,5.13,1.15,7.25,7.25,0,0,1,3.51,4.42,4.93,4.93,0,0,1-.49,4,4.7,4.7,0,0,1-4,2.11c-1.93-.06-4.11-1.6-4.14-3.56A2.46,2.46,0,0,1,34,266.91a2.66,2.66,0,0,1,2.92.61.64.64,0,0,0,.9,0,.62.62,0,0,0,0-.89h0a4,4,0,0,0-4.32-.86,3.69,3.69,0,0,0-2.3,3.55c.05,2.73,2.87,4.72,5.38,4.8h.18a5.94,5.94,0,0,0,5-2.7,6.16,6.16,0,0,0,.63-5,8.6,8.6,0,0,0-4.14-5.2,11.56,11.56,0,0,0-1.25-.55,5.33,5.33,0,0,1,2.42-4.54,6,6,0,0,1,6-.55,3.39,3.39,0,0,1,1.88,2.06,2.37,2.37,0,0,1-.69,2.42,2.16,2.16,0,0,1-2,.26,1.81,1.81,0,0,1-1.25-1.29,1.94,1.94,0,0,1,.62-1.52.44.44,0,0,1,.52-.06.64.64,0,0,0,.85-.27h0a.6.6,0,0,0-.26-.83h0a1.74,1.74,0,0,0-1.87.19,2.78,2.78,0,0,0,1,5,3.38,3.38,0,0,0,3.26-.48,3.6,3.6,0,0,0,1.1-3.69,4.65,4.65,0,0,0-2.54-2.85,7.32,7.32,0,0,0-7.27.65,6.61,6.61,0,0,0-2.94,5.14,13.21,13.21,0,0,0-2.5-.35c.08-.57.19-1.32.22-1.43a10.8,10.8,0,0,1,2-4.27,9.33,9.33,0,0,1,7.53-3.35,14.35,14.35,0,0,1,6.34,1.54c3.26,1.63,5.09,4.08,7.14,7.12,2.35,3.49,4.74,5.37,7.12,5.65a8,8,0,0,0,2.29,5.42,5.9,5.9,0,0,0,4.12,1.45,8.47,8.47,0,0,0,1.13-.07c2.55-.3,4.33-1.37,5.29-3.17a5.11,5.11,0,0,0-.26-5.2A4.5,4.5,0,0,0,71,262.11a3.7,3.7,0,0,0-2.69,3.75A3.2,3.2,0,0,0,71.55,269a3.38,3.38,0,0,0,1.3-.29.62.62,0,0,0,.35-.81v0a.64.64,0,0,0-.82-.33h0a2,2,0,0,1-1.88-.1,2,2,0,0,1-.92-1.64,2.46,2.46,0,0,1,1.82-2.51,3.3,3.3,0,0,1,3.67,1,3.88,3.88,0,0,1,.17,3.92c-.76,1.43-2.16,2.25-4.31,2.5a5.18,5.18,0,0,1-4.24-1.06c-1.7-1.52-1.87-4.19-1.87-4.88.12-.19.25-.46.45-.85l.17-.32a8.84,8.84,0,0,1,2.34-2.46,8.07,8.07,0,0,1,4.7-1.51,8.33,8.33,0,0,1,5,1.67,8.65,8.65,0,0,1,2,12.18l0,0Z"/><path class="cls-10" d="M181.65,357.53s.23-1.63.26-1.73a9,9,0,0,1,1.66-3.55c2.77-3.47,7.82-3.42,11.53-1.56,2.69,1.35,4.19,3.38,5.8,5.77,1.22,1.81,3.25,4.27,5.68,4.27,0,0,.51-1,.56-1a7.61,7.61,0,0,1,2-2.06,7,7,0,0,1,8.25.12A7.32,7.32,0,0,1,219.05,368a6.81,6.81,0,0,1-5.42,2.82s-4.89.54-7.72-3a10.16,10.16,0,0,1-9.25,1.39,12.07,12.07,0,0,0-1.74,1.09,15.7,15.7,0,0,1-4.86,1.65c-4.15.66-9.23-.51-11.69-4.12S176.33,358.15,181.65,357.53Z"/><path class="cls-11" d="M220.27,362.13a8.07,8.07,0,0,0-3.13-4.79,7.46,7.46,0,0,0-8.85-.13,8,8,0,0,0-2.1,2.17s-.1.17-.19.34-.15.32-.23.47q-2.4-.22-5-4.05c-1.64-2.42-3.22-4.54-6-5.93a12.42,12.42,0,0,0-5.46-1.29,8.31,8.31,0,0,0-6.7,3,9.6,9.6,0,0,0-1.77,3.75,9.5,9.5,0,0,0-.23,1.4,5.4,5.4,0,0,0-4.16,3.08,8.45,8.45,0,0,0,.93,8c1.92,2.83,5.63,4.51,9.84,4.51a15.4,15.4,0,0,0,2.35-.18,16.11,16.11,0,0,0,5-1.71,4.45,4.45,0,0,0,.48-.32c.24-.16.76-.52,1-.67a9.58,9.58,0,0,0,3.23.56,11.2,11.2,0,0,0,5.94-1.81,9.68,9.68,0,0,0,7.07,2.84,6.24,6.24,0,0,0,.77,0,7.29,7.29,0,0,0,5.79-3A8,8,0,0,0,220.27,362.13Zm-2.21,5.61a6.21,6.21,0,0,1-5.06,2.61h-.67a8.52,8.52,0,0,1-6.6-2.82l-.31-.39-.4.31a10.19,10.19,0,0,1-5.7,1.88,9.11,9.11,0,0,1-3.06-.56h-.1a6.11,6.11,0,0,1-4-2.72,4.78,4.78,0,0,1-.43-4,4.31,4.31,0,0,1,4.47-3.08c2.06.1,4.43,1.08,4.93,3.55a3.72,3.72,0,0,1-.27,2.5,3.6,3.6,0,0,1-3.13,1.49h0a3.47,3.47,0,0,1-2.79-1.61,2.31,2.31,0,0,1-.26-2.1,1.58,1.58,0,0,1,1.82-.94,2,2,0,0,1,1.73,1.71.49.49,0,0,0,.53.46.5.5,0,0,0,.47-.52,3,3,0,0,0-2.57-2.63,2.58,2.58,0,0,0-2.91,1.55,3.33,3.33,0,0,0,.34,3,4.56,4.56,0,0,0,3.64,2.06h0a4.48,4.48,0,0,0,4-2,4.64,4.64,0,0,0,.37-3.15c-.5-2.46-2.8-4.2-5.86-4.35a5.34,5.34,0,0,0-5.48,3.78,5.83,5.83,0,0,0,.54,4.82,6.92,6.92,0,0,0,3.59,2.86l-.34.24-.38.26a15.09,15.09,0,0,1-4.71,1.6,14.45,14.45,0,0,1-2.18.17c-3.91,0-7.28-1.53-9-4.08a7.56,7.56,0,0,1-.85-7,4.46,4.46,0,0,1,3.75-2.55,8.45,8.45,0,0,1,4,.9,5.73,5.73,0,0,1,2.75,3.48,3.83,3.83,0,0,1-.39,3.13,3.67,3.67,0,0,1-3.16,1.66c-1.52-.05-3.24-1.23-3.27-2.8a1.93,1.93,0,0,1,1.2-1.88,2.09,2.09,0,0,1,2.3.47.5.5,0,0,0,.71,0,.48.48,0,0,0,0-.69h0a3.12,3.12,0,0,0-3.4-.69,2.93,2.93,0,0,0-1.82,2.8c0,2.14,2.26,3.7,4.24,3.78h.14a4.72,4.72,0,0,0,3.9-2.13,4.87,4.87,0,0,0,.51-3.92,6.76,6.76,0,0,0-3.26-4.09,7.85,7.85,0,0,0-1-.43,4.23,4.23,0,0,1,1.88-3.56,4.76,4.76,0,0,1,4.71-.43,2.66,2.66,0,0,1,1.46,1.62,1.86,1.86,0,0,1-.53,1.91,1.72,1.72,0,0,1-1.6.2,1.45,1.45,0,0,1-1-1,1.49,1.49,0,0,1,.51-1.18.35.35,0,0,1,.41-.06.49.49,0,0,0,.44-.88,1.36,1.36,0,0,0-1.46.15,2.2,2.2,0,0,0,.77,3.92,2.67,2.67,0,0,0,2.56-.38,2.83,2.83,0,0,0,.87-2.93,3.66,3.66,0,0,0-2-2.24,5.78,5.78,0,0,0-5.72.51,5.22,5.22,0,0,0-2.31,4.07,10.26,10.26,0,0,0-2-.28c.07-.45.15-1,.17-1.13a8.52,8.52,0,0,1,1.58-3.36,7.33,7.33,0,0,1,5.92-2.64,11.57,11.57,0,0,1,5,1.23c2.57,1.29,4,3.22,5.63,5.61,1.87,2.74,3.75,4.23,5.62,4.45a6.39,6.39,0,0,0,1.8,4.26,4.65,4.65,0,0,0,3.25,1.14,8.85,8.85,0,0,0,.89,0,5,5,0,0,0,4.15-2.5,4,4,0,0,0-.2-4.09,3.56,3.56,0,0,0-4-1.2,2.9,2.9,0,0,0-2.11,2.95,2.51,2.51,0,0,0,2.56,2.46,2.55,2.55,0,0,0,1-.23.49.49,0,0,0,.2-.67.5.5,0,0,0-.6-.23,1.52,1.52,0,0,1-2.21-1.37,1.92,1.92,0,0,1,1.43-2,2.59,2.59,0,0,1,2.89.82,3.06,3.06,0,0,1,.14,3.08,4.9,4.9,0,0,1-6.73,1.14,5.63,5.63,0,0,1-1.49-3.84c.09-.16.2-.37.35-.67A2.87,2.87,0,0,0,207,360,7.46,7.46,0,0,1,208.9,358a6.46,6.46,0,0,1,3.75-1.2,6.61,6.61,0,0,1,3.93,1.32,7,7,0,0,1,2.76,4.2A7.12,7.12,0,0,1,218.06,367.74Z"/><ellipse class="cls-12" cx="125.41" cy="300.84" rx="31.43" ry="30.96"/><g class="cls-13"><path class="cls-14" d="M100.57,315.07A28.08,28.08,0,0,1,111,276.37a29,29,0,0,1,39.29,10.27,28.06,28.06,0,0,1-10.43,38.7h0A29,29,0,0,1,100.57,315.07ZM149,287.37a27.5,27.5,0,0,0-37.26-9.75,26.63,26.63,0,0,0-9.91,36.69,27.51,27.51,0,0,0,37.26,9.76A26.67,26.67,0,0,0,149,287.37Z"/></g><path class="cls-15" d="M120.06,320.68l-1.31-6.23a26.69,26.69,0,0,0-8.64-14.67l-4.83-4.21,6.31-1.29a27.3,27.3,0,0,0,14.9-8.51l4.28-4.76,1.3,6.23a26.77,26.77,0,0,0,8.65,14.67l4.83,4.21-6.32,1.29a27.29,27.29,0,0,0-14.91,8.51Z"/><path class="cls-16" d="M112.88,300.62l-4.81-4.21,6.32-1.28a27.36,27.36,0,0,0,14.9-8.51l2.18-2.42L130.8,281l-4.28,4.76a27.27,27.27,0,0,1-14.89,8.51l-6.32,1.29,4.83,4.21a26.68,26.68,0,0,1,8.61,14.67l1.31,6.23,2.1-2.34-.63-3A26.76,26.76,0,0,0,112.88,300.62Z"/><ellipse class="cls-17" cx="79.77" cy="310.94" rx="24.55" ry="24.18"/><g class="cls-13"><path class="cls-14" d="M79.77,333.05a22.11,22.11,0,1,1,22.44-22.12h0A22.34,22.34,0,0,1,79.77,333.05Zm0-43.09a21,21,0,1,0,21.29,21h0a21.16,21.16,0,0,0-21.29-21Z"/></g><path class="cls-18" d="M91.28,322.27l-4.79-1.56a21.48,21.48,0,0,0-13.45,0l-4.78,1.56,1.59-4.7a20.59,20.59,0,0,0,0-13.25l-1.59-4.72L73,301.18a21.77,21.77,0,0,0,13.45,0l4.79-1.58-1.6,4.72a20.72,20.72,0,0,0,0,13.25Z"/><path class="cls-19" d="M74.7,319.19,70,320.76l1.59-4.71a20.59,20.59,0,0,0,0-13.25l-.81-2.39-2.44-.81,1.59,4.72a20.59,20.59,0,0,1,0,13.25l-1.59,4.7,4.78-1.56a21.48,21.48,0,0,1,13.45,0l4.79,1.56L90.49,320l-2.34-.77A21.62,21.62,0,0,0,74.7,319.19Z"/><ellipse class="cls-20" cx="171.07" cy="313.03" rx="33.37" ry="32.86"/><g class="cls-13"><path class="cls-14" d="M149.5,334.27a29.72,29.72,0,0,1,0-42.47,30.82,30.82,0,0,1,43.13,0,29.7,29.7,0,0,1,0,42.47h0A30.87,30.87,0,0,1,149.5,334.27Zm42-41.36a29.25,29.25,0,0,0-40.92,0,28.19,28.19,0,0,0,0,40.3,29.25,29.25,0,0,0,40.92,0A28.23,28.23,0,0,0,191.53,292.91Z"/></g><path class="cls-21" d="M171.07,334.81l-3.06-6a28.7,28.7,0,0,0-12.93-12.73L149,313l6.13-3A28.7,28.7,0,0,0,168,297.28l3.06-6,3.06,6A28.7,28.7,0,0,0,187.06,310l6.13,3-6.13,3a28.7,28.7,0,0,0-12.93,12.73Z"/><path class="cls-22" d="M158.15,316.17l-6.13-3,6.13-3a28.65,28.65,0,0,0,12.93-12.73l1.56-3.07-1.57-3.08-3.06,6A28.7,28.7,0,0,1,155.08,310L149,313l6.13,3A28.7,28.7,0,0,1,168,328.78l3.06,6,1.51-3-1.5-2.94A28.65,28.65,0,0,0,158.15,316.17Z"/><ellipse class="cls-23" cx="119.23" cy="324.37" rx="23.84" ry="23.48"/><g class="cls-13"><path class="cls-14" d="M119.23,345.84A21.46,21.46,0,1,1,141,324.38h0A21.66,21.66,0,0,1,119.23,345.84Zm0-41.85a20.37,20.37,0,1,0,20.67,20.37h0A20.56,20.56,0,0,0,119.23,304Z"/></g><path class="cls-24" d="M130.4,335.38l-4.64-1.53a21,21,0,0,0-13.07,0l-4.62,1.53,1.55-4.58a20.08,20.08,0,0,0,0-12.86l-1.55-4.58,4.64,1.53a21,21,0,0,0,13.06,0l4.65-1.53-1.55,4.58a20.08,20.08,0,0,0,0,12.86Z"/><path class="cls-25" d="M114.32,332.39l-4.64,1.52,1.55-4.58a20.08,20.08,0,0,0,0-12.86l-.79-2.33-2.38-.78,1.55,4.58a19.94,19.94,0,0,1,0,12.86l-1.54,4.58,4.64-1.53a21,21,0,0,1,13.06,0l4.65,1.53-.76-2.25-2.27-.74A20.86,20.86,0,0,0,114.32,332.39Z"/><ellipse class="cls-26" cx="89.75" cy="333.94" rx="12.39" ry="12.2"/><g class="cls-13"><path class="cls-14" d="M79.69,339.07a11.07,11.07,0,0,1,4.86-15,11.41,11.41,0,0,1,15.25,4.8,11.07,11.07,0,0,1-4.85,15A11.42,11.42,0,0,1,79.69,339.07Zm19.63-10a10.81,10.81,0,0,0-14.47-4.55,10.5,10.5,0,0,0-4.62,14.25,10.82,10.82,0,0,0,14.43,4.57,10.52,10.52,0,0,0,4.67-14.26Z"/></g><path class="cls-27" d="M87.24,341.65l-.39-2.46a10.47,10.47,0,0,0-3.12-5.94l-1.82-1.76,2.5-.38a10.77,10.77,0,0,0,6-3.07l1.78-1.8.39,2.47a10.47,10.47,0,0,0,3.12,5.94l1.82,1.75-2.5.39a10.77,10.77,0,0,0-6,3.07Z"/><path class="cls-28" d="M84.82,333.61,83,331.86l2.5-.38a10.72,10.72,0,0,0,6-3.08l.9-.91-.19-1.26L90.47,328a10.77,10.77,0,0,1-6,3.07l-2.5.39,1.82,1.75a10.47,10.47,0,0,1,3.12,5.94l.39,2.46.87-.89L88,339.51A10.57,10.57,0,0,0,84.82,333.61Z"/><ellipse class="cls-29" cx="145.84" cy="340.15" rx="15.37" ry="15.14"/><g class="cls-13"><path class="cls-14" d="M149.85,353.41a14.1,14.1,0,0,1-17.49-9.3,13.82,13.82,0,0,1,9.45-17.23,14.11,14.11,0,0,1,17.49,9.3A13.82,13.82,0,0,1,149.85,353.41ZM142,327.56a13.09,13.09,0,0,0-9,16.34,13.37,13.37,0,0,0,16.59,8.82,13.1,13.1,0,0,0,9-16.34A13.38,13.38,0,0,0,142,327.57Z"/></g><path class="cls-30" d="M154.8,344.92l-3.13-.1a13.46,13.46,0,0,0-8.07,2.37L141,349l.1-3.11a13,13,0,0,0-2.43-7.94l-1.81-2.55,3.12.1a13.46,13.46,0,0,0,8.07-2.37l2.58-1.79-.1,3.11a13,13,0,0,0,2.41,7.95Z"/><path class="cls-31" d="M144.32,346l-2.59,1.79.1-3.08a12.93,12.93,0,0,0-2.41-7.94l-.92-1.3-1.61,0L138.7,338a13,13,0,0,1,2.41,7.94L141,349l2.58-1.78a13.34,13.34,0,0,1,8.08-2.37l3.12.09-.89-1.23-1.54-.05A13.46,13.46,0,0,0,144.32,346Z"/></svg>