<svg id="圖層_1" data-name="圖層 1" xmlns="http://www.w3.org/2000/svg" viewBox="0 0 250 380"><defs><style>.cls-1{fill:#aa1d1d;}.cls-2{fill:#f72b2b;}.cls-3{fill:#efe870;}</style></defs><polygon class="cls-1" points="0.01 0 0.01 0.01 0.01 361.09 0.01 361.1 250 361.1 250 0 0.01 0"/><polygon class="cls-2" points="250 18.59 249.83 18.9 0.18 18.9 0.01 18.59 0.01 18.9 0.01 18.91 0.01 379.89 0.01 379.99 0.01 380 250 380 250 379.89 250 379.89 250 18.59"/><path class="cls-3" d="M238.4,27.68h-9.25v5H224v-5H25.63v5h-5.2v-5H11.16v8.39h5.29l0,1.91H11.16V358.59h5.27l0,1.91H11.16v8.39h9.26v-5h5.2v5H223.94v-5h5.2v5h9.25V360.5h-5.29l0-1.91h5.27V38h-5.27l0-1.91h5.29Zm-9.25,6.48v.44H224v-.44Zm-7,1.91h7v.24h-14.4l0-2.15h7.33ZM20.42,34.16h5.2v.44h-5.2Zm0,1.91h7V34.16h7.33l0,2.15H20.42ZM13,34.6V29.15h5.58v3.54H16.49l0,1.91Zm5.26,4.85H26.5v3.42H18.23Zm.32,328H13V362h3.47l0,1.91h2.09Zm-.35-13.72H26.5v3.42H18.26Zm2.19,8.71V362h5.2v.44Zm7-1.91h-7v-.24h14.4l0,2.15H27.46Zm201.69,1.91H224V362h5.2Zm0-1.91h-7v1.91h-7.33l0-2.15h14.4Zm7.41,1.47v5.45H231v-3.54h2.09l0-1.91Zm-5.25-4.85h-8.24V353.7h8.27ZM233.2,44.33l0-4.88h3.41V357.12h-3.41l0-4.88h-12v6.35h10.06l0,1.91H231v-1.71h-18.1l.07,5.09h9.15v3.54H27.47v-3.54h9.15l.07-5.09H18.58v1.71h-.29l0-1.91H28.34v-6.35h-12l.05,4.88H13V39.45h3.42l-.05,4.88h12V38H18.27l0-1.91h.29v1.71h18.1l-.07-5.09H27.46V29.15H222.1v3.54H213l-.07,5.09H231V36.07h.28l0,1.91H221.23v6.35Zm-1.89-4.88,0,3.42h-8.27V39.45Zm5.25-4.85H233.1l0-1.91H231V29.15h5.57Z"/><circle class="cls-3" cx="125.63" cy="199.89" r="75.17" transform="translate(-104.55 147.38) rotate(-45)"/><path class="cls-2" d="M91.49,215.5c2.42-1.93,4.11-2.17,5.09-.72,1.45,1.45,1.45,3.15,0,5.08a25.35,25.35,0,0,1-9.45,8c-2.42.49-3.15,0-2.18-1.45A36.08,36.08,0,0,0,91.49,215.5Zm26.87-10.17c.49,2.43-.24,3.4-2.17,2.91q-.73.73-3.64-2.91-5.08,6.54-10.16,6.54a31,31,0,0,1-8-1.45,26.65,26.65,0,0,1-6.54-.73q-2.91-3.62,1.45-6.53a70.37,70.37,0,0,0,10.17-8.72,42.77,42.77,0,0,0-9.44.73c-1.94.48-2.91-1.21-2.91-5.09a9.75,9.75,0,0,1,3.63-4.36q8-7.26,10.9-13.07,2.18-2.18,3.63-1.45,5.08,3.63,2.18,6.54a75.94,75.94,0,0,1-11.62,10.89q-1.45,2.18,7.26,2.18a109.69,109.69,0,0,0,8-8.72c1.45-1.93,3.15-2.18,5.09-.72a4.86,4.86,0,0,1-.73,6.53q-8,7.28-15.25,13.8c-1.46,1.46-2.18,2.43-2.18,2.91a4.91,4.91,0,0,0,3.63,1.45q4.35,0,8.72-3.63c-2.43-1.93-3.4-3.63-2.91-5.08,1.45-1.94,3.14-2.42,5.08-1.46Q115.46,198.08,118.36,205.33Zm-16.7,12.35a3.43,3.43,0,0,1,2.9-3.63c2.91,0,3.87,1.7,2.91,5.09q-.73,3.63-1.45,6.53-1.45,2.19-2.91,0A31.05,31.05,0,0,1,101.66,217.68Zm13.8-5.08q.72,2.91,2.18,8,0,2.17-2.91.72a25.34,25.34,0,0,1-4.35-6.53c-.49-2.42,0-3.87,1.45-4.36S114.49,210.66,115.46,212.6Zm13.07-34.14q3.63.73,24.7,0,5.81-.72,7.26,1.45c1.45,3.4,1,5.09-1.45,5.09H146.69v25.42h21.79q-5.8,11.63-10.17,9.44-5.09-2.18-16-2.9c-10.16,0-17,.72-20.33,2.18q-2.91,1.46-2.18-2.18,1.44-8,5.08-7.27a34.58,34.58,0,0,0,12.35.73V185q-9.45,0-13.07,1.45c-2,.49-2.67-.24-2.18-2.18Q124.18,177,128.53,178.46Z"/></svg>